<?xml version="1.0" encoding="UTF-8" standalone="no"?>
<!-- Created with Inkscape (http://www.inkscape.org/) -->

<svg
   width="635.08997"
   height="298.21594"
   id="svg2"
   version="1.1"
   inkscape:version="1.1.2 (0a00cf5339, 2022-02-04)"
   sodipodi:docname="analogbeamforming.svg"
   xmlns:inkscape="http://www.inkscape.org/namespaces/inkscape"
   xmlns:sodipodi="http://sodipodi.sourceforge.net/DTD/sodipodi-0.dtd"
   xmlns:xlink="http://www.w3.org/1999/xlink"
   xmlns="http://www.w3.org/2000/svg"
   xmlns:svg="http://www.w3.org/2000/svg"
   xmlns:rdf="http://www.w3.org/1999/02/22-rdf-syntax-ns#"
   xmlns:cc="http://creativecommons.org/ns#"
   xmlns:dc="http://purl.org/dc/elements/1.1/">
  <sodipodi:namedview
     id="base"
     pagecolor="#ffffff"
     bordercolor="#666666"
     borderopacity="1.0"
     inkscape:pageopacity="0.0"
     inkscape:pageshadow="2"
     inkscape:zoom="1.5511122"
     inkscape:cx="104.76354"
     inkscape:cy="177.61449"
     inkscape:document-units="px"
     inkscape:current-layer="layer1"
     showgrid="false"
     inkscape:window-width="2502"
     inkscape:window-height="1376"
     inkscape:window-x="0"
     inkscape:window-y="0"
     inkscape:window-maximized="1"
     fit-margin-top="0"
     fit-margin-left="0"
     fit-margin-right="0"
     fit-margin-bottom="0"
     inkscape:pagecheckerboard="0" />
  <defs
     id="defs4">
    <marker
       style="overflow:visible;"
       id="Arrow1Lend"
       refX="0.0"
       refY="0.0"
       orient="auto"
       inkscape:stockid="Arrow1Lend"
       inkscape:isstock="true">
      <path
         transform="scale(0.8) rotate(180) translate(12.5,0)"
         style="fill-rule:evenodd;fill:context-stroke;stroke:context-stroke;stroke-width:1.0pt;"
         d="M 0.0,0.0 L 5.0,-5.0 L -12.5,0.0 L 5.0,5.0 L 0.0,0.0 z "
         id="path930" />
    </marker>
    <g
       id="g8203">
      <symbol
         overflow="visible"
         id="symbol4013">
        <path
           style="stroke:none;"
           d=""
           id="path2770" />
      </symbol>
      <symbol
         overflow="visible"
         id="symbol4204">
        <path
           style="stroke:none;"
           d="M 4.671875 -3.703125 C 4.671875 -4.25 4.40625 -4.40625 4.234375 -4.40625 C 3.984375 -4.40625 3.734375 -4.140625 3.734375 -3.921875 C 3.734375 -3.796875 3.78125 -3.734375 3.890625 -3.625 C 4.109375 -3.421875 4.234375 -3.171875 4.234375 -2.8125 C 4.234375 -2.390625 3.625 -0.109375 2.46875 -0.109375 C 1.953125 -0.109375 1.71875 -0.453125 1.71875 -0.984375 C 1.71875 -1.53125 2 -2.265625 2.296875 -3.09375 C 2.375 -3.265625 2.421875 -3.40625 2.421875 -3.59375 C 2.421875 -4.03125 2.109375 -4.40625 1.609375 -4.40625 C 0.671875 -4.40625 0.296875 -2.953125 0.296875 -2.875 C 0.296875 -2.765625 0.390625 -2.765625 0.40625 -2.765625 C 0.515625 -2.765625 0.515625 -2.796875 0.5625 -2.953125 C 0.859375 -3.953125 1.28125 -4.1875 1.578125 -4.1875 C 1.65625 -4.1875 1.828125 -4.1875 1.828125 -3.875 C 1.828125 -3.625 1.71875 -3.34375 1.65625 -3.171875 C 1.21875 -2.015625 1.09375 -1.5625 1.09375 -1.125 C 1.09375 -0.046875 1.96875 0.109375 2.421875 0.109375 C 4.09375 0.109375 4.671875 -3.1875 4.671875 -3.703125 Z M 4.671875 -3.703125 "
           id="path1315" />
      </symbol>
      <symbol
         overflow="visible"
         id="symbol2028">
        <path
           style="stroke:none;"
           d=""
           id="path2992" />
      </symbol>
      <symbol
         overflow="visible"
         id="symbol5322">
        <path
           style="stroke:none;"
           d="M 5.8125 -4 C 5.875 -4.265625 6 -4.5 6.546875 -4.515625 C 6.578125 -4.515625 6.6875 -4.515625 6.6875 -4.65625 C 6.6875 -4.703125 6.65625 -4.765625 6.578125 -4.765625 C 6.359375 -4.765625 6.09375 -4.734375 5.859375 -4.734375 C 5.6875 -4.734375 5.296875 -4.765625 5.125 -4.765625 C 5.09375 -4.765625 4.984375 -4.765625 4.984375 -4.609375 C 4.984375 -4.515625 5.078125 -4.515625 5.140625 -4.515625 C 5.46875 -4.5 5.578125 -4.390625 5.578125 -4.21875 C 5.578125 -4.171875 5.578125 -4.125 5.546875 -4.0625 L 4.796875 -1.015625 L 3.03125 -4.640625 C 2.96875 -4.765625 2.953125 -4.765625 2.78125 -4.765625 L 1.828125 -4.765625 C 1.703125 -4.765625 1.609375 -4.765625 1.609375 -4.609375 C 1.609375 -4.515625 1.6875 -4.515625 1.84375 -4.515625 C 1.984375 -4.515625 2.140625 -4.5 2.28125 -4.46875 L 1.359375 -0.75 C 1.296875 -0.484375 1.171875 -0.265625 0.625 -0.25 C 0.578125 -0.25 0.484375 -0.25 0.484375 -0.109375 C 0.484375 -0.03125 0.53125 0 0.578125 0 C 0.8125 0 1.078125 -0.03125 1.3125 -0.03125 C 1.484375 -0.03125 1.875 0 2.046875 0 C 2.125 0 2.1875 -0.03125 2.1875 -0.140625 C 2.1875 -0.25 2.109375 -0.25 2.03125 -0.25 C 1.59375 -0.265625 1.59375 -0.453125 1.59375 -0.546875 C 1.59375 -0.578125 1.59375 -0.609375 1.609375 -0.71875 L 2.515625 -4.28125 L 4.546875 -0.125 C 4.59375 0 4.625 0 4.703125 0 C 4.8125 0 4.8125 -0.015625 4.84375 -0.140625 Z M 5.8125 -4 "
           id="path5618" />
      </symbol>
      <symbol
         overflow="visible"
         id="symbol834">
        <path
           style="stroke:none;"
           d=""
           id="path5139" />
      </symbol>
      <symbol
         overflow="visible"
         id="symbol5226">
        <path
           style="stroke:none;"
           d="M 1.5625 -1.921875 L 2.15625 -1.921875 C 2.265625 -1.921875 2.265625 -1.921875 2.28125 -1.953125 C 2.3125 -1.96875 2.328125 -2.03125 2.328125 -2.0625 C 2.328125 -2.140625 2.25 -2.140625 2.171875 -2.140625 L 1.625 -2.140625 L 1.71875 -2.5625 C 1.75 -2.6875 1.8125 -2.921875 1.8125 -2.953125 C 1.8125 -3.03125 1.75 -3.125 1.625 -3.125 C 1.546875 -3.125 1.421875 -3.0625 1.390625 -2.9375 C 1.359375 -2.84375 1.421875 -3.078125 1.1875 -2.140625 L 0.59375 -2.140625 C 0.5 -2.140625 0.421875 -2.140625 0.421875 -2.015625 C 0.421875 -1.921875 0.484375 -1.921875 0.578125 -1.921875 L 1.125 -1.921875 L 0.84375 -0.75 C 0.8125 -0.640625 0.765625 -0.484375 0.765625 -0.421875 C 0.765625 -0.140625 1.03125 0.0625 1.390625 0.0625 C 1.984375 0.0625 2.359375 -0.625 2.359375 -0.71875 C 2.359375 -0.78125 2.265625 -0.78125 2.25 -0.78125 C 2.171875 -0.78125 2.15625 -0.765625 2.140625 -0.703125 C 1.96875 -0.34375 1.671875 -0.109375 1.40625 -0.109375 C 1.25 -0.109375 1.203125 -0.234375 1.203125 -0.375 C 1.203125 -0.453125 1.203125 -0.46875 1.21875 -0.515625 Z M 1.5625 -1.921875 "
           id="path1702" />
      </symbol>
    </g>
    <g
       id="g3500">
      <symbol
         overflow="visible"
         id="symbol2369">
        <path
           style="stroke:none;"
           d=""
           id="path74" />
      </symbol>
      <symbol
         overflow="visible"
         id="symbol1080">
        <path
           style="stroke:none;"
           d="M 3.328125 -3.015625 C 3.390625 -3.265625 3.625 -4.1875 4.3125 -4.1875 C 4.359375 -4.1875 4.609375 -4.1875 4.8125 -4.0625 C 4.53125 -4 4.34375 -3.765625 4.34375 -3.515625 C 4.34375 -3.359375 4.453125 -3.171875 4.71875 -3.171875 C 4.9375 -3.171875 5.25 -3.34375 5.25 -3.75 C 5.25 -4.265625 4.671875 -4.40625 4.328125 -4.40625 C 3.75 -4.40625 3.40625 -3.875 3.28125 -3.65625 C 3.03125 -4.3125 2.5 -4.40625 2.203125 -4.40625 C 1.171875 -4.40625 0.59375 -3.125 0.59375 -2.875 C 0.59375 -2.765625 0.703125 -2.765625 0.71875 -2.765625 C 0.796875 -2.765625 0.828125 -2.796875 0.84375 -2.875 C 1.1875 -3.9375 1.84375 -4.1875 2.1875 -4.1875 C 2.375 -4.1875 2.71875 -4.09375 2.71875 -3.515625 C 2.71875 -3.203125 2.546875 -2.546875 2.1875 -1.140625 C 2.03125 -0.53125 1.671875 -0.109375 1.234375 -0.109375 C 1.171875 -0.109375 0.953125 -0.109375 0.734375 -0.234375 C 0.984375 -0.296875 1.203125 -0.5 1.203125 -0.78125 C 1.203125 -1.046875 0.984375 -1.125 0.84375 -1.125 C 0.53125 -1.125 0.296875 -0.875 0.296875 -0.546875 C 0.296875 -0.09375 0.78125 0.109375 1.21875 0.109375 C 1.890625 0.109375 2.25 -0.59375 2.265625 -0.640625 C 2.390625 -0.28125 2.75 0.109375 3.34375 0.109375 C 4.375 0.109375 4.9375 -1.171875 4.9375 -1.421875 C 4.9375 -1.53125 4.859375 -1.53125 4.828125 -1.53125 C 4.734375 -1.53125 4.71875 -1.484375 4.6875 -1.421875 C 4.359375 -0.34375 3.6875 -0.109375 3.375 -0.109375 C 2.984375 -0.109375 2.828125 -0.421875 2.828125 -0.765625 C 2.828125 -0.984375 2.875 -1.203125 2.984375 -1.640625 Z M 3.328125 -3.015625 "
           id="path7758" />
      </symbol>
      <symbol
         overflow="visible"
         id="symbol3512">
        <path
           style="stroke:none;"
           d=""
           id="path4145" />
      </symbol>
      <symbol
         overflow="visible"
         id="symbol6738">
        <path
           style="stroke:none;"
           d="M 2.1875 -4.625 C 2.1875 -4.640625 2.203125 -4.734375 2.203125 -4.734375 C 2.203125 -4.78125 2.1875 -4.84375 2.09375 -4.84375 C 1.953125 -4.84375 1.375 -4.78125 1.203125 -4.765625 C 1.15625 -4.765625 1.046875 -4.75 1.046875 -4.609375 C 1.046875 -4.515625 1.15625 -4.515625 1.234375 -4.515625 C 1.5625 -4.515625 1.5625 -4.453125 1.5625 -4.40625 C 1.5625 -4.359375 1.546875 -4.3125 1.546875 -4.25 L 0.5625 -0.3125 C 0.515625 -0.1875 0.515625 -0.171875 0.515625 -0.15625 C 0.515625 -0.046875 0.609375 0.0625 0.765625 0.0625 C 0.953125 0.0625 1.03125 -0.0625 1.078125 -0.21875 C 1.09375 -0.25 1.390625 -1.484375 1.421875 -1.578125 C 1.921875 -1.53125 2.3125 -1.359375 2.3125 -1 C 2.3125 -0.96875 2.3125 -0.9375 2.296875 -0.859375 C 2.265625 -0.765625 2.265625 -0.71875 2.265625 -0.640625 C 2.265625 -0.15625 2.671875 0.0625 3.015625 0.0625 C 3.6875 0.0625 3.890625 -0.984375 3.890625 -1 C 3.890625 -1.09375 3.8125 -1.09375 3.78125 -1.09375 C 3.6875 -1.09375 3.671875 -1.046875 3.640625 -0.921875 C 3.5625 -0.625 3.375 -0.125 3.03125 -0.125 C 2.84375 -0.125 2.78125 -0.296875 2.78125 -0.484375 C 2.78125 -0.609375 2.78125 -0.625 2.828125 -0.796875 C 2.84375 -0.828125 2.859375 -0.9375 2.859375 -1.015625 C 2.859375 -1.640625 2.03125 -1.734375 1.734375 -1.75 C 1.9375 -1.875 2.1875 -2.109375 2.3125 -2.21875 C 2.671875 -2.546875 3.015625 -2.875 3.40625 -2.875 C 3.484375 -2.875 3.578125 -2.859375 3.640625 -2.78125 C 3.34375 -2.734375 3.28125 -2.5 3.28125 -2.390625 C 3.28125 -2.25 3.390625 -2.140625 3.546875 -2.140625 C 3.75 -2.140625 3.953125 -2.296875 3.953125 -2.578125 C 3.953125 -2.8125 3.78125 -3.078125 3.421875 -3.078125 C 3.015625 -3.078125 2.65625 -2.78125 2.296875 -2.453125 C 2 -2.1875 1.78125 -1.96875 1.484375 -1.84375 Z M 2.1875 -4.625 "
           id="path1786" />
      </symbol>
    </g>
  </defs>
  <metadata
     id="metadata7">
    <rdf:RDF>
      <cc:Work
         rdf:about="">
        <dc:format>image/svg+xml</dc:format>
        <dc:type
           rdf:resource="http://purl.org/dc/dcmitype/StillImage" />
        <dc:title />
      </cc:Work>
    </rdf:RDF>
  </metadata>
  <ellipse
     style="fill:#cccccc;stroke:#cccccc;stroke-width:0.35831666"
     id="path10595"
     transform="rotate(-30)"
     cx="393.76709"
     cy="323.26102"
     rx="151.00023"
     ry="39.44669"
     inkscape:transform-center-x="-131.0689"
     inkscape:transform-center-y="-75.672669" />
  <ellipse
     id="path10597"
     style="fill:#cccccc;stroke:#cccccc;stroke-width:0.11537498"
     transform="matrix(0.25881905,-0.96592583,0.5,0.8660254,0,0)"
     inkscape:transform-center-x="-10.740803"
     inkscape:transform-center-y="-39.592906"
     cx="383.98727"
     cy="565.86298"
     rx="40.847878"
     ry="15.118476" />
  <ellipse
     inkscape:transform-center-x="-66.96004"
     transform="matrix(1,0,0.5,0.8660254,0,0)"
     style="fill:#cccccc;stroke:#cccccc;stroke-width:0.1473745"
     id="path10601"
     inkscape:transform-center-y="-0.082982601"
     cx="346.9325"
     cy="183.20291"
     rx="66.737152"
     ry="15.098412" />
  <ellipse
     id="path10605"
     style="fill:#cccccc;stroke:#cccccc;stroke-width:0.1473745"
     transform="matrix(0.5,-0.86602541,0.5,0.8660254,0,0)"
     inkscape:transform-center-x="-33.551883"
     inkscape:transform-center-y="-57.947611"
     cx="346.9325"
     cy="463.31909"
     rx="66.737152"
     ry="15.098412" />
  <ellipse
     inkscape:transform-center-x="-39.658865"
     transform="matrix(0.96592583,0.25881905,0.5,0.8660254,0,0)"
     style="fill:#cccccc;stroke:#cccccc;stroke-width:0.11537498"
     id="path10607"
     inkscape:transform-center-y="10.494656"
     cx="383.9873"
     cy="80.659058"
     rx="40.847878"
     ry="15.118476" />
  <g
     id="layer1"
     inkscape:groupmode="layer"
     inkscape:label="Layer 1"
     transform="translate(292.926, -97.7402)">
    <rect
       y="206.56149"
       x="-200.20534"
       height="78.8228"
       width="118.97497"
       id="rect2985"
       style="fill:#ffffff;fill-rule:evenodd;stroke:#000000;stroke-width:0.80851465px;stroke-linecap:butt;stroke-linejoin:miter;stroke-opacity:1" />
    <text
       id="text2987"
       y="259.35696"
       x="-183.37952"
       style="font-style:normal;font-weight:normal;line-height:0%;font-family:sans-serif;letter-spacing:0px;word-spacing:0px;fill:#000000;fill-opacity:1;stroke:none"
       xml:space="preserve"><tspan
         y="259.35696"
         x="-183.37952"
         id="tspan2989"
         sodipodi:role="line"
         style="font-size:40px;line-height:1.25;font-family:sans-serif">DAC</tspan></text>
    <path
       style="fill:none;stroke:#000000;stroke-width:1px;stroke-linecap:butt;stroke-linejoin:miter;stroke-opacity:1"
       d="m -81.326104,245.9729 h 71.10279 V 137.22746 h 56.46398"
       id="path3022"
       inkscape:connector-curvature="0"
       sodipodi:nodetypes="cccc" />
    <g
       id="g3070"
       transform="translate(-289.61545)">
      <circle
         transform="matrix(0.49147647,0,0,0.49147647,191.52858,323.26278)"
         id="path3064"
         style="fill:#ffffff;stroke:#000000"
         cx="242.58598"
         cy="93.729286"
         r="16.730068" />
      <path
         inkscape:connector-curvature="0"
         id="path3066"
         d="m 300.88696,380.4288 18.9116,-22.20057"
         style="fill:none;stroke:#000000;stroke-width:0.49147648px;stroke-linecap:butt;stroke-linejoin:miter;stroke-opacity:1" />
      <path
         inkscape:connector-curvature="0"
         id="path3068"
         d="m 312.80949,359.05047 6.98907,-1.23336 -0.82224,6.16682"
         style="fill:none;stroke:#000000;stroke-width:0.49147648px;stroke-linecap:butt;stroke-linejoin:miter;stroke-opacity:1" />
    </g>
    <g
       id="g3075"
       transform="translate(-289.61545,-33.101677)">
      <circle
         style="fill:#ffffff;stroke:#000000"
         id="path3077"
         transform="matrix(0.49147647,0,0,0.49147647,191.52858,323.26278)"
         cx="242.58598"
         cy="93.729286"
         r="16.730068" />
      <path
         style="fill:none;stroke:#000000;stroke-width:0.49147648px;stroke-linecap:butt;stroke-linejoin:miter;stroke-opacity:1"
         d="m 300.88696,380.4288 18.9116,-22.20057"
         id="path3079"
         inkscape:connector-curvature="0" />
      <path
         style="fill:none;stroke:#000000;stroke-width:0.49147648px;stroke-linecap:butt;stroke-linejoin:miter;stroke-opacity:1"
         d="m 312.80949,359.05047 6.98907,-1.23336 -0.82224,6.16682"
         id="path3081"
         inkscape:connector-curvature="0" />
    </g>
    <g
       id="g3083"
       transform="translate(-288.77895,-66.203292)">
      <circle
         style="fill:#ffffff;stroke:#000000"
         id="path3085"
         transform="matrix(0.49147647,0,0,0.49147647,191.52858,323.26278)"
         cx="242.58598"
         cy="93.729286"
         r="16.730068" />
      <path
         style="fill:none;stroke:#000000;stroke-width:0.49147648px;stroke-linecap:butt;stroke-linejoin:miter;stroke-opacity:1"
         d="m 300.88696,380.4288 18.9116,-22.20057"
         id="path3087"
         inkscape:connector-curvature="0" />
      <path
         style="fill:none;stroke:#000000;stroke-width:0.49147648px;stroke-linecap:butt;stroke-linejoin:miter;stroke-opacity:1"
         d="m 312.80949,359.05047 6.98907,-1.23336 -0.82224,6.16682"
         id="path3089"
         inkscape:connector-curvature="0" />
    </g>
    <g
       transform="translate(-288.77895,-99.30491)"
       id="g3091">
      <circle
         transform="matrix(0.49147647,0,0,0.49147647,191.52858,323.26278)"
         id="path3093"
         style="fill:#ffffff;stroke:#000000"
         cx="242.58598"
         cy="93.729286"
         r="16.730068" />
      <path
         inkscape:connector-curvature="0"
         id="path3095"
         d="m 300.88696,380.4288 18.9116,-22.20057"
         style="fill:none;stroke:#000000;stroke-width:0.49147648px;stroke-linecap:butt;stroke-linejoin:miter;stroke-opacity:1" />
      <path
         inkscape:connector-curvature="0"
         id="path3097"
         d="m 312.80949,359.05047 6.98907,-1.23336 -0.82224,6.16682"
         style="fill:none;stroke:#000000;stroke-width:0.49147648px;stroke-linecap:butt;stroke-linejoin:miter;stroke-opacity:1" />
    </g>
    <g
       id="g3099"
       transform="translate(-287.94245,-132.40653)">
      <circle
         style="fill:#ffffff;stroke:#000000"
         id="path3101"
         transform="matrix(0.49147647,0,0,0.49147647,191.52858,323.26278)"
         cx="242.58598"
         cy="93.729286"
         r="16.730068" />
      <path
         style="fill:none;stroke:#000000;stroke-width:0.49147648px;stroke-linecap:butt;stroke-linejoin:miter;stroke-opacity:1"
         d="m 300.88696,380.4288 18.9116,-22.20057"
         id="path3103"
         inkscape:connector-curvature="0" />
      <path
         style="fill:none;stroke:#000000;stroke-width:0.49147648px;stroke-linecap:butt;stroke-linejoin:miter;stroke-opacity:1"
         d="m 312.80949,359.05047 6.98907,-1.23336 -0.82224,6.16682"
         id="path3105"
         inkscape:connector-curvature="0" />
    </g>
    <g
       transform="translate(-287.94245,-165.50821)"
       id="g3107">
      <circle
         transform="matrix(0.49147647,0,0,0.49147647,191.52858,323.26278)"
         id="path3109"
         style="fill:#ffffff;stroke:#000000"
         cx="242.58598"
         cy="93.729286"
         r="16.730068" />
      <path
         inkscape:connector-curvature="0"
         id="path3111"
         d="m 300.88696,380.4288 18.9116,-22.20057"
         style="fill:none;stroke:#000000;stroke-width:0.49147648px;stroke-linecap:butt;stroke-linejoin:miter;stroke-opacity:1" />
      <path
         inkscape:connector-curvature="0"
         id="path3113"
         d="m 312.80949,359.05047 6.98907,-1.23336 -0.82224,6.16682"
         style="fill:none;stroke:#000000;stroke-width:0.49147648px;stroke-linecap:butt;stroke-linejoin:miter;stroke-opacity:1" />
    </g>
    <g
       transform="translate(-287.10594,-198.60983)"
       id="g3115">
      <circle
         transform="matrix(0.49147647,0,0,0.49147647,191.52858,323.26278)"
         id="path3117"
         style="fill:#ffffff;stroke:#000000"
         cx="242.58598"
         cy="93.729286"
         r="16.730068" />
      <path
         inkscape:connector-curvature="0"
         id="path3119"
         d="m 300.88696,380.4288 18.9116,-22.20057"
         style="fill:none;stroke:#000000;stroke-width:0.49147648px;stroke-linecap:butt;stroke-linejoin:miter;stroke-opacity:1" />
      <path
         inkscape:connector-curvature="0"
         id="path3121"
         d="m 312.80949,359.05047 6.98907,-1.23336 -0.82224,6.16682"
         style="fill:none;stroke:#000000;stroke-width:0.49147648px;stroke-linecap:butt;stroke-linejoin:miter;stroke-opacity:1" />
    </g>
    <g
       id="g3123"
       transform="translate(-287.10594,-231.71144)">
      <circle
         style="fill:#ffffff;stroke:#000000"
         id="path3125"
         transform="matrix(0.49147647,0,0,0.49147647,191.52858,323.26278)"
         cx="242.58598"
         cy="93.729286"
         r="16.730068" />
      <path
         style="fill:none;stroke:#000000;stroke-width:0.49147648px;stroke-linecap:butt;stroke-linejoin:miter;stroke-opacity:1"
         d="m 300.88696,380.4288 18.9116,-22.20057"
         id="path3127"
         inkscape:connector-curvature="0" />
      <path
         style="fill:none;stroke:#000000;stroke-width:0.49147648px;stroke-linecap:butt;stroke-linejoin:miter;stroke-opacity:1"
         d="m 312.80949,359.05047 6.98907,-1.23336 -0.82224,6.16682"
         id="path3129"
         inkscape:connector-curvature="0" />
    </g>
    <path
       style="fill:none;stroke:#000000;stroke-width:1px;stroke-linecap:butt;stroke-linejoin:miter;stroke-opacity:1"
       d="m -10.223314,245.1364 v 124.63901 h 56.46398"
       id="path3165"
       inkscape:connector-curvature="0"
       sodipodi:nodetypes="ccc" />
    <path
       style="fill:none;stroke:#000000;stroke-width:1px;stroke-linecap:butt;stroke-linejoin:miter;stroke-opacity:1"
       d="m 45.822406,170.51313 h -56.88223"
       id="path3167"
       inkscape:connector-curvature="0" />
    <path
       inkscape:connector-curvature="0"
       id="path3169"
       d="m 45.822406,203.61475 h -56.88223"
       style="fill:none;stroke:#000000;stroke-width:1px;stroke-linecap:butt;stroke-linejoin:miter;stroke-opacity:1" />
    <path
       style="fill:none;stroke:#000000;stroke-width:1px;stroke-linecap:butt;stroke-linejoin:miter;stroke-opacity:1"
       d="m 45.822406,236.71643 h -56.88223"
       id="path3171"
       inkscape:connector-curvature="0" />
    <path
       inkscape:connector-curvature="0"
       id="path3173"
       d="m 45.822406,269.81805 h -56.88223"
       style="fill:none;stroke:#000000;stroke-width:1px;stroke-linecap:butt;stroke-linejoin:miter;stroke-opacity:1" />
    <path
       style="fill:none;stroke:#000000;stroke-width:1px;stroke-linecap:butt;stroke-linejoin:miter;stroke-opacity:1"
       d="m 45.822406,302.91966 h -56.88223"
       id="path3175"
       inkscape:connector-curvature="0" />
    <path
       inkscape:connector-curvature="0"
       id="path3177"
       d="m 45.822406,336.02128 h -56.88223"
       style="fill:none;stroke:#000000;stroke-width:1px;stroke-linecap:butt;stroke-linejoin:miter;stroke-opacity:1" />
    <path
       style="fill:none;stroke:#000000;stroke-width:1px;stroke-linecap:butt;stroke-linejoin:miter;stroke-opacity:1"
       d="m 45.822406,137.22746 11.2928,-11.29279 v 21.33083 z"
       id="path3179"
       inkscape:connector-curvature="0" />
    <path
       inkscape:connector-curvature="0"
       id="path3181"
       d="m 45.822406,369.77541 11.2928,-11.29279 v 21.33083 z"
       style="fill:none;stroke:#000000;stroke-width:1px;stroke-linecap:butt;stroke-linejoin:miter;stroke-opacity:1" />
    <path
       style="fill:none;stroke:#000000;stroke-width:1px;stroke-linecap:butt;stroke-linejoin:miter;stroke-opacity:1"
       d="m 45.822406,336.55424 11.2928,-11.29279 v 21.33083 z"
       id="path3183"
       inkscape:connector-curvature="0" />
    <path
       inkscape:connector-curvature="0"
       id="path3185"
       d="m 45.822406,303.33313 11.2928,-11.29279 v 21.33083 z"
       style="fill:none;stroke:#000000;stroke-width:1px;stroke-linecap:butt;stroke-linejoin:miter;stroke-opacity:1" />
    <path
       style="fill:none;stroke:#000000;stroke-width:1px;stroke-linecap:butt;stroke-linejoin:miter;stroke-opacity:1"
       d="m 45.822406,270.11197 11.2928,-11.29279 v 21.33083 z"
       id="path3187"
       inkscape:connector-curvature="0" />
    <path
       style="fill:none;stroke:#000000;stroke-width:1px;stroke-linecap:butt;stroke-linejoin:miter;stroke-opacity:1"
       d="m 45.822406,170.4486 11.2928,-11.29279 v 21.33083 z"
       id="path3191"
       inkscape:connector-curvature="0" />
    <path
       inkscape:connector-curvature="0"
       id="path3193"
       d="m 45.822406,203.66973 11.2928,-11.29279 v 21.33083 z"
       style="fill:none;stroke:#000000;stroke-width:1px;stroke-linecap:butt;stroke-linejoin:miter;stroke-opacity:1" />
    <path
       style="fill:none;stroke:#000000;stroke-width:1px;stroke-linecap:butt;stroke-linejoin:miter;stroke-opacity:1"
       d="m 45.822406,236.89084 11.2928,-11.29279 v 21.33083 z"
       id="path3195"
       inkscape:connector-curvature="0" />
    <g
       id="g1113"
       transform="translate(-154.62662,-808.71489)">
      <g
         word-spacing="normal"
         letter-spacing="normal"
         font-size-adjust="none"
         font-stretch="normal"
         font-weight="normal"
         font-variant="normal"
         font-style="normal"
         stroke-miterlimit="10.433"
         xml:space="preserve"
         transform="matrix(0.5615663,0,0,-0.5615663,-98.274102,1159.9841)"
         id="g1111"
         style="font-style:normal;font-variant:normal;font-weight:normal;font-stretch:normal;letter-spacing:normal;word-spacing:normal;text-anchor:start;fill:none;fill-opacity:1;fill-rule:evenodd;stroke:#000000;stroke-linecap:butt;stroke-linejoin:miter;stroke-miterlimit:10.43299961;stroke-dasharray:none;stroke-dashoffset:0;stroke-opacity:1"><path
           id="path1107"
           d="m 478.83,424.73 v 0.12 0.13 l -0.01,0.12 v 0.11 l -0.01,0.12 -0.01,0.11 -0.01,0.11 -0.02,0.1 -0.03,0.21 -0.03,0.19 -0.05,0.18 -0.04,0.18 -0.06,0.16 -0.06,0.16 -0.06,0.15 -0.07,0.13 -0.07,0.13 -0.07,0.12 -0.08,0.12 -0.08,0.1 -0.08,0.1 -0.09,0.09 -0.08,0.08 -0.09,0.07 -0.09,0.07 -0.09,0.06 -0.1,0.05 -0.09,0.05 -0.09,0.04 -0.09,0.03 -0.09,0.03 -0.1,0.03 -0.09,0.01 -0.08,0.02 h -0.09 -0.09 c -1.25,0 -2.43,-1.29 -2.43,-2.39 0,-0.64 0.25,-0.93 0.79,-1.48 1.05,-1 1.69,-2.3 1.69,-4.09 0,-2.1 -3.03,-13.5 -8.86,-13.5 -2.54,0 -3.69,1.75 -3.69,4.32 0,2.8 1.35,6.44 2.9,10.57 0.34,0.86 0.59,1.54 0.59,2.5 0,2.23 -1.59,4.07 -4.09,4.07 -4.68,0 -6.58,-7.21 -6.58,-7.67 0,-0.5 0.5,-0.5 0.61,-0.5 0.5,0 0.54,0.11 0.79,0.91 1.44,5.03 3.58,6.17 5.03,6.17 0.4,0 1.25,0 1.25,-1.59 0,-1.25 -0.5,-2.6 -0.85,-3.49 -2.19,-5.78 -2.83,-8.08 -2.83,-10.22 0,-5.37 4.37,-6.17 6.67,-6.17 8.37,0 11.2,16.49 11.2,19.08 z"
           inkscape:connector-curvature="0"
           style="fill:#000000;stroke-width:0" /><path
           id="path1109"
           d="m 491.31,420.92 v 0.04 0.04 0.05 0.04 0.03 0.04 0.04 0.03 0.04 0.03 l -0.01,0.03 v 0.03 0.03 l -0.01,0.03 v 0.03 0.02 l -0.01,0.03 v 0.02 l -0.01,0.03 v 0.02 l -0.01,0.04 -0.02,0.04 -0.02,0.03 -0.02,0.03 -0.02,0.03 -0.02,0.03 -0.03,0.02 -0.03,0.02 -0.03,0.02 -0.04,0.01 -0.04,0.01 -0.05,0.02 h -0.02 -0.02 l -0.03,0.01 h -0.03 l -0.02,0.01 h -0.03 -0.03 -0.03 -0.03 l -0.04,0.01 h -0.03 -0.04 -0.03 -0.04 -0.04 -0.04 -0.04 -0.04 -0.05 -0.04 c -2.24,-2.2 -5.39,-2.23 -6.83,-2.23 v -1.25 c 0.84,0 3.14,0 5.04,0.97 v -17.77 c 0,-1.16 0,-1.61 -3.48,-1.61 h -1.31 v -1.25 c 0.62,0.03 4.9,0.14 6.2,0.14 1.08,0 5.47,-0.11 6.23,-0.14 v 1.25 h -1.32 c -3.49,0 -3.49,0.45 -3.49,1.61 z"
           inkscape:connector-curvature="0"
           style="fill:#000000;stroke-width:0" /></g>
    </g>
    <g
       inkscape:label=""
       transform="matrix(2.8148916,0,0,2.8148916,-261.66126,158.39519)"
       id="g1605">
      <g
         id="g8269">
        <g
           style="fill:#000000;fill-opacity:1"
           id="g9168">
          <use
             xlink:href="#symbol4204"
             x="91.925003"
             y="81.962997"
             id="use735"
             width="100%"
             height="100%" />
        </g>
        <g
           style="fill:#000000;fill-opacity:1"
           id="g597">
          <use
             xlink:href="#symbol5322"
             x="96.753998"
             y="83.457001"
             id="use1621"
             width="100%"
             height="100%" />
        </g>
        <g
           style="fill:#000000;fill-opacity:1"
           id="g8204">
          <use
             xlink:href="#symbol5226"
             x="103.065"
             y="84.453003"
             id="use2177"
             width="100%"
             height="100%" />
        </g>
      </g>
    </g>
    <g
       inkscape:label=""
       transform="matrix(5.2952746,0,0,5.2952746,-761.48211,-212.90667)"
       id="g1117">
      <g
         id="g4893">
        <g
           style="fill:#000000;fill-opacity:1"
           id="g5682">
          <use
             xlink:href="#symbol1080"
             x="91.925003"
             y="81.962997"
             id="use5001"
             width="100%"
             height="100%" />
        </g>
        <g
           style="fill:#000000;fill-opacity:1"
           id="g1550">
          <use
             xlink:href="#symbol6738"
             x="97.619003"
             y="83.457001"
             id="use5291"
             width="100%"
             height="100%" />
        </g>
      </g>
    </g>
    <path
       style="fill:none;stroke:#000000;stroke-width:1px;stroke-linecap:butt;stroke-linejoin:miter;stroke-opacity:1;marker-end:url(#Arrow1Lend)"
       d="m -293.11236,243.88533 h 93.62234"
       id="path1267" />
  </g>
</svg>
