<?xml version="1.0" encoding="UTF-8" standalone="no"?>
<!-- Created with Inkscape (http://www.inkscape.org/) -->

<svg
   xmlns:dc="http://purl.org/dc/elements/1.1/"
   xmlns:cc="http://creativecommons.org/ns#"
   xmlns:rdf="http://www.w3.org/1999/02/22-rdf-syntax-ns#"
   xmlns:svg="http://www.w3.org/2000/svg"
   xmlns="http://www.w3.org/2000/svg"
   xmlns:xlink="http://www.w3.org/1999/xlink"
   xmlns:sodipodi="http://sodipodi.sourceforge.net/DTD/sodipodi-0.dtd"
   xmlns:inkscape="http://www.inkscape.org/namespaces/inkscape"
   width="143.61395mm"
   height="56.239777mm"
   viewBox="0 0 143.61395 56.239777"
   version="1.1"
   id="svg8"
   inkscape:version="0.92.5 (2060ec1f9f, 2020-04-08)"
   sodipodi:docname="dispersive.svg">
  <defs
     id="defs2">
    <pattern
       inkscape:collect="always"
       xlink:href="#Strips1_1white"
       id="pattern2847"
       patternTransform="matrix(3.4387054,4.0415622,-7.1599081,6.0919054,0,0)" />
    <pattern
       inkscape:collect="always"
       xlink:href="#Strips1_1white"
       id="pattern2845"
       patternTransform="matrix(3.3956915,4.0777685,-7.6844818,6.39912,0,0)" />
    <pattern
       inkscape:collect="always"
       xlink:href="#Strips1_1white"
       id="pattern2843"
       patternTransform="matrix(3.3518641,4.2419016,-7.6894275,6.0760288,0,0)" />
    <pattern
       inkscape:collect="always"
       xlink:href="#Strips1_1white"
       id="pattern2841"
       patternTransform="matrix(3.3862128,4.2145326,-7.4841202,6.013199,0,0)" />
    <pattern
       inkscape:isstock="true"
       inkscape:stockid="Stripes 1:1 white"
       id="Strips1_1white"
       patternTransform="translate(0,0) scale(10,10)"
       height="1"
       width="2"
       patternUnits="userSpaceOnUse"
       inkscape:collect="always">
      <rect
         id="rect2100"
         height="2"
         width="1"
         y="-0.5"
         x="0"
         style="fill:white;stroke:none" />
    </pattern>
    <marker
       inkscape:stockid="Arrow1Lstart"
       orient="auto"
       refY="0"
       refX="0"
       id="Arrow1Lstart"
       style="overflow:visible"
       inkscape:isstock="true">
      <path
         id="path1544"
         d="M 0,0 5,-5 -12.5,0 5,5 Z"
         style="fill:#000000;fill-opacity:1;fill-rule:evenodd;stroke:#000000;stroke-width:1.00000003pt;stroke-opacity:1"
         transform="matrix(0.8,0,0,0.8,10,0)"
         inkscape:connector-curvature="0" />
    </marker>
    <marker
       inkscape:stockid="Arrow1Lend"
       orient="auto"
       refY="0"
       refX="0"
       id="Arrow1Lend"
       style="overflow:visible"
       inkscape:isstock="true">
      <path
         id="path1547"
         d="M 0,0 5,-5 -12.5,0 5,5 Z"
         style="fill:#000000;fill-opacity:1;fill-rule:evenodd;stroke:#000000;stroke-width:1.00000003pt;stroke-opacity:1"
         transform="matrix(-0.8,0,0,-0.8,-10,0)"
         inkscape:connector-curvature="0" />
    </marker>
    <pattern
       patternUnits="userSpaceOnUse"
       width="96.540616"
       height="85.071816"
       patternTransform="matrix(0.26458333,0,0,0.26458333,24.260375,8.2391875)"
       id="pattern817">
      <path
         inkscape:connector-curvature="0"
         id="path815"
         d="M 1.1643843,48.846979 45.06049,0.73009731 95.709841,53.067759 34.086462,84.301525 29.865686,48.002825 Z"
         style="fill:#c87137;stroke:#000000;stroke-width:0.99999994px;stroke-linecap:butt;stroke-linejoin:miter;stroke-opacity:1" />
    </pattern>
  </defs>
  <sodipodi:namedview
     id="base"
     pagecolor="#ffffff"
     bordercolor="#666666"
     borderopacity="1.0"
     inkscape:pageopacity="0.0"
     inkscape:pageshadow="2"
     inkscape:zoom="5.0069221"
     inkscape:cx="88.918495"
     inkscape:cy="101.24045"
     inkscape:document-units="mm"
     inkscape:current-layer="layer1"
     showgrid="false"
     inkscape:snap-global="false"
     inkscape:window-width="2488"
     inkscape:window-height="1376"
     inkscape:window-x="72"
     inkscape:window-y="27"
     inkscape:window-maximized="1"
     fit-margin-top="0"
     fit-margin-left="0"
     fit-margin-right="0"
     fit-margin-bottom="0"
     inkscape:lockguides="true" />
  <metadata
     id="metadata5">
    <rdf:RDF>
      <cc:Work
         rdf:about="">
        <dc:format>image/svg+xml</dc:format>
        <dc:type
           rdf:resource="http://purl.org/dc/dcmitype/StillImage" />
        <dc:title />
      </cc:Work>
    </rdf:RDF>
  </metadata>
  <g
     inkscape:label="Layer 1"
     inkscape:groupmode="layer"
     id="layer1"
     transform="translate(-3.4884032,-9.3339181)">
    <path
       style="fill:none;stroke:#000000;stroke-width:0.26499999;stroke-linecap:butt;stroke-linejoin:miter;stroke-miterlimit:4;stroke-dasharray:none;stroke-opacity:1;marker-start:url(#Arrow1Lstart);marker-end:url(#Arrow1Lend)"
       d="M 13.844999,9.8483792 V 59.415589 H 146.58789"
       id="path1542"
       inkscape:connector-curvature="0" />
    <path
       style="fill:none;stroke:#000000;stroke-width:0.13229166px;stroke-linecap:butt;stroke-linejoin:miter;stroke-opacity:1"
       d="m 20.978246,57.93597 v 3.804733"
       id="path1860"
       inkscape:connector-curvature="0"
       sodipodi:nodetypes="cc" />
    <path
       sodipodi:nodetypes="cc"
       inkscape:connector-curvature="0"
       id="path1862"
       d="M 13.626393,58.041657 V 61.84639"
       style="fill:none;stroke:#000000;stroke-width:0.13229166px;stroke-linecap:butt;stroke-linejoin:miter;stroke-opacity:1" />
    <path
       sodipodi:nodetypes="cc"
       inkscape:connector-curvature="0"
       id="path1864"
       d="m 35.681953,57.93597 v 3.804733"
       style="fill:none;stroke:#000000;stroke-width:0.13229166px;stroke-linecap:butt;stroke-linejoin:miter;stroke-opacity:1" />
    <path
       style="fill:none;stroke:#000000;stroke-width:0.13229166px;stroke-linecap:butt;stroke-linejoin:miter;stroke-opacity:1"
       d="M 28.330099,58.041657 V 61.84639"
       id="path1866"
       inkscape:connector-curvature="0"
       sodipodi:nodetypes="cc" />
    <path
       sodipodi:nodetypes="cc"
       inkscape:connector-curvature="0"
       id="path1870"
       d="M 43.033805,58.041657 V 61.84639"
       style="fill:none;stroke:#000000;stroke-width:0.13229166px;stroke-linecap:butt;stroke-linejoin:miter;stroke-opacity:1" />
    <g
       id="g1897"
       transform="matrix(0.44203353,0,0,0.44203353,2.0734704,-2.6041701)"
       style="fill:#0000ff">
      <g
         word-spacing="normal"
         letter-spacing="normal"
         font-size-adjust="none"
         font-stretch="normal"
         font-weight="normal"
         font-variant="normal"
         font-style="normal"
         stroke-miterlimit="10.433"
         xml:space="preserve"
         transform="matrix(0.3,0,0,-0.3,-52.5,222.75)"
         id="content"
         style="font-style:normal;font-variant:normal;font-weight:normal;font-stretch:normal;letter-spacing:normal;word-spacing:normal;text-anchor:start;fill:#0000ff;fill-opacity:1;fill-rule:evenodd;stroke:#000000;stroke-linecap:butt;stroke-linejoin:miter;stroke-miterlimit:10.43299961;stroke-dasharray:none;stroke-dashoffset:0;stroke-opacity:1"><path
           id="path1888"
           d="m 469.82,440.23 v 0 0.01 0 0.01 l -0.01,0.02 v 0.01 0.02 0.02 0.02 l -0.01,0.02 v 0.02 l -0.01,0.02 -0.01,0.02 -0.01,0.03 -0.01,0.02 -0.01,0.03 -0.01,0.02 -0.02,0.03 -0.02,0.02 -0.02,0.02 -0.02,0.03 -0.01,0.01 -0.01,0.01 -0.02,0.01 -0.01,0.01 -0.02,0.01 -0.01,0.01 -0.02,0.01 -0.01,0.01 -0.02,0.01 -0.02,0.01 h -0.02 l -0.02,0.01 -0.02,0.01 h -0.02 l -0.02,0.01 -0.02,0.01 h -0.03 -0.02 l -0.03,0.01 h -0.02 -0.03 l -0.03,0.01 h -0.02 -0.03 c -1.16,0 -4.79,-0.41 -6.08,-0.5 -0.41,-0.05 -0.96,-0.1 -0.96,-1 0,-0.6 0.46,-0.6 1.21,-0.6 2.39,0 2.48,-0.34 2.48,-0.84 l -0.15,-1 -7.22,-28.7 c -0.21,-0.69 -0.21,-0.8 -0.21,-1.1 0,-1.14 1,-1.39 1.46,-1.39 0.79,0 1.59,0.6 1.84,1.3 l 0.94,3.78 1.11,4.48 c 0.29,1.1 0.59,2.19 0.84,3.35 0.1,0.3 0.5,1.94 0.55,2.23 0.14,0.46 1.69,3.25 3.39,4.6 1.09,0.79 2.64,1.73 4.78,1.73 2.14,0 2.69,-1.69 2.69,-3.48 0,-2.69 -1.89,-8.13 -3.1,-11.16 -0.39,-1.16 -0.64,-1.75 -0.64,-2.75 0,-2.33 1.74,-4.08 4.08,-4.08 4.69,0 6.53,7.27 6.53,7.67 0,0.5 -0.45,0.5 -0.59,0.5 -0.5,0 -0.5,-0.15 -0.75,-0.9 -0.75,-2.64 -2.34,-6.17 -5.08,-6.17 -0.86,0 -1.2,0.5 -1.2,1.64 0,1.25 0.45,2.45 0.9,3.54 0.8,2.14 3.04,8.07 3.04,10.96 0,3.23 -2,5.32 -5.74,5.32 -3.14,0 -5.53,-1.53 -7.37,-3.82 z"
           inkscape:connector-curvature="0"
           style="fill:#0000ff;stroke-width:0" /><path
           id="path1890"
           d="m 500.68,394.25 v 0.02 0.03 0.01 0.02 0.01 l -0.01,0.02 v 0.01 l -0.01,0.02 -0.01,0.02 -0.01,0.02 -0.01,0.02 -0.02,0.03 -0.01,0.02 -0.02,0.03 -0.02,0.03 -0.03,0.03 -0.02,0.03 -0.03,0.04 -0.02,0.02 -0.01,0.02 -0.02,0.02 -0.02,0.02 -0.02,0.02 -0.02,0.03 -0.02,0.02 -0.02,0.02 -0.02,0.03 -0.03,0.02 -0.02,0.03 -0.03,0.03 -0.03,0.03 -0.02,0.03 -0.03,0.03 -0.03,0.03 -0.03,0.03 -0.03,0.03 -0.04,0.04 -0.03,0.03 -0.04,0.04 -0.03,0.03 -0.04,0.04 -0.04,0.04 c -6.22,6.28 -7.81,15.69 -7.81,23.31 0,8.67 1.89,17.35 8.01,23.56 0.64,0.61 0.64,0.71 0.64,0.86 0,0.35 -0.18,0.49 -0.48,0.49 -0.5,0 -4.99,-3.38 -7.92,-9.7 -2.55,-5.49 -3.14,-11.02 -3.14,-15.21 0,-3.89 0.54,-9.9 3.28,-15.54 2.98,-6.13 7.28,-9.36 7.78,-9.36 0.3,0 0.48,0.14 0.48,0.5 z"
           inkscape:connector-curvature="0"
           style="fill:#0000ff;stroke-width:0" /><path
           id="path1892"
           d="m 513.78,426.12 h 4.69 c 0.98,0 1.48,0 1.48,1 0,0.55 -0.5,0.55 -1.39,0.55 h -4.39 c 1.8,7.08 2.05,8.08 2.05,8.37 0,0.85 -0.6,1.35 -1.44,1.35 -0.16,0 -1.55,-0.05 -2,-1.8 l -1.94,-7.92 h -4.68 c -1,0 -1.5,0 -1.5,-0.94 0,-0.61 0.4,-0.61 1.4,-0.61 h 4.38 c -3.58,-14.14 -3.78,-14.98 -3.78,-15.89 0,-2.69 1.89,-4.58 4.57,-4.58 5.08,0 7.93,7.27 7.93,7.67 0,0.5 -0.39,0.5 -0.6,0.5 -0.45,0 -0.5,-0.15 -0.75,-0.7 -2.14,-5.17 -4.78,-6.37 -6.47,-6.37 -1.04,0 -1.54,0.65 -1.54,2.29 0,1.19 0.09,1.55 0.29,2.39 z"
           inkscape:connector-curvature="0"
           style="fill:#0000ff;stroke-width:0" /><path
           id="path1894"
           d="m 535.91,418.65 -0.01,0.37 v 0.39 l -0.01,0.39 -0.01,0.41 -0.04,0.84 -0.06,0.88 -0.08,0.92 -0.11,0.95 -0.14,0.97 -0.16,1.01 -0.2,1.02 -0.23,1.03 -0.26,1.05 -0.31,1.06 -0.35,1.07 -0.39,1.07 -0.21,0.53 -0.23,0.53 -0.24,0.53 -0.25,0.53 c -2.98,6.12 -7.26,9.36 -7.76,9.36 -0.3,0 -0.5,-0.19 -0.5,-0.49 0,-0.15 0,-0.25 0.94,-1.15 4.89,-4.92 7.73,-12.85 7.73,-23.27 0,-8.51 -1.84,-17.28 -8.03,-23.56 -0.64,-0.59 -0.64,-0.7 -0.64,-0.84 0,-0.3 0.2,-0.5 0.5,-0.5 0.5,0 4.97,3.39 7.92,9.71 2.53,5.47 3.13,11 3.13,15.19 z"
           inkscape:connector-curvature="0"
           style="fill:#0000ff;stroke-width:0" /></g>    </g>
    <path
       sodipodi:nodetypes="cc"
       inkscape:connector-curvature="0"
       id="path878"
       d="m 65.15551,57.93597 v 3.804733"
       style="fill:none;stroke:#000000;stroke-width:0.13229166px;stroke-linecap:butt;stroke-linejoin:miter;stroke-opacity:1" />
    <path
       style="fill:none;stroke:#000000;stroke-width:0.13229166px;stroke-linecap:butt;stroke-linejoin:miter;stroke-opacity:1"
       d="M 72.50736,58.041657 V 61.84639"
       id="path880"
       inkscape:connector-curvature="0"
       sodipodi:nodetypes="cc" />
    <path
       style="fill:none;stroke:#000000;stroke-width:0.13229166px;stroke-linecap:butt;stroke-linejoin:miter;stroke-opacity:1"
       d="m 50.451803,57.93597 v 3.804733"
       id="path882"
       inkscape:connector-curvature="0"
       sodipodi:nodetypes="cc" />
    <path
       sodipodi:nodetypes="cc"
       inkscape:connector-curvature="0"
       id="path884"
       d="M 57.803655,58.041657 V 61.84639"
       style="fill:none;stroke:#000000;stroke-width:0.13229166px;stroke-linecap:butt;stroke-linejoin:miter;stroke-opacity:1" />
    <path
       sodipodi:nodetypes="cc"
       inkscape:connector-curvature="0"
       id="path888"
       d="m 124.13002,57.93597 v 3.804733"
       style="fill:none;stroke:#000000;stroke-width:0.13229166px;stroke-linecap:butt;stroke-linejoin:miter;stroke-opacity:1" />
    <path
       style="fill:none;stroke:#000000;stroke-width:0.13229166px;stroke-linecap:butt;stroke-linejoin:miter;stroke-opacity:1"
       d="M 131.48187,58.041657 V 61.84639"
       id="path890"
       inkscape:connector-curvature="0"
       sodipodi:nodetypes="cc" />
    <path
       style="fill:none;stroke:#000000;stroke-width:0.13229166px;stroke-linecap:butt;stroke-linejoin:miter;stroke-opacity:1"
       d="m 109.42631,57.93597 v 3.804733"
       id="path892"
       inkscape:connector-curvature="0"
       sodipodi:nodetypes="cc" />
    <path
       sodipodi:nodetypes="cc"
       inkscape:connector-curvature="0"
       id="path894"
       d="M 116.77817,58.041657 V 61.84639"
       style="fill:none;stroke:#000000;stroke-width:0.13229166px;stroke-linecap:butt;stroke-linejoin:miter;stroke-opacity:1" />
    <path
       style="fill:none;stroke:#000000;stroke-width:0.13229166px;stroke-linecap:butt;stroke-linejoin:miter;stroke-opacity:1"
       d="M 102.07446,58.041657 V 61.84639"
       id="path896"
       inkscape:connector-curvature="0"
       sodipodi:nodetypes="cc" />
    <path
       style="fill:none;stroke:#000000;stroke-width:0.13229166px;stroke-linecap:butt;stroke-linejoin:miter;stroke-opacity:1"
       d="m 79.952755,57.93597 v 3.804733"
       id="path898"
       inkscape:connector-curvature="0"
       sodipodi:nodetypes="cc" />
    <path
       sodipodi:nodetypes="cc"
       inkscape:connector-curvature="0"
       id="path902"
       d="m 94.65646,57.93597 v 3.804733"
       style="fill:none;stroke:#000000;stroke-width:0.13229166px;stroke-linecap:butt;stroke-linejoin:miter;stroke-opacity:1" />
    <path
       style="fill:none;stroke:#000000;stroke-width:0.13229166px;stroke-linecap:butt;stroke-linejoin:miter;stroke-opacity:1"
       d="M 87.30461,58.041657 V 61.84639"
       id="path904"
       inkscape:connector-curvature="0"
       sodipodi:nodetypes="cc" />
    <g
       id="g949"
       transform="translate(-3.0649235,-10.357328)">
      <g
         word-spacing="normal"
         letter-spacing="normal"
         font-size-adjust="none"
         font-stretch="normal"
         font-weight="normal"
         font-variant="normal"
         font-style="normal"
         stroke-miterlimit="10.433"
         xml:space="preserve"
         transform="matrix(0.08034254,0,0,-0.08034254,-14.059944,107.71046)"
         id="g947"
         style="font-style:normal;font-variant:normal;font-weight:normal;font-stretch:normal;letter-spacing:normal;word-spacing:normal;text-anchor:start;fill:none;fill-opacity:1;fill-rule:evenodd;stroke:#000000;stroke-linecap:butt;stroke-linejoin:miter;stroke-miterlimit:10.43299961;stroke-dasharray:none;stroke-dashoffset:0;stroke-opacity:1"><path
           id="path945"
           d="m 476.8,436.43 0.02,0.07 0.01,0.06 0.03,0.12 0.03,0.12 0.03,0.11 0.03,0.11 0.03,0.09 0.03,0.1 0.03,0.09 0.03,0.08 0.03,0.08 0.03,0.07 0.03,0.07 0.03,0.06 0.03,0.06 0.03,0.06 0.03,0.05 0.03,0.05 0.03,0.04 0.04,0.04 0.03,0.04 0.04,0.04 0.03,0.03 0.04,0.03 0.04,0.03 0.04,0.02 0.05,0.03 0.04,0.02 0.05,0.02 0.04,0.01 0.05,0.02 0.06,0.01 0.05,0.02 c 0.45,0.11 2.1,0.11 3.14,0.11 5.03,0 7.27,-0.21 7.27,-4.1 0,-0.73 -0.19,-2.68 -0.39,-3.98 -0.05,-0.19 -0.16,-0.8 -0.16,-0.94 0,-0.3 0.16,-0.66 0.59,-0.66 0.57,0 0.66,0.41 0.75,1.16 l 1.35,8.66 c 0.06,0.2 0.11,0.7 0.11,0.86 0,0.54 -0.5,0.54 -1.35,0.54 H 461.6 c -1.21,0 -1.25,-0.06 -1.6,-1 l -2.98,-8.76 c -0.06,-0.11 -0.3,-0.8 -0.3,-0.91 0,-0.3 0.24,-0.55 0.6,-0.55 0.5,0 0.54,0.25 0.84,1.05 2.69,7.72 3.98,8.63 11.36,8.63 h 1.94 c 1.4,0 1.4,-0.21 1.4,-0.6 0,-0.31 -0.15,-0.9 -0.2,-1.04 l -6.67,-26.61 c -0.45,-1.85 -0.61,-2.39 -5.94,-2.39 -1.8,0 -2.09,0 -2.09,-0.96 0,-0.59 0.54,-0.59 0.84,-0.59 1.36,0 2.75,0.09 4.09,0.09 1.4,0 2.85,0.07 4.24,0.07 1.39,0 2.78,-0.07 4.14,-0.07 1.44,0 2.94,-0.09 4.33,-0.09 0.5,0 1.09,0 1.09,1 0,0.55 -0.39,0.55 -1.69,0.55 -1.25,0 -1.89,0 -3.18,0.09 -1.46,0.16 -1.85,0.3 -1.85,1.09 0,0.07 0,0.32 0.19,1.05 z"
           inkscape:connector-curvature="0"
           style="fill:#000000;stroke-width:0" /></g>    </g>
    <g
       id="g1004"
       transform="translate(4.2274807,-10.357328)">
      <g
         word-spacing="normal"
         letter-spacing="normal"
         font-size-adjust="none"
         font-stretch="normal"
         font-weight="normal"
         font-variant="normal"
         font-style="normal"
         stroke-miterlimit="10.433"
         xml:space="preserve"
         transform="matrix(0.08034254,0,0,-0.08034254,-14.059944,107.71046)"
         id="g1002"
         style="font-style:normal;font-variant:normal;font-weight:normal;font-stretch:normal;letter-spacing:normal;word-spacing:normal;text-anchor:start;fill:none;fill-opacity:1;fill-rule:evenodd;stroke:#000000;stroke-linecap:butt;stroke-linejoin:miter;stroke-miterlimit:10.43299961;stroke-dasharray:none;stroke-dashoffset:0;stroke-opacity:1"><path
           id="path998"
           d="m 461.85,410.04 5.28,5.13 c 7.76,6.87 10.76,9.56 10.76,14.54 0,5.69 -4.48,9.68 -10.56,9.68 -5.64,0 -9.33,-4.6 -9.33,-9.03 0,-2.79 2.5,-2.79 2.64,-2.79 0.86,0 2.6,0.6 2.6,2.64 0,1.3 -0.89,2.6 -2.64,2.6 -0.39,0 -0.5,0 -0.64,-0.05 1.14,3.24 3.83,5.08 6.72,5.08 4.53,0 6.68,-4.05 6.68,-8.13 0,-3.98 -2.5,-7.92 -5.23,-11.01 l -9.56,-10.66 C 458,407.5 458,407.4 458,406.2 h 18.49 l 1.4,8.67 h -1.25 c -0.25,-1.5 -0.59,-3.69 -1.09,-4.44 -0.36,-0.39 -3.64,-0.39 -4.73,-0.39 z"
           inkscape:connector-curvature="0"
           style="fill:#000000;stroke-width:0" /><path
           id="path1000"
           d="m 501.76,436.43 0.01,0.07 0.02,0.06 0.03,0.12 0.03,0.12 0.03,0.11 0.03,0.11 0.03,0.09 0.03,0.1 0.03,0.09 0.03,0.08 0.03,0.08 0.02,0.07 0.03,0.07 0.03,0.06 0.03,0.06 0.03,0.06 0.03,0.05 0.04,0.05 0.03,0.04 0.03,0.04 0.04,0.04 0.03,0.04 0.04,0.03 0.04,0.03 0.04,0.03 0.04,0.02 0.04,0.03 0.05,0.02 0.04,0.02 0.05,0.01 0.05,0.02 0.05,0.01 0.06,0.02 c 0.45,0.11 2.09,0.11 3.14,0.11 5.03,0 7.26,-0.21 7.26,-4.1 0,-0.73 -0.18,-2.68 -0.39,-3.98 -0.04,-0.19 -0.15,-0.8 -0.15,-0.94 0,-0.3 0.15,-0.66 0.59,-0.66 0.56,0 0.66,0.41 0.75,1.16 l 1.35,8.66 c 0.06,0.2 0.1,0.7 0.1,0.86 0,0.54 -0.5,0.54 -1.34,0.54 h -27.66 c -1.2,0 -1.25,-0.06 -1.59,-1 l -2.98,-8.76 c -0.07,-0.11 -0.3,-0.8 -0.3,-0.91 0,-0.3 0.23,-0.55 0.59,-0.55 0.5,0 0.55,0.25 0.85,1.05 2.68,7.72 3.98,8.63 11.36,8.63 h 1.93 c 1.41,0 1.41,-0.21 1.41,-0.6 0,-0.31 -0.16,-0.9 -0.2,-1.04 l -6.67,-26.61 c -0.46,-1.85 -0.61,-2.39 -5.94,-2.39 -1.8,0 -2.1,0 -2.1,-0.96 0,-0.59 0.55,-0.59 0.85,-0.59 1.36,0 2.75,0.09 4.09,0.09 1.39,0 2.85,0.07 4.24,0.07 1.39,0 2.78,-0.07 4.14,-0.07 1.43,0 2.93,-0.09 4.32,-0.09 0.5,0 1.1,0 1.1,1 0,0.55 -0.39,0.55 -1.69,0.55 -1.25,0 -1.89,0 -3.19,0.09 -1.45,0.16 -1.84,0.3 -1.84,1.09 0,0.07 0,0.32 0.19,1.05 z"
           inkscape:connector-curvature="0"
           style="fill:#000000;stroke-width:0" /></g>    </g>
    <g
       id="g1064"
       transform="translate(10.674389,-10.357328)">
      <g
         word-spacing="normal"
         letter-spacing="normal"
         font-size-adjust="none"
         font-stretch="normal"
         font-weight="normal"
         font-variant="normal"
         font-style="normal"
         stroke-miterlimit="10.433"
         xml:space="preserve"
         transform="matrix(0.08034254,0,0,-0.08034254,-14.059944,107.71046)"
         id="g1062"
         style="font-style:normal;font-variant:normal;font-weight:normal;font-stretch:normal;letter-spacing:normal;word-spacing:normal;text-anchor:start;fill:none;fill-opacity:1;fill-rule:evenodd;stroke:#000000;stroke-linecap:butt;stroke-linejoin:miter;stroke-miterlimit:10.43299961;stroke-dasharray:none;stroke-dashoffset:0;stroke-opacity:1"><path
           id="path1058"
           d="m 469.97,423.73 0.38,0.13 0.37,0.15 0.37,0.15 0.35,0.17 0.35,0.18 0.34,0.19 0.33,0.2 0.32,0.22 0.31,0.22 0.31,0.23 0.29,0.24 0.28,0.25 0.27,0.26 0.26,0.27 0.25,0.27 0.24,0.29 0.22,0.29 0.21,0.3 0.2,0.3 0.19,0.32 0.18,0.32 0.16,0.32 0.14,0.33 0.14,0.34 0.11,0.34 0.11,0.34 0.09,0.35 0.07,0.36 0.06,0.36 0.04,0.36 0.02,0.36 0.01,0.37 c 0,4.08 -4.39,6.88 -9.17,6.88 -5.03,0 -8.81,-3 -8.81,-6.78 0,-1.65 1.09,-2.6 2.54,-2.6 1.54,0 2.54,1.1 2.54,2.55 0,2.48 -2.35,2.48 -3.08,2.48 1.53,2.44 4.83,3.1 6.62,3.1 2.03,0 4.78,-1.1 4.78,-5.58 0,-0.61 -0.11,-3.49 -1.4,-5.69 -1.49,-2.39 -3.19,-2.53 -4.42,-2.59 -0.41,-0.05 -1.6,-0.14 -1.96,-0.14 -0.39,-0.05 -0.75,-0.1 -0.75,-0.6 0,-0.54 0.36,-0.54 1.21,-0.54 h 2.18 c 4.1,0 5.94,-3.39 5.94,-8.29 0,-6.76 -3.44,-8.21 -5.64,-8.21 -2.14,0 -5.88,0.84 -7.61,3.78 1.73,-0.24 3.28,0.86 3.28,2.75 0,1.79 -1.34,2.78 -2.8,2.78 -1.18,0 -2.78,-0.69 -2.78,-2.89 0,-4.53 4.63,-7.81 10.07,-7.81 6.07,0 10.61,4.53 10.61,9.6 0,4.1 -3.15,7.97 -8.32,9.02 z"
           inkscape:connector-curvature="0"
           style="fill:#000000;stroke-width:0" /><path
           id="path1060"
           d="m 501.76,436.43 0.01,0.07 0.02,0.06 0.03,0.12 0.03,0.12 0.03,0.11 0.03,0.11 0.03,0.09 0.03,0.1 0.03,0.09 0.03,0.08 0.03,0.08 0.02,0.07 0.03,0.07 0.03,0.06 0.03,0.06 0.03,0.06 0.03,0.05 0.04,0.05 0.03,0.04 0.03,0.04 0.04,0.04 0.03,0.04 0.04,0.03 0.04,0.03 0.04,0.03 0.04,0.02 0.04,0.03 0.05,0.02 0.04,0.02 0.05,0.01 0.05,0.02 0.05,0.01 0.06,0.02 c 0.45,0.11 2.09,0.11 3.14,0.11 5.03,0 7.26,-0.21 7.26,-4.1 0,-0.73 -0.18,-2.68 -0.39,-3.98 -0.04,-0.19 -0.15,-0.8 -0.15,-0.94 0,-0.3 0.15,-0.66 0.59,-0.66 0.56,0 0.66,0.41 0.75,1.16 l 1.35,8.66 c 0.06,0.2 0.1,0.7 0.1,0.86 0,0.54 -0.5,0.54 -1.34,0.54 h -27.66 c -1.2,0 -1.25,-0.06 -1.59,-1 l -2.98,-8.76 c -0.07,-0.11 -0.3,-0.8 -0.3,-0.91 0,-0.3 0.23,-0.55 0.59,-0.55 0.5,0 0.55,0.25 0.85,1.05 2.68,7.72 3.98,8.63 11.36,8.63 h 1.93 c 1.41,0 1.41,-0.21 1.41,-0.6 0,-0.31 -0.16,-0.9 -0.2,-1.04 l -6.67,-26.61 c -0.46,-1.85 -0.61,-2.39 -5.94,-2.39 -1.8,0 -2.1,0 -2.1,-0.96 0,-0.59 0.55,-0.59 0.85,-0.59 1.36,0 2.75,0.09 4.09,0.09 1.39,0 2.85,0.07 4.24,0.07 1.39,0 2.78,-0.07 4.14,-0.07 1.43,0 2.93,-0.09 4.32,-0.09 0.5,0 1.1,0 1.1,1 0,0.55 -0.39,0.55 -1.69,0.55 -1.25,0 -1.89,0 -3.19,0.09 -1.45,0.16 -1.84,0.3 -1.84,1.09 0,0.07 0,0.32 0.19,1.05 z"
           inkscape:connector-curvature="0"
           style="fill:#000000;stroke-width:0" /></g>    </g>
    <g
       id="g1130"
       transform="translate(61.29847,-10.357328)">
      <g
         word-spacing="normal"
         letter-spacing="normal"
         font-size-adjust="none"
         font-stretch="normal"
         font-weight="normal"
         font-variant="normal"
         font-style="normal"
         stroke-miterlimit="10.433"
         xml:space="preserve"
         transform="matrix(0.08034254,0,0,-0.08034254,-14.059944,107.71046)"
         id="g1128"
         style="font-style:normal;font-variant:normal;font-weight:normal;font-stretch:normal;letter-spacing:normal;word-spacing:normal;text-anchor:start;fill:none;fill-opacity:1;fill-rule:evenodd;stroke:#000000;stroke-linecap:butt;stroke-linejoin:miter;stroke-miterlimit:10.43299961;stroke-dasharray:none;stroke-dashoffset:0;stroke-opacity:1"><path
           id="path1122"
           d="m 470.16,438.09 v 0.05 0.06 0.05 0.05 0.05 0.05 0.04 0.05 0.04 0.04 l -0.01,0.04 v 0.04 0.04 0.03 0.04 l -0.01,0.03 -0.01,0.07 v 0.06 l -0.02,0.05 -0.01,0.05 -0.02,0.05 -0.02,0.04 -0.02,0.04 -0.02,0.03 -0.03,0.03 -0.03,0.03 -0.04,0.03 -0.04,0.02 -0.04,0.02 -0.03,0.01 -0.02,0.01 h -0.03 l -0.02,0.01 -0.03,0.01 h -0.03 l -0.03,0.01 h -0.03 l -0.04,0.01 h -0.03 -0.04 l -0.03,0.01 h -0.04 -0.04 -0.05 -0.04 -0.04 l -0.05,0.01 h -0.05 -0.05 -0.05 -0.05 c -3.09,-3.19 -7.47,-3.19 -9.06,-3.19 v -1.55 c 1,0 3.93,0 6.51,1.3 v -25.81 c 0,-1.8 -0.14,-2.39 -4.62,-2.39 h -1.6 v -1.55 c 1.75,0.16 6.08,0.16 8.07,0.16 2,0 6.32,0 8.07,-0.16 v 1.55 h -1.59 c -4.48,0 -4.64,0.54 -4.64,2.39 z"
           inkscape:connector-curvature="0"
           style="fill:#000000;stroke-width:0" /><path
           id="path1124"
           d="m 503.4,422.14 -0.01,0.74 -0.01,0.75 -0.02,0.75 -0.03,0.74 -0.04,0.75 -0.06,0.74 -0.08,0.74 -0.1,0.73 -0.11,0.73 -0.14,0.73 -0.16,0.72 -0.19,0.72 -0.22,0.72 -0.24,0.7 -0.28,0.7 -0.15,0.35 -0.16,0.34 c -2.28,4.8 -6.38,5.6 -8.47,5.6 -2.98,0 -6.63,-1.3 -8.67,-5.94 -1.6,-3.44 -1.85,-7.33 -1.85,-11.31 0,-3.74 0.21,-8.22 2.25,-12 2.14,-4.03 5.79,-5.03 8.22,-5.03 v 1.09 c -1.93,0 -4.89,1.25 -5.78,6.03 -0.55,2.98 -0.55,7.56 -0.55,10.52 0,3.18 0,6.46 0.41,9.15 0.94,5.94 4.67,6.38 5.92,6.38 1.64,0 4.94,-0.89 5.88,-5.83 0.5,-2.78 0.5,-6.58 0.5,-9.7 0,-3.75 0,-7.13 -0.55,-10.32 -0.75,-4.73 -3.59,-6.23 -5.83,-6.23 v 0 -1.09 c 2.69,0 6.47,1.04 8.67,5.78 1.6,3.43 1.85,7.31 1.85,11.25 z"
           inkscape:connector-curvature="0"
           style="fill:#000000;stroke-width:0" /><path
           id="path1126"
           d="m 526.72,436.43 0.01,0.07 0.02,0.06 0.03,0.12 0.03,0.12 0.03,0.11 0.03,0.11 0.03,0.09 0.03,0.1 0.02,0.09 0.03,0.08 0.03,0.08 0.03,0.07 0.03,0.07 0.03,0.06 0.03,0.06 0.03,0.06 0.03,0.05 0.03,0.05 0.04,0.04 0.03,0.04 0.03,0.04 0.04,0.04 0.04,0.03 0.04,0.03 0.04,0.03 0.04,0.02 0.04,0.03 0.04,0.02 0.05,0.02 0.05,0.01 0.05,0.02 0.05,0.01 0.05,0.02 c 0.46,0.11 2.1,0.11 3.15,0.11 5.03,0 7.26,-0.21 7.26,-4.1 0,-0.73 -0.19,-2.68 -0.39,-3.98 -0.05,-0.19 -0.15,-0.8 -0.15,-0.94 0,-0.3 0.15,-0.66 0.59,-0.66 0.56,0 0.66,0.41 0.75,1.16 l 1.34,8.66 c 0.07,0.2 0.11,0.7 0.11,0.86 0,0.54 -0.5,0.54 -1.34,0.54 h -27.66 c -1.2,0 -1.25,-0.06 -1.59,-1 l -2.99,-8.76 c -0.06,-0.11 -0.29,-0.8 -0.29,-0.91 0,-0.3 0.23,-0.55 0.59,-0.55 0.5,0 0.55,0.25 0.84,1.05 2.69,7.72 3.99,8.63 11.36,8.63 h 1.94 c 1.41,0 1.41,-0.21 1.41,-0.6 0,-0.31 -0.16,-0.9 -0.21,-1.04 l -6.67,-26.61 c -0.45,-1.85 -0.61,-2.39 -5.94,-2.39 -1.79,0 -2.09,0 -2.09,-0.96 0,-0.59 0.55,-0.59 0.84,-0.59 1.36,0 2.75,0.09 4.1,0.09 1.39,0 2.84,0.07 4.23,0.07 1.39,0 2.78,-0.07 4.14,-0.07 1.44,0 2.94,-0.09 4.33,-0.09 0.5,0 1.09,0 1.09,1 0,0.55 -0.38,0.55 -1.68,0.55 -1.25,0 -1.89,0 -3.19,0.09 -1.45,0.16 -1.84,0.3 -1.84,1.09 0,0.07 0,0.32 0.18,1.05 z"
           inkscape:connector-curvature="0"
           style="fill:#000000;stroke-width:0" /></g>    </g>
    <g
       id="g1279"
       transform="translate(98.923048,-10.357328)">
      <g
         word-spacing="normal"
         letter-spacing="normal"
         font-size-adjust="none"
         font-stretch="normal"
         font-weight="normal"
         font-variant="normal"
         font-style="normal"
         stroke-miterlimit="10.433"
         xml:space="preserve"
         transform="matrix(0.08034254,0,0,-0.08034254,-14.059944,107.71046)"
         id="g1277"
         style="font-style:normal;font-variant:normal;font-weight:normal;font-stretch:normal;letter-spacing:normal;word-spacing:normal;text-anchor:start;fill:none;fill-opacity:1;fill-rule:evenodd;stroke:#000000;stroke-linecap:butt;stroke-linejoin:miter;stroke-miterlimit:10.43299961;stroke-dasharray:none;stroke-dashoffset:0;stroke-opacity:1"><path
           id="path1271"
           d="m 470.16,438.09 v 0.05 0.06 0.05 0.05 0.05 0.05 0.04 0.05 0.04 0.04 l -0.01,0.04 v 0.04 0.04 0.03 0.04 l -0.01,0.03 -0.01,0.07 v 0.06 l -0.02,0.05 -0.01,0.05 -0.02,0.05 -0.02,0.04 -0.02,0.04 -0.02,0.03 -0.03,0.03 -0.03,0.03 -0.04,0.03 -0.04,0.02 -0.04,0.02 -0.03,0.01 -0.02,0.01 h -0.03 l -0.02,0.01 -0.03,0.01 h -0.03 l -0.03,0.01 h -0.03 l -0.04,0.01 h -0.03 -0.04 l -0.03,0.01 h -0.04 -0.04 -0.05 -0.04 -0.04 l -0.05,0.01 h -0.05 -0.05 -0.05 -0.05 c -3.09,-3.19 -7.47,-3.19 -9.06,-3.19 v -1.55 c 1,0 3.93,0 6.51,1.3 v -25.81 c 0,-1.8 -0.14,-2.39 -4.62,-2.39 h -1.6 v -1.55 c 1.75,0.16 6.08,0.16 8.07,0.16 2,0 6.32,0 8.07,-0.16 v 1.55 h -1.59 c -4.48,0 -4.64,0.54 -4.64,2.39 z"
           inkscape:connector-curvature="0"
           style="fill:#000000;stroke-width:0" /><path
           id="path1273"
           d="m 502.85,416.21 -0.01,0.56 -0.04,0.54 -0.05,0.54 -0.08,0.53 -0.11,0.53 -0.12,0.51 -0.15,0.5 -0.16,0.5 -0.19,0.48 -0.2,0.47 -0.23,0.46 -0.24,0.44 -0.26,0.43 -0.27,0.41 -0.3,0.4 -0.31,0.38 -0.32,0.36 -0.34,0.35 -0.36,0.32 -0.37,0.31 -0.38,0.29 -0.4,0.26 -0.41,0.25 -0.42,0.22 -0.43,0.2 -0.45,0.17 -0.45,0.15 -0.47,0.13 -0.47,0.09 -0.48,0.07 -0.5,0.05 -0.5,0.01 c -2.39,0 -4.53,-0.8 -6.33,-2.53 v 9.7 c 1,-0.29 2.65,-0.64 4.24,-0.64 6.12,0 9.61,4.53 9.61,5.19 0,0.3 -0.14,0.55 -0.5,0.55 -0.05,0 -0.14,0 -0.39,-0.16 -1,-0.45 -3.44,-1.44 -6.78,-1.44 -1.99,0 -4.28,0.35 -6.63,1.39 -0.39,0.14 -0.5,0.14 -0.59,0.14 -0.5,0 -0.5,-0.39 -0.5,-1.18 v -14.75 c 0,-0.89 0,-1.3 0.7,-1.3 0.34,0 0.44,0.16 0.64,0.45 0.55,0.8 2.39,3.49 6.42,3.49 2.6,0 3.85,-2.3 4.24,-3.19 0.81,-1.84 0.9,-3.78 0.9,-6.28 0,-1.74 0,-4.74 -1.2,-6.83 -1.19,-1.94 -3.03,-3.23 -5.33,-3.23 -3.64,0 -6.47,2.64 -7.33,5.57 0.16,-0.04 0.32,-0.09 0.86,-0.09 1.64,0 2.49,1.25 2.49,2.44 0,1.2 -0.85,2.44 -2.49,2.44 -0.7,0 -2.45,-0.35 -2.45,-2.65 0,-4.28 3.44,-9.1 9.03,-9.1 5.77,0 10.86,4.78 10.86,11.1 z"
           inkscape:connector-curvature="0"
           style="fill:#000000;stroke-width:0" /><path
           id="path1275"
           d="m 526.72,436.43 0.01,0.07 0.02,0.06 0.03,0.12 0.03,0.12 0.03,0.11 0.03,0.11 0.03,0.09 0.03,0.1 0.02,0.09 0.03,0.08 0.03,0.08 0.03,0.07 0.03,0.07 0.03,0.06 0.03,0.06 0.03,0.06 0.03,0.05 0.03,0.05 0.04,0.04 0.03,0.04 0.03,0.04 0.04,0.04 0.04,0.03 0.04,0.03 0.04,0.03 0.04,0.02 0.04,0.03 0.04,0.02 0.05,0.02 0.05,0.01 0.05,0.02 0.05,0.01 0.05,0.02 c 0.46,0.11 2.1,0.11 3.15,0.11 5.03,0 7.26,-0.21 7.26,-4.1 0,-0.73 -0.19,-2.68 -0.39,-3.98 -0.05,-0.19 -0.15,-0.8 -0.15,-0.94 0,-0.3 0.15,-0.66 0.59,-0.66 0.56,0 0.66,0.41 0.75,1.16 l 1.34,8.66 c 0.07,0.2 0.11,0.7 0.11,0.86 0,0.54 -0.5,0.54 -1.34,0.54 h -27.66 c -1.2,0 -1.25,-0.06 -1.59,-1 l -2.99,-8.76 c -0.06,-0.11 -0.29,-0.8 -0.29,-0.91 0,-0.3 0.23,-0.55 0.59,-0.55 0.5,0 0.55,0.25 0.84,1.05 2.69,7.72 3.99,8.63 11.36,8.63 h 1.94 c 1.41,0 1.41,-0.21 1.41,-0.6 0,-0.31 -0.16,-0.9 -0.21,-1.04 l -6.67,-26.61 c -0.45,-1.85 -0.61,-2.39 -5.94,-2.39 -1.79,0 -2.09,0 -2.09,-0.96 0,-0.59 0.55,-0.59 0.84,-0.59 1.36,0 2.75,0.09 4.1,0.09 1.39,0 2.84,0.07 4.23,0.07 1.39,0 2.78,-0.07 4.14,-0.07 1.44,0 2.94,-0.09 4.33,-0.09 0.5,0 1.09,0 1.09,1 0,0.55 -0.38,0.55 -1.68,0.55 -1.25,0 -1.89,0 -3.19,0.09 -1.45,0.16 -1.84,0.3 -1.84,1.09 0,0.07 0,0.32 0.18,1.05 z"
           inkscape:connector-curvature="0"
           style="fill:#000000;stroke-width:0" /></g>    </g>
    <path
       style="fill:#0000ff;fill-opacity:1;stroke:#0000ff;stroke-width:1.00157476;stroke-miterlimit:4;stroke-dasharray:none;stroke-dashoffset:0;stroke-opacity:1"
       d="M 65.597656 44.658203 C 65.563149 44.655261 65.533303 44.66201 65.509766 44.685547 C 65.415618 44.779684 65.603914 44.989836 65.509766 45.083984 C 65.415629 45.178132 65.203523 44.989836 65.109375 45.083984 C 64.921079 45.272284 65.228468 45.644627 65.109375 45.882812 C 64.940952 46.219655 64.478963 46.344809 64.310547 46.681641 C 64.185029 46.9327 64.436065 48.028223 64.310547 48.279297 C 64.22635 48.447701 63.996317 48.511272 63.912109 48.679688 C 63.852544 48.798769 63.971675 48.960985 63.912109 49.080078 C 63.827913 49.248483 63.595927 49.3101 63.511719 49.478516 C 62.923976 50.654002 64.438077 48.952544 63.113281 50.277344 C 62.994188 50.51553 63.232374 50.837986 63.113281 51.076172 C 63.029085 51.244576 62.797098 51.308147 62.712891 51.476562 C 62.593798 51.714745 62.831984 52.037205 62.712891 52.275391 C 62.628694 52.443795 62.398661 52.505412 62.314453 52.673828 C 62.254888 52.79291 62.374018 52.955126 62.314453 53.074219 C 62.230257 53.242623 61.99827 53.304241 61.914062 53.472656 C 61.32632 54.648142 62.840421 52.946684 61.515625 54.271484 C 61.45606 54.390566 61.57519 54.552782 61.515625 54.671875 C 61.431428 54.840317 61.199442 54.901897 61.115234 55.070312 C 60.996141 55.308495 61.234327 55.630955 61.115234 55.869141 C 61.031038 56.037545 60.801005 56.101116 60.716797 56.269531 C 60.657232 56.388613 60.776362 56.548876 60.716797 56.667969 C 60.6326 56.836373 60.400614 56.899944 60.316406 57.068359 C 60.10343 57.494289 60.529383 57.441261 60.316406 57.867188 C 60.23221 58.035592 60.002177 58.097209 59.917969 58.265625 C 59.858403 58.384707 59.977534 58.546923 59.917969 58.666016 C 59.833772 58.834458 59.601786 58.896037 59.517578 59.064453 C 59.391569 59.316453 59.643588 60.810481 59.517578 61.0625 C 59.433382 61.230904 59.201395 61.294475 59.117188 61.462891 C 59.057622 61.581972 59.176715 61.742235 59.117188 61.861328 C 59.032991 62.029733 58.802958 62.093303 58.71875 62.261719 C 58.588999 62.52121 58.84544 64.004433 58.71875 64.257812 C 58.634553 64.426217 58.402567 64.489787 58.318359 64.658203 C 58.246133 64.802657 58.318359 66.376464 58.318359 66.654297 C 58.318359 66.751178 58.33121 67.840665 58.318359 67.853516 C 58.107832 68.064066 57.730051 68.041433 57.519531 68.251953 C 57.425383 68.346094 57.519531 68.519191 57.519531 68.652344 C 57.519531 69.012393 57.603323 70.397023 57.519531 70.648438 C 57.425395 70.930885 57.215242 71.164822 57.121094 71.447266 C 56.991418 71.836349 57.247935 73.064793 57.121094 73.445312 C 57.026957 73.727764 56.814851 73.961697 56.720703 74.244141 C 56.636495 74.496772 56.720703 74.776663 56.720703 75.042969 L 56.720703 77.439453 L 56.720703 78.238281 C 56.720703 78.371415 56.762807 78.51236 56.720703 78.638672 C 56.626566 78.921124 56.394492 79.148669 56.322266 79.4375 C 56.257673 79.695838 56.322266 79.970023 56.322266 80.236328 C 56.322266 80.369473 56.381831 80.515673 56.322266 80.634766 C 56.238069 80.8032 55.967532 80.852492 55.921875 81.035156 C 55.792691 81.551855 55.921875 82.100224 55.921875 82.632812 L 55.921875 86.228516 C 55.921875 87.788878 56.041977 86.270564 55.523438 87.826172 C 55.448338 88.051541 55.523438 88.760949 55.523438 89.023438 L 55.523438 91.021484 L 55.523438 94.216797 L 55.523438 95.015625 C 55.523438 95.14877 55.565541 95.287751 55.523438 95.414062 C 55.429301 95.69651 55.217195 95.9324 55.123047 96.214844 C 55.080943 96.341148 55.165151 96.486969 55.123047 96.613281 C 55.02891 96.895733 54.818757 97.129665 54.724609 97.412109 C 54.645239 97.650291 54.724609 99.421581 54.724609 99.808594 L 54.724609 104.60156 L 54.724609 108.59766 C 54.724609 108.80654 54.777107 110.09028 54.724609 110.19531 C 54.640413 110.36376 54.383784 110.41509 54.324219 110.59375 C 54.248477 110.82098 54.324219 112.21558 54.324219 112.5918 L 54.324219 116.58594 L 54.324219 120.98047 C 54.324219 121.18935 54.376716 122.47309 54.324219 122.57812 C 54.240022 122.74653 54.009989 122.80815 53.925781 122.97656 C 53.881032 123.06609 53.925781 124.47931 53.925781 124.57422 L 53.925781 128.56836 C 53.925781 128.74825 53.986556 129.64603 53.925781 129.76758 C 53.841585 129.93602 53.609598 129.9976 53.525391 130.16602 C 53.406298 130.40421 53.644484 130.72666 53.525391 130.96484 C 53.441194 131.13328 53.211161 131.19682 53.126953 131.36523 C 53.074418 131.47028 53.126953 132.754 53.126953 132.96289 L 53.126953 136.95703 C 53.126953 137.34275 53.220685 139.47267 53.126953 139.75391 C 52.938653 140.31881 52.516421 140.78666 52.328125 141.35156 C 52.286021 141.47787 52.38769 141.63091 52.328125 141.75 C 52.243928 141.91843 52.011942 141.98197 51.927734 142.15039 C 51.808641 142.38858 52.046827 142.71103 51.927734 142.94922 C 51.843538 143.11765 51.613505 143.18119 51.529297 143.34961 C 51.469732 143.46869 51.588862 143.62895 51.529297 143.74805 C 51.4451 143.91646 51.213114 143.98002 51.128906 144.14844 C 51.069341 144.26752 51.188472 144.42778 51.128906 144.54688 C 51.04471 144.71531 50.814677 144.77885 50.730469 144.94727 C 50.609184 145.18982 50.851754 147.10118 50.730469 147.34375 C 50.562049 147.6806 50.100056 147.80575 49.931641 148.14258 C 49.872075 148.26166 49.991206 148.42192 49.931641 148.54102 C 49.847444 148.70945 49.664403 148.80825 49.53125 148.94141 C 49.53125 149.07455 49.590815 149.22075 49.53125 149.33984 C 49.362827 149.67668 48.900838 149.80184 48.732422 150.13867 C 48.613329 150.37686 48.851515 150.69931 48.732422 150.9375 C 48.492754 151.41683 47.774816 151.65738 47.535156 152.13672 C 47.475591 152.2558 47.594722 152.41606 47.535156 152.53516 C 47.338621 152.92822 46.132082 153.73975 45.935547 154.13281 C 45.875982 154.2519 45.995112 154.41411 45.935547 154.5332 C 45.85135 154.70161 45.670262 154.79849 45.537109 154.93164 C 45.403968 155.06477 45.305134 155.24782 45.136719 155.33203 C 45.017637 155.39163 44.857374 155.27254 44.738281 155.33203 C 43.855081 155.77362 44.61338 155.57988 44.337891 156.13086 C 44.253694 156.29929 44.072606 156.3981 43.939453 156.53125 C 43.806312 156.6644 43.707478 156.84548 43.539062 156.92969 C 43.419981 156.98929 43.234773 156.8355 43.140625 156.92969 C 43.046477 157.02383 43.234773 157.23589 43.140625 157.33008 C 43.046488 157.42419 42.859327 157.27047 42.740234 157.33008 C 42.57183 157.41428 42.47495 157.59536 42.341797 157.72852 C 42.208655 157.86165 42.025614 157.96049 41.941406 158.12891 C 41.881841 158.24799 42.035554 158.43316 41.941406 158.52734 C 41.84727 158.62145 41.637117 158.43316 41.542969 158.52734 C 41.343259 158.72706 41.742679 159.52685 41.542969 159.72656 C 41.448832 159.82067 41.275731 159.72656 41.142578 159.72656 C 41.142578 159.85971 41.236726 160.03081 41.142578 160.125 C 41.048441 160.21911 40.838289 160.03081 40.744141 160.125 C 40.634837 160.2343 40.8525 161.50598 40.744141 161.72266 C 40.659944 161.89109 40.427958 161.95463 40.34375 162.12305 C 40.183952 162.44261 40.503548 163.00075 40.34375 163.32031 C 40.259553 163.48876 40.02952 163.55229 39.945312 163.7207 C 39.785514 164.04026 40.105111 164.59841 39.945312 164.91797 C 39.861116 165.08638 39.62913 165.14994 39.544922 165.31836 C 39.493294 165.42164 39.544922 167.43172 39.544922 167.71484 C 39.544922 167.84799 39.604487 167.99614 39.544922 168.11523 C 39.460725 168.28367 39.230692 168.34526 39.146484 168.51367 C 39.086919 168.63276 39.20605 168.79497 39.146484 168.91406 C 39.111368 168.9843 39.043413 169.03129 38.978516 169.08008 L 38.978516 188.60352 L 65.810547 188.4082 L 65.810547 44.708984 C 65.743378 44.700541 65.663662 44.663831 65.597656 44.658203 z "
       transform="matrix(0.26458333,0,0,0.26458333,3.4884032,9.3339181)"
       id="rect2008" />
    <path
       style="fill:#d40000;fill-opacity:1;stroke:#d40000;stroke-width:1.00157476;stroke-miterlimit:4;stroke-dasharray:none;stroke-dashoffset:0;stroke-opacity:1"
       d="M 122.48242 104.04492 L 122.48242 188 L 149.31445 187.80664 L 149.31445 163.73242 C 149.20129 163.75401 149.0908 163.76903 148.99414 163.7207 C 148.6401 163.54368 148.15855 162.7639 147.79492 162.52148 C 147.54719 162.35633 147.23428 162.30171 146.99609 162.12305 C 146.69482 161.89709 146.46357 161.59052 146.19727 161.32422 C 145.53152 160.65847 144.86691 159.99192 144.20117 159.32617 C 143.99087 159.11588 143.10861 158.34226 143.00195 158.12891 C 142.94235 158.00983 143.06144 157.84761 143.00195 157.72852 C 142.76229 157.24917 142.04239 157.01059 141.80273 156.53125 C 141.74313 156.41218 141.86222 156.24995 141.80273 156.13086 C 141.71854 155.96245 141.4885 155.90084 141.4043 155.73242 C 141.34469 155.61334 141.4639 155.45112 141.4043 155.33203 C 141.3201 155.1636 141.08811 155.10006 141.00391 154.93164 C 140.94442 154.81256 141.06351 154.6523 141.00391 154.5332 C 140.76424 154.05386 140.0463 153.81332 139.80664 153.33398 C 139.68755 153.09579 139.92573 152.77334 139.80664 152.53516 C 139.72244 152.36671 139.49046 152.30513 139.40625 152.13672 C 139.28716 151.89853 139.52534 151.57608 139.40625 151.33789 C 139.32202 151.16946 139.09202 151.10592 139.00781 150.9375 C 138.42007 149.76201 139.93222 151.46347 138.60742 150.13867 C 138.48833 149.90049 138.72651 149.57803 138.60742 149.33984 C 138.52322 149.17144 138.29319 149.10982 138.20898 148.94141 C 138.08989 148.70322 138.32808 148.38076 138.20898 148.14258 C 138.1248 147.97417 137.8928 147.9106 137.80859 147.74219 C 137.74899 147.6231 137.86808 147.46284 137.80859 147.34375 C 137.72439 147.17532 137.49436 147.11178 137.41016 146.94336 C 137.29106 146.70517 137.52925 146.38272 137.41016 146.14453 C 137.32596 145.9761 137.14292 145.87925 137.00977 145.74609 C 137.00977 145.61295 137.06937 145.4648 137.00977 145.3457 C 136.84134 145.00886 136.37935 144.88371 136.21094 144.54688 C 136.05118 144.22732 136.37074 143.66917 136.21094 143.34961 C 136.12674 143.18117 135.89671 143.11763 135.8125 142.94922 C 135.75301 142.83013 135.8721 142.66792 135.8125 142.54883 C 135.7283 142.38042 135.54526 142.28354 135.41211 142.15039 L 135.01367 141.75 C 133.68887 140.4252 135.20103 142.12667 134.61328 140.95117 C 134.37361 140.47184 133.65568 140.23324 133.41602 139.75391 C 133.29692 139.51572 133.53511 139.19326 133.41602 138.95508 C 133.33182 138.78667 133.14878 138.68784 133.01562 138.55469 C 133.01562 138.42154 133.07523 138.27534 133.01562 138.15625 C 132.9314 137.98782 132.7014 137.92428 132.61719 137.75586 C 132.55758 137.63677 132.67668 137.47651 132.61719 137.35742 C 132.37752 136.87808 131.65763 136.63753 131.41797 136.1582 C 131.35848 136.03912 131.47757 135.87886 131.41797 135.75977 C 131.33374 135.59136 131.10374 135.52779 131.01953 135.35938 C 130.43178 134.18389 131.94394 135.88535 130.61914 134.56055 C 130.50005 134.32236 130.73823 133.9999 130.61914 133.76172 C 130.45072 133.42487 129.98873 133.29972 129.82031 132.96289 C 129.66055 132.64334 129.98011 132.08518 129.82031 131.76562 C 129.73611 131.59722 129.50413 131.53365 129.41992 131.36523 C 129.30208 131.12955 129.51154 130.44079 129.41992 130.16602 C 129.32578 129.88356 129.11559 129.64963 129.02148 129.36719 C 128.93728 129.11456 129.14058 128.80655 129.02148 128.56836 C 128.93726 128.39991 128.75425 128.30307 128.62109 128.16992 C 128.62109 128.03678 128.68058 127.88862 128.62109 127.76953 C 128.53686 127.60112 128.30686 127.53951 128.22266 127.37109 C 128.13376 127.19335 128.28354 125.95614 128.22266 125.77344 C 128.1631 125.59479 127.90647 125.54146 127.82227 125.37305 C 127.76278 125.25396 127.82227 125.10776 127.82227 124.97461 C 127.82227 124.70831 127.90647 124.4284 127.82227 124.17578 C 127.76271 123.99713 127.50804 123.94381 127.42383 123.77539 C 127.30474 123.53721 127.50804 123.22919 127.42383 122.97656 C 127.3297 122.69411 127.11755 122.46018 127.02344 122.17773 C 126.95064 121.95939 127.02344 119.69504 127.02344 119.38281 C 127.02344 119.24967 127.08293 119.10151 127.02344 118.98242 C 126.93924 118.81401 126.6846 118.76069 126.625 118.58203 C 126.54079 118.3294 126.625 118.04951 126.625 117.7832 C 126.625 117.65006 126.6846 117.50386 126.625 117.38477 C 126.5408 117.21636 126.35776 117.11753 126.22461 116.98438 C 126.22461 116.85124 126.28421 116.70503 126.22461 116.58594 C 126.14038 116.41749 125.88566 116.36421 125.82617 116.18555 C 125.74196 115.93292 125.91038 115.63934 125.82617 115.38672 C 125.76661 115.20807 125.50999 115.1567 125.42578 114.98828 C 125.36618 114.8692 125.45791 114.71707 125.42578 114.58789 C 125.32367 114.17941 125.12947 113.7991 125.02734 113.39062 C 124.95935 113.11879 125.13657 112.40986 125.02734 112.19141 C 124.94312 112.023 124.71116 111.96138 124.62695 111.79297 C 124.56735 111.67389 124.66906 111.51889 124.62695 111.39258 C 124.53281 111.11012 124.32263 110.87619 124.22852 110.59375 C 124.18641 110.46745 124.27062 110.32162 124.22852 110.19531 C 124.13438 109.91286 123.92224 109.67893 123.82812 109.39648 C 123.70393 109.02388 123.95119 107.76762 123.82812 107.39844 C 123.54568 106.55108 122.9133 105.84931 122.63086 105.00195 C 122.54665 104.74932 122.74995 104.44131 122.63086 104.20312 C 122.59846 104.13832 122.53904 104.09193 122.48242 104.04492 z "
       transform="matrix(0.26458333,0,0,0.26458333,3.4884032,9.3339181)"
       id="rect2012" />
    <path
       style="fill:#ffcc00;fill-opacity:1;stroke:#ffcc00;stroke-width:1.00157476;stroke-miterlimit:4;stroke-dasharray:none;stroke-dashoffset:0;stroke-opacity:1"
       d="M 94.646484 39.015625 L 94.646484 188.20117 L 121.48047 188.00781 L 121.48047 102.25391 C 121.46637 102.23613 121.44191 102.22562 121.43164 102.20508 C 121.37204 102.086 121.43164 101.93979 121.43164 101.80664 C 121.43164 101.54034 121.51585 101.26044 121.43164 101.00781 C 121.37208 100.82917 121.11741 100.77584 121.0332 100.60742 C 120.91411 100.36923 121.1523 100.04678 121.0332 99.808594 C 120.94898 99.640159 120.71702 99.578572 120.63281 99.410156 C 120.57321 99.291071 120.67492 99.136077 120.63281 99.009766 C 120.53867 98.727314 120.32856 98.493382 120.23438 98.210938 C 120.19227 98.084645 120.29386 97.931593 120.23438 97.8125 C 119.29125 95.926217 120.44452 100.25071 119.43555 96.214844 C 119.34276 95.843705 119.55456 94.454832 119.43555 94.216797 C 119.35132 94.048362 119.11936 93.984822 119.03516 93.816406 C 118.44741 92.640913 119.96152 94.342378 118.63672 93.017578 C 118.51763 92.7794 118.75581 92.456936 118.63672 92.21875 C 118.55252 92.050346 118.32054 91.988728 118.23633 91.820312 C 118.11724 91.58213 118.35542 91.25967 118.23633 91.021484 C 118.1521 90.853076 117.96909 90.754247 117.83594 90.621094 C 117.83594 90.48796 117.89543 90.341749 117.83594 90.222656 C 117.66752 89.885806 117.20553 89.76066 117.03711 89.423828 C 116.91802 89.185646 117.1562 88.863186 117.03711 88.625 C 116.95288 88.456592 116.72288 88.393025 116.63867 88.224609 C 116.51977 87.98679 116.75077 86.564818 116.63867 86.228516 C 116.54453 85.946056 116.33239 85.712132 116.23828 85.429688 C 116.15407 85.177056 116.35737 84.869045 116.23828 84.630859 C 116.15408 84.462451 115.92405 84.398884 115.83984 84.230469 C 115.75095 84.052729 115.90073 82.815515 115.83984 82.632812 C 115.78029 82.454173 115.49906 82.411042 115.43945 82.232422 C 115.35525 81.979783 115.52366 81.686217 115.43945 81.433594 C 115.37991 81.254943 115.10051 81.213777 115.04102 81.035156 C 114.95681 80.782525 115.04102 80.502634 115.04102 80.236328 C 115.04102 80.103183 115.10051 79.95503 115.04102 79.835938 C 114.95682 79.667503 114.72483 79.605916 114.64062 79.4375 C 114.58102 79.318415 114.70023 79.156202 114.64062 79.037109 C 114.55642 78.868701 114.3264 78.807088 114.24219 78.638672 C 114.1827 78.519598 114.27431 78.367466 114.24219 78.238281 C 114.14008 77.82979 114.03009 77.417608 113.8418 77.041016 C 113.7576 76.872577 113.52757 76.809041 113.44336 76.640625 C 113.38376 76.521543 113.48546 76.368499 113.44336 76.242188 C 113.34922 75.959736 113.13708 75.725803 113.04297 75.443359 C 112.95876 75.190717 113.19067 74.866125 113.04297 74.644531 C 112.83407 74.331182 112.43792 74.168626 112.24414 73.845703 C 112.02751 73.484652 111.97886 73.045924 111.8457 72.646484 C 111.8457 72.513339 111.90531 72.36714 111.8457 72.248047 C 111.67728 71.911208 111.21529 71.784097 111.04688 71.447266 C 110.98727 71.328184 111.04688 71.181981 111.04688 71.048828 C 111.04688 70.782526 111.13108 70.502624 111.04688 70.25 C 110.98732 70.071349 110.73069 70.018025 110.64648 69.849609 C 110.55759 69.671858 110.70737 68.434655 110.64648 68.251953 C 110.58696 68.073302 110.35251 68.010177 110.24805 67.853516 C 110.0829 67.605798 109.98081 67.320993 109.84766 67.054688 C 109.71451 66.78839 109.58237 66.522127 109.44922 66.255859 C 109.44922 66.122714 109.49132 65.981781 109.44922 65.855469 C 109.35508 65.573017 109.14294 65.339085 109.04883 65.056641 C 109.00672 64.930344 109.10843 64.777296 109.04883 64.658203 C 108.9646 64.489799 108.7346 64.426228 108.65039 64.257812 C 108.5615 64.080069 108.71128 62.842859 108.65039 62.660156 C 108.59083 62.481509 108.35447 62.41838 108.25 62.261719 C 108.08485 62.013993 107.98472 61.729196 107.85156 61.462891 C 107.85156 61.329749 107.91117 61.181593 107.85156 61.0625 C 107.76737 60.894096 107.55564 60.820724 107.45117 60.664062 C 106.83887 59.745615 107.26464 59.584463 106.65234 58.666016 C 106.54789 58.509328 106.35642 58.422286 106.25195 58.265625 C 106.08681 58.0179 106.01868 57.714545 105.85352 57.466797 C 105.74906 57.310109 105.53733 57.236775 105.45312 57.068359 C 105.39352 56.949278 105.51273 56.787062 105.45312 56.667969 C 104.84404 55.449974 105.13652 57.399611 104.6543 55.470703 C 104.5897 55.212357 104.7385 54.924499 104.6543 54.671875 C 104.5352 54.3146 104.06436 54.186408 103.85547 53.873047 C 103.24317 52.954599 103.66894 52.793448 103.05664 51.875 C 102.84774 51.561647 102.42623 51.413003 102.25781 51.076172 C 102.13872 50.837986 102.37691 50.51553 102.25781 50.277344 C 102.17359 50.108939 101.94358 50.047322 101.85938 49.878906 C 101.64632 49.452825 102.07239 49.506152 101.85938 49.080078 C 101.77517 48.911674 101.54319 48.848103 101.45898 48.679688 C 101.39949 48.560606 101.51859 48.39839 101.45898 48.279297 C 101.37478 48.110855 101.14475 48.049275 101.06055 47.880859 C 100.93454 47.628859 101.18656 46.134794 101.06055 45.882812 C 100.97632 45.714408 100.74436 45.652791 100.66016 45.484375 C 100.54106 45.246189 100.84845 44.873843 100.66016 44.685547 C 100.56602 44.591399 100.35583 44.779695 100.26172 44.685547 C 100.07342 44.497243 100.45001 44.075015 100.26172 43.886719 C 99.729115 43.354119 99.861328 44.55152 99.861328 43.486328 C 99.030312 41.823926 99.888969 43.91436 99.0625 43.087891 C 98.96839 42.993754 99.12199 42.806593 99.0625 42.6875 C 99.009469 42.581443 97.971288 41.543261 97.865234 41.490234 C 97.746153 41.430669 97.583937 41.5498 97.464844 41.490234 C 96.985501 41.250563 96.746917 40.530675 96.267578 40.291016 C 96.148493 40.23145 95.961298 40.385164 95.867188 40.291016 C 95.773077 40.196879 95.961298 39.986726 95.867188 39.892578 C 95.773058 39.79843 95.587843 39.952143 95.46875 39.892578 C 95.132916 39.72466 94.911878 39.324423 94.646484 39.015625 z "
       transform="matrix(0.26458333,0,0,0.26458333,3.4884032,9.3339181)"
       id="rect2014" />
    <path
       style="fill:#55d400;stroke:#55d400;stroke-width:0.99999995;stroke-linecap:butt;stroke-linejoin:miter;stroke-opacity:1;stroke-miterlimit:4;stroke-dasharray:none"
       d="M 75.056641 35.478516 C 74.696433 35.471949 74.349392 35.471779 74.296875 35.498047 C 73.659102 35.816941 74.135831 35.977996 73.498047 36.296875 C 73.378965 36.35644 73.218702 36.23731 73.099609 36.296875 C 72.931205 36.381072 72.832372 36.564113 72.699219 36.697266 L 72.300781 37.095703 L 71.900391 37.496094 C 71.767249 37.629235 71.670369 37.810323 71.501953 37.894531 C 71.382872 37.954097 71.195711 37.800383 71.101562 37.894531 C 70.275093 38.721019 72.363574 37.862154 70.701172 38.693359 C 70.462986 38.812452 70.09064 38.505063 69.902344 38.693359 C 69.808196 38.787496 69.996492 38.999602 69.902344 39.09375 C 69.71404 39.282046 69.341701 38.974657 69.103516 39.09375 C 68.220316 39.535327 68.980568 39.341595 68.705078 39.892578 C 68.263463 40.775774 68.45723 40.015526 67.90625 40.291016 C 66.243847 41.122035 68.332329 40.263371 67.505859 41.089844 C 66.739807 41.855882 67.37058 40.235433 66.8125 41.300781 L 66.8125 188.40234 L 93.646484 188.20703 L 93.646484 38.289062 C 93.583982 38.305344 93.521205 38.320181 93.470703 38.294922 C 93.302295 38.210722 93.238728 37.978739 93.070312 37.894531 C 92.83213 37.775438 92.50967 38.013624 92.271484 37.894531 C 91.792142 37.654864 91.553557 36.936925 91.074219 36.697266 C 90.955133 36.6377 90.792921 36.756831 90.673828 36.697266 C 90.50542 36.613069 90.443806 36.381083 90.275391 36.296875 C 90.037212 36.177782 89.714748 36.415968 89.476562 36.296875 C 89.308158 36.212678 89.244588 35.980692 89.076172 35.896484 C 88.957094 35.836919 88.796827 35.95605 88.677734 35.896484 C 88.50933 35.812288 88.445759 35.582255 88.277344 35.498047 C 88.174064 35.446419 86.163984 35.498047 85.880859 35.498047 L 79.888672 35.498047 L 75.894531 35.498047 C 75.790092 35.498047 75.416848 35.485083 75.056641 35.478516 z "
       transform="matrix(0.26458333,0,0,0.26458333,3.4884032,9.3339181)"
       id="path2021" />
    <path
       id="path2033"
       transform="matrix(0.26458333,0,0,0.26458333,3.4884032,9.3339181)"
       d="m 65.597656,44.658203 c -0.03451,-0.0029 -0.06435,0.0038 -0.08789,0.02734 -0.09415,0.09414 0.09415,0.304289 0,0.398437 -0.09414,0.09415 -0.306243,-0.09415 -0.400391,0 -0.188296,0.1883 0.119093,0.560643 0,0.798828 -0.168423,0.336843 -0.630412,0.461997 -0.798828,0.798829 -0.125518,0.251059 0.125518,1.346582 0,1.597656 -0.0842,0.168404 -0.31423,0.231975 -0.398438,0.400391 -0.05956,0.119081 0.05957,0.281297 0,0.40039 -0.0842,0.168405 -0.316182,0.230022 -0.40039,0.398438 -0.587743,1.175486 0.926358,-0.525972 -0.398438,0.798828 -0.119093,0.238186 0.119093,0.560642 0,0.798828 -0.0842,0.168404 -0.316183,0.231975 -0.40039,0.40039 -0.119093,0.238183 0.119093,0.560643 0,0.798829 -0.0842,0.168404 -0.31423,0.230021 -0.398438,0.398437 -0.05956,0.119082 0.05956,0.281298 0,0.400391 -0.0842,0.168404 -0.316183,0.230022 -0.400391,0.398437 -0.587742,1.175486 0.926359,-0.525972 -0.398437,0.798828 -0.05956,0.119082 0.05956,0.281298 0,0.400391 -0.0842,0.168442 -0.316183,0.230022 -0.400391,0.398437 -0.119093,0.238183 0.119093,0.560643 0,0.798829 -0.0842,0.168404 -0.314229,0.231975 -0.398437,0.40039 -0.05956,0.119082 0.05956,0.279345 0,0.398438 -0.0842,0.168404 -0.316183,0.231975 -0.400391,0.40039 -0.212976,0.42593 0.212977,0.372902 0,0.798829 -0.0842,0.168404 -0.314229,0.230021 -0.398437,0.398437 -0.05957,0.119082 0.05956,0.281298 0,0.400391 -0.0842,0.168442 -0.316183,0.230021 -0.400391,0.398437 -0.126009,0.252 0.12601,1.746028 0,1.998047 -0.0842,0.168404 -0.316183,0.231975 -0.40039,0.400391 -0.05957,0.119081 0.05953,0.279344 0,0.398437 -0.0842,0.168405 -0.31423,0.231975 -0.398438,0.400391 -0.129751,0.259491 0.12669,1.742714 0,1.996093 -0.0842,0.168405 -0.316183,0.231975 -0.400391,0.400391 -0.07223,0.144454 0,1.718261 0,1.996094 0,0.09688 0.01285,1.186368 0,1.199219 -0.210527,0.21055 -0.588308,0.187917 -0.798828,0.398437 -0.09415,0.09414 0,0.267238 0,0.400391 0,0.360049 0.08379,1.744679 0,1.996094 -0.09414,0.282447 -0.304289,0.516384 -0.398437,0.798828 -0.129676,0.389083 0.126841,1.617527 0,1.998046 -0.09414,0.282452 -0.306243,0.516385 -0.400391,0.798829 -0.08421,0.252631 0,0.532522 0,0.798828 v 2.396484 0.798828 c 0,0.133134 0.0421,0.274079 0,0.400391 -0.09414,0.282452 -0.326211,0.509997 -0.398437,0.798828 -0.06459,0.258338 0,0.532523 0,0.798828 0,0.133145 0.05956,0.279345 0,0.398438 -0.0842,0.168434 -0.354734,0.217726 -0.400391,0.40039 -0.129184,0.516699 0,1.065068 0,1.597656 v 3.595704 c 0,1.560362 0.120102,0.04205 -0.398437,1.597656 -0.0751,0.225369 0,0.934777 0,1.197266 v 1.998046 3.195313 0.798828 c 0,0.133145 0.0421,0.272126 0,0.398437 -0.09414,0.282448 -0.306243,0.518338 -0.400391,0.800782 -0.0421,0.126304 0.0421,0.272125 0,0.398437 -0.09414,0.282452 -0.30429,0.516384 -0.398438,0.798828 -0.07937,0.238182 0,2.009472 0,2.396485 v 4.79297 3.9961 c 0,0.20888 0.0525,1.49262 0,1.59765 -0.0842,0.16845 -0.340825,0.21978 -0.40039,0.39844 -0.07574,0.22723 0,1.62183 0,1.99805 v 3.99414 4.39453 c 0,0.20888 0.0525,1.49262 0,1.59765 -0.0842,0.16841 -0.31423,0.23003 -0.398438,0.39844 -0.04475,0.0895 0,1.50275 0,1.59766 v 3.99414 c 0,0.17989 0.06077,1.07767 0,1.19922 -0.0842,0.16844 -0.316183,0.23002 -0.40039,0.39844 -0.119093,0.23819 0.119093,0.56064 0,0.79882 -0.0842,0.16844 -0.31423,0.23198 -0.398438,0.40039 -0.05253,0.10505 0,1.38877 0,1.59766 v 3.99414 c 0,0.38572 0.09373,2.51564 0,2.79688 -0.1883,0.5649 -0.610532,1.03275 -0.798828,1.59765 -0.0421,0.12631 0.05956,0.27935 0,0.39844 -0.0842,0.16843 -0.316183,0.23197 -0.400391,0.40039 -0.119093,0.23819 0.119093,0.56064 0,0.79883 -0.0842,0.16843 -0.314229,0.23197 -0.398437,0.40039 -0.05956,0.11908 0.05956,0.27934 0,0.39844 -0.0842,0.16841 -0.316183,0.23197 -0.400391,0.40039 -0.05956,0.11908 0.05957,0.27934 0,0.39844 -0.0842,0.16843 -0.314229,0.23197 -0.398437,0.40039 -0.121285,0.24255 0.121285,2.15391 0,2.39648 -0.16842,0.33685 -0.630413,0.462 -0.798828,0.79883 -0.05957,0.11908 0.05956,0.27934 0,0.39844 -0.0842,0.16843 -0.267238,0.26723 -0.400391,0.40039 0,0.13314 0.05956,0.27934 0,0.39843 -0.168423,0.33684 -0.630412,0.462 -0.798828,0.79883 -0.119093,0.23819 0.119093,0.56064 0,0.79883 -0.239668,0.47933 -0.957606,0.71988 -1.197266,1.19922 -0.05956,0.11908 0.05957,0.27934 0,0.39844 -0.196535,0.39306 -1.403074,1.20459 -1.599609,1.59765 -0.05956,0.11909 0.05956,0.2813 0,0.40039 -0.0842,0.16841 -0.265285,0.26529 -0.398438,0.39844 -0.133141,0.13313 -0.231975,0.31618 -0.40039,0.40039 -0.119082,0.0596 -0.279345,-0.0595 -0.398438,0 -0.8832,0.44159 -0.124901,0.24785 -0.40039,0.79883 -0.0842,0.16843 -0.265285,0.26724 -0.398438,0.40039 -0.133141,0.13315 -0.231975,0.31423 -0.400391,0.39844 -0.119081,0.0596 -0.304289,-0.0942 -0.398437,0 -0.09415,0.0941 0.09415,0.3062 0,0.40039 -0.09414,0.0941 -0.281298,-0.0596 -0.400391,0 -0.168404,0.0842 -0.265284,0.26528 -0.398437,0.39844 -0.133142,0.13313 -0.316183,0.23197 -0.400391,0.40039 -0.05956,0.11908 0.09415,0.30425 0,0.39843 -0.09414,0.0941 -0.304289,-0.0942 -0.398437,0 -0.19971,0.19972 0.19971,0.99951 0,1.19922 -0.09414,0.0941 -0.267238,0 -0.400391,0 0,0.13315 0.09415,0.30425 0,0.39844 -0.09414,0.0941 -0.304289,-0.0942 -0.398437,0 -0.109304,0.1093 0.108359,1.38098 0,1.59766 -0.0842,0.16843 -0.316183,0.23197 -0.400391,0.40039 -0.159798,0.31956 0.159798,0.8777 0,1.19726 -0.0842,0.16845 -0.31423,0.23198 -0.398438,0.40039 -0.159798,0.31956 0.159799,0.87771 0,1.19727 -0.0842,0.16841 -0.316182,0.23197 -0.40039,0.40039 -0.05163,0.10328 0,2.11336 0,2.39648 0,0.13315 0.05956,0.2813 0,0.40039 -0.0842,0.16844 -0.31423,0.23003 -0.398438,0.39844 -0.05956,0.11909 0.05957,0.2813 0,0.40039 -0.03512,0.0702 -0.103071,0.11723 -0.167968,0.16602 v 19.52344 L 65.810547,188.4082 V 44.708984 c -0.06717,-0.0084 -0.146885,-0.04515 -0.212891,-0.05078 z"
       style="fill:url(#pattern2841);fill-opacity:1;stroke:#0000ff;stroke-width:1.00157475;stroke-miterlimit:4;stroke-dasharray:none;stroke-dashoffset:0;stroke-opacity:1"
       inkscape:connector-curvature="0" />
    <path
       id="path2035"
       transform="matrix(0.26458333,0,0,0.26458333,3.4884032,9.3339181)"
       d="M 122.48242,104.04492 V 188 l 26.83203,-0.19336 v -24.07422 c -0.11316,0.0216 -0.22365,0.0366 -0.32031,-0.0117 -0.35404,-0.17702 -0.83559,-0.9568 -1.19922,-1.19922 -0.24773,-0.16515 -0.56064,-0.21977 -0.79883,-0.39843 -0.30127,-0.22596 -0.53252,-0.53253 -0.79882,-0.79883 -0.66575,-0.66575 -1.33036,-1.3323 -1.9961,-1.99805 -0.2103,-0.21029 -1.09256,-0.98391 -1.19922,-1.19726 -0.0596,-0.11908 0.0595,-0.2813 0,-0.40039 -0.23966,-0.47935 -0.95956,-0.71793 -1.19922,-1.19727 -0.0596,-0.11907 0.0595,-0.2813 0,-0.40039 -0.0842,-0.16841 -0.31423,-0.23002 -0.39843,-0.39844 -0.0596,-0.11908 0.0596,-0.2813 0,-0.40039 -0.0842,-0.16843 -0.31619,-0.23197 -0.40039,-0.40039 -0.0595,-0.11908 0.0596,-0.27934 0,-0.39844 -0.23967,-0.47934 -0.95761,-0.71988 -1.19727,-1.19922 -0.11909,-0.23819 0.11909,-0.56064 0,-0.79882 -0.0842,-0.16845 -0.31618,-0.23003 -0.40039,-0.39844 -0.11909,-0.23819 0.11909,-0.56064 0,-0.79883 -0.0842,-0.16843 -0.31423,-0.23197 -0.39844,-0.40039 -0.58774,-1.17549 0.92441,0.52597 -0.40039,-0.79883 -0.11909,-0.23818 0.11909,-0.56064 0,-0.79883 -0.0842,-0.1684 -0.31423,-0.23002 -0.39844,-0.39843 -0.11909,-0.23819 0.1191,-0.56065 0,-0.79883 -0.0842,-0.16841 -0.31618,-0.23198 -0.40039,-0.40039 -0.0596,-0.11909 0.0595,-0.27935 0,-0.39844 -0.0842,-0.16843 -0.31423,-0.23197 -0.39843,-0.40039 -0.1191,-0.23819 0.11909,-0.56064 0,-0.79883 -0.0842,-0.16843 -0.26724,-0.26528 -0.40039,-0.39844 0,-0.13314 0.0596,-0.28129 0,-0.40039 -0.16843,-0.33684 -0.63042,-0.46199 -0.79883,-0.79882 -0.15976,-0.31956 0.1598,-0.87771 0,-1.19727 -0.0842,-0.16844 -0.31423,-0.23198 -0.39844,-0.40039 -0.0595,-0.11909 0.0596,-0.2813 0,-0.40039 -0.0842,-0.16841 -0.26724,-0.26529 -0.40039,-0.39844 L 135.01367,141.75 c -1.3248,-1.3248 0.18736,0.37667 -0.40039,-0.79883 -0.23967,-0.47933 -0.9576,-0.71793 -1.19726,-1.19726 -0.1191,-0.23819 0.11909,-0.56065 0,-0.79883 -0.0842,-0.16841 -0.26724,-0.26724 -0.4004,-0.40039 0,-0.13315 0.0596,-0.27935 0,-0.39844 -0.0842,-0.16843 -0.31422,-0.23197 -0.39843,-0.40039 -0.0596,-0.11909 0.0595,-0.27935 0,-0.39844 -0.23967,-0.47934 -0.95956,-0.71989 -1.19922,-1.19922 -0.0595,-0.11908 0.0596,-0.27934 0,-0.39843 -0.0842,-0.16841 -0.31423,-0.23198 -0.39844,-0.40039 -0.58775,-1.17549 0.92441,0.52597 -0.40039,-0.79883 -0.11909,-0.23819 0.11909,-0.56065 0,-0.79883 -0.16842,-0.33685 -0.63041,-0.462 -0.79883,-0.79883 -0.15976,-0.31955 0.1598,-0.87771 0,-1.19727 -0.0842,-0.1684 -0.31618,-0.23197 -0.40039,-0.40039 -0.11784,-0.23568 0.0916,-0.92444 0,-1.19921 -0.0941,-0.28246 -0.30433,-0.51639 -0.39844,-0.79883 -0.0842,-0.25263 0.1191,-0.56064 0,-0.79883 -0.0842,-0.16845 -0.26723,-0.26529 -0.40039,-0.39844 0,-0.13314 0.0595,-0.2813 0,-0.40039 -0.0842,-0.16841 -0.31423,-0.23002 -0.39843,-0.39844 -0.0889,-0.17774 0.0609,-1.41495 0,-1.59765 -0.0596,-0.17865 -0.31619,-0.23198 -0.40039,-0.40039 -0.0595,-0.11909 0,-0.26529 0,-0.39844 0,-0.2663 0.0842,-0.54621 0,-0.79883 -0.0596,-0.17865 -0.31423,-0.23197 -0.39844,-0.40039 -0.11909,-0.23818 0.0842,-0.5462 0,-0.79883 -0.0941,-0.28245 -0.30628,-0.51638 -0.40039,-0.79883 -0.0728,-0.21834 0,-2.48269 0,-2.79492 0,-0.13314 0.0595,-0.2813 0,-0.40039 -0.0842,-0.16841 -0.33884,-0.22173 -0.39844,-0.40039 -0.0842,-0.25263 0,-0.53252 0,-0.79883 0,-0.13314 0.0596,-0.27934 0,-0.39843 -0.0842,-0.16841 -0.26724,-0.26724 -0.40039,-0.40039 0,-0.13314 0.0596,-0.27935 0,-0.39844 -0.0842,-0.16845 -0.33895,-0.22173 -0.39844,-0.40039 -0.0842,-0.25263 0.0842,-0.54621 0,-0.79883 -0.0596,-0.17865 -0.31618,-0.23002 -0.40039,-0.39844 -0.0596,-0.11908 0.0321,-0.27121 0,-0.40039 -0.10211,-0.40848 -0.29631,-0.78879 -0.39844,-1.19727 -0.068,-0.27183 0.10923,-0.98076 0,-1.19921 -0.0842,-0.16841 -0.31618,-0.23003 -0.40039,-0.39844 -0.0596,-0.11908 0.0421,-0.27408 0,-0.40039 -0.0941,-0.28246 -0.30432,-0.51639 -0.39843,-0.79883 -0.0421,-0.1263 0.0421,-0.27213 0,-0.39844 -0.0941,-0.28245 -0.30628,-0.51638 -0.4004,-0.79883 -0.12419,-0.3726 0.12307,-1.62886 0,-1.99804 -0.28244,-0.84736 -0.91482,-1.54913 -1.19726,-2.39649 -0.0842,-0.25263 0.11909,-0.56064 0,-0.79883 -0.0324,-0.0648 -0.0918,-0.11119 -0.14844,-0.1582 z"
       style="fill:url(#pattern2847);fill-opacity:1;stroke:#d40000;stroke-width:1.00157475;stroke-miterlimit:4;stroke-dasharray:none;stroke-dashoffset:0;stroke-opacity:1"
       inkscape:connector-curvature="0" />
    <path
       id="path2037"
       transform="matrix(0.26458333,0,0,0.26458333,3.4884032,9.3339181)"
       d="M 94.646484,39.015625 V 188.20117 l 26.833986,-0.19336 v -85.7539 c -0.0141,-0.0178 -0.0386,-0.0283 -0.0488,-0.0488 -0.0596,-0.11908 0,-0.26529 0,-0.39844 0,-0.2663 0.0842,-0.5462 0,-0.79883 -0.0596,-0.17864 -0.31423,-0.23197 -0.39844,-0.40039 -0.11909,-0.23819 0.1191,-0.56064 0,-0.798826 -0.0842,-0.168435 -0.31618,-0.230022 -0.40039,-0.398438 -0.0596,-0.119085 0.0421,-0.274079 0,-0.40039 -0.0941,-0.282452 -0.30425,-0.516384 -0.39843,-0.798828 -0.0421,-0.126293 0.0595,-0.279345 0,-0.398438 -0.94313,-1.886283 0.21014,2.43821 -0.79883,-1.597656 -0.0928,-0.371139 0.11901,-1.760012 0,-1.998047 -0.0842,-0.168435 -0.31619,-0.231975 -0.40039,-0.400391 -0.58775,-1.175493 0.92636,0.525972 -0.39844,-0.798828 -0.11909,-0.238178 0.11909,-0.560642 0,-0.798828 -0.0842,-0.168404 -0.31618,-0.230022 -0.40039,-0.398438 -0.11909,-0.238182 0.11909,-0.560642 0,-0.798828 -0.0842,-0.168408 -0.26724,-0.267237 -0.40039,-0.40039 0,-0.133134 0.0595,-0.279345 0,-0.398438 -0.16842,-0.33685 -0.63041,-0.461996 -0.79883,-0.798828 -0.11909,-0.238182 0.11909,-0.560642 0,-0.798828 -0.0842,-0.168408 -0.31423,-0.231975 -0.39844,-0.400391 -0.1189,-0.237819 0.1121,-1.659791 0,-1.996093 -0.0941,-0.28246 -0.30628,-0.516384 -0.40039,-0.798828 -0.0842,-0.252632 0.11909,-0.560643 0,-0.798829 -0.0842,-0.168408 -0.31423,-0.231975 -0.39844,-0.40039 -0.0889,-0.17774 0.0609,-1.414954 0,-1.597657 -0.0596,-0.178639 -0.34078,-0.22177 -0.40039,-0.40039 -0.0842,-0.252639 0.0842,-0.546205 0,-0.798828 -0.0595,-0.178651 -0.33894,-0.219817 -0.39843,-0.398438 -0.0842,-0.252631 0,-0.532522 0,-0.798828 0,-0.133145 0.0595,-0.281298 0,-0.40039 -0.0842,-0.168435 -0.31619,-0.230022 -0.4004,-0.398438 -0.0596,-0.119085 0.0596,-0.281298 0,-0.400391 -0.0842,-0.168408 -0.31422,-0.230021 -0.39843,-0.398437 -0.0595,-0.119074 0.0321,-0.271206 0,-0.400391 -0.10211,-0.408491 -0.2121,-0.820673 -0.40039,-1.197265 -0.0842,-0.168439 -0.31423,-0.231975 -0.39844,-0.400391 -0.0596,-0.119082 0.0421,-0.272126 0,-0.398437 -0.0941,-0.282452 -0.30628,-0.516385 -0.40039,-0.798829 -0.0842,-0.252642 0.1477,-0.577234 0,-0.798828 -0.2089,-0.313349 -0.60505,-0.475905 -0.79883,-0.798828 -0.21663,-0.361051 -0.26528,-0.799779 -0.39844,-1.199219 0,-0.133145 0.0596,-0.279344 0,-0.398437 -0.16842,-0.336839 -0.63041,-0.46395 -0.79882,-0.800781 -0.0596,-0.119082 0,-0.265285 0,-0.398438 0,-0.266302 0.0842,-0.546204 0,-0.798828 -0.0596,-0.178651 -0.31619,-0.231975 -0.4004,-0.400391 -0.0889,-0.177751 0.0609,-1.414954 0,-1.597656 -0.0595,-0.178651 -0.29397,-0.241776 -0.39843,-0.398437 -0.16515,-0.247718 -0.26724,-0.532523 -0.40039,-0.798828 -0.13315,-0.266298 -0.26529,-0.532561 -0.39844,-0.798829 0,-0.133145 0.0421,-0.274078 0,-0.40039 -0.0941,-0.282452 -0.30628,-0.516384 -0.40039,-0.798828 -0.0421,-0.126297 0.0596,-0.279345 0,-0.398438 -0.0842,-0.168404 -0.31423,-0.231975 -0.39844,-0.400391 -0.0889,-0.177743 0.0609,-1.414953 0,-1.597656 -0.0596,-0.178647 -0.29592,-0.241776 -0.40039,-0.398437 -0.16515,-0.247726 -0.26528,-0.532523 -0.39844,-0.798828 0,-0.133142 0.0596,-0.281298 0,-0.400391 -0.0842,-0.168404 -0.29592,-0.241776 -0.40039,-0.398438 -0.6123,-0.918447 -0.18653,-1.079599 -0.79883,-1.998046 -0.10445,-0.156688 -0.29592,-0.24373 -0.40039,-0.400391 -0.16514,-0.247725 -0.23327,-0.55108 -0.39843,-0.798828 -0.10446,-0.156688 -0.31619,-0.230022 -0.4004,-0.398438 -0.0596,-0.119081 0.0596,-0.281297 0,-0.40039 -0.60908,-1.217995 -0.3166,0.731642 -0.79882,-1.197266 -0.0646,-0.258346 0.0842,-0.546204 0,-0.798828 -0.1191,-0.357275 -0.58994,-0.485467 -0.79883,-0.798828 -0.6123,-0.918448 -0.18653,-1.079599 -0.79883,-1.998047 -0.2089,-0.313353 -0.63041,-0.461997 -0.79883,-0.798828 -0.11909,-0.238186 0.1191,-0.560642 0,-0.798828 -0.0842,-0.168405 -0.31423,-0.230022 -0.39843,-0.398438 -0.21306,-0.426081 0.21301,-0.372754 0,-0.798828 -0.0842,-0.168404 -0.31619,-0.231975 -0.4004,-0.40039 -0.0595,-0.119082 0.0596,-0.281298 0,-0.400391 -0.0842,-0.168442 -0.31423,-0.230022 -0.39843,-0.398438 -0.12601,-0.252 0.12601,-1.746065 0,-1.998047 -0.0842,-0.168404 -0.31619,-0.230021 -0.40039,-0.398437 -0.1191,-0.238186 0.18829,-0.610532 0,-0.798828 -0.0941,-0.09415 -0.30433,0.09415 -0.39844,0 -0.1883,-0.188304 0.18829,-0.610532 0,-0.798828 -0.532605,-0.5326 -0.400392,0.664801 -0.400392,-0.400391 -0.831016,-1.662402 0.02764,0.428032 -0.798828,-0.398437 -0.09411,-0.09414 0.05949,-0.281298 0,-0.400391 -0.05303,-0.106057 -1.091212,-1.144239 -1.197266,-1.197266 -0.119081,-0.05956 -0.281297,0.05957 -0.40039,0 -0.479343,-0.239671 -0.717927,-0.959559 -1.197266,-1.199218 -0.119085,-0.05957 -0.30628,0.09415 -0.40039,0 -0.09411,-0.09414 0.09411,-0.30429 0,-0.398438 -0.09413,-0.09415 -0.279345,0.05956 -0.398438,0 -0.335834,-0.167918 -0.556872,-0.568155 -0.822266,-0.876953 z"
       style="fill:url(#pattern2843);fill-opacity:1;stroke:#ffcc00;stroke-width:1.00157475;stroke-miterlimit:4;stroke-dasharray:none;stroke-dashoffset:0;stroke-opacity:1"
       inkscape:connector-curvature="0" />
    <path
       id="path2039"
       transform="matrix(0.26458333,0,0,0.26458333,3.4884032,9.3339181)"
       d="m 75.056641,35.478516 c -0.360208,-0.0066 -0.707249,-0.0067 -0.759766,0.01953 -0.637773,0.318894 -0.161044,0.479949 -0.798828,0.798828 -0.119082,0.05956 -0.279345,-0.05956 -0.398438,0 -0.168404,0.0842 -0.267237,0.267238 -0.40039,0.400391 l -0.398438,0.398437 -0.40039,0.400391 c -0.133142,0.133141 -0.230022,0.314229 -0.398438,0.398437 -0.119081,0.05957 -0.306242,-0.09415 -0.400391,0 -0.826469,0.826488 1.262012,-0.03238 -0.40039,0.798828 -0.238186,0.119093 -0.610532,-0.188296 -0.798828,0 -0.09415,0.09414 0.09415,0.306243 0,0.400391 -0.188304,0.188296 -0.560643,-0.119093 -0.798828,0 -0.8832,0.441577 -0.122948,0.247845 -0.398438,0.798828 -0.441615,0.883196 -0.247848,0.122948 -0.798828,0.398438 -1.662403,0.831019 0.426079,-0.02764 -0.400391,0.798828 -0.766052,0.766038 -0.135279,-0.854411 -0.693359,0.210937 v 147.10156 l 26.833984,-0.19531 V 38.289062 c -0.0625,0.01628 -0.125279,0.03112 -0.175781,0.0059 -0.168408,-0.0842 -0.231975,-0.316183 -0.400391,-0.400391 -0.238182,-0.119093 -0.560642,0.119093 -0.798828,0 -0.479342,-0.239667 -0.717927,-0.957606 -1.197265,-1.197265 -0.119086,-0.05957 -0.281298,0.05956 -0.400391,0 -0.168408,-0.0842 -0.230022,-0.316183 -0.398437,-0.400391 -0.238179,-0.119093 -0.560643,0.119093 -0.798829,0 -0.168404,-0.0842 -0.231974,-0.316183 -0.40039,-0.400391 -0.119078,-0.05956 -0.279345,0.05957 -0.398438,0 -0.168404,-0.0842 -0.231975,-0.314229 -0.40039,-0.398437 -0.10328,-0.05163 -2.11336,0 -2.396485,0 h -5.992187 -3.994141 c -0.104439,0 -0.477683,-0.01296 -0.83789,-0.01953 z"
       style="fill:url(#pattern2845);fill-opacity:1;stroke:#55d400;stroke-width:0.99999994;stroke-linecap:butt;stroke-linejoin:miter;stroke-miterlimit:4;stroke-dasharray:none;stroke-opacity:1"
       inkscape:connector-curvature="0" />
    <path
       style="fill:none;stroke:#0000ff;stroke-width:0.26458332px;stroke-linecap:butt;stroke-linejoin:miter;stroke-opacity:1"
       d="m 3.4884032,59.309901 c 0.5988931,0 1.1977859,0 1.796679,0 0.055266,0 0.3949586,-0.01389 0.4227481,0 0.044562,0.02228 0.061126,0.08341 0.105687,0.105688 0.032164,0.01609 0.2694641,0 0.3170611,0 0.281832,0 0.5636641,0 0.8454961,0 0.7398091,0 1.4796182,0 2.2194274,0 0.3875194,0 0.7750384,0 1.1625571,0 0.05527,0 0.394959,0.01389 0.422748,0 0.04456,-0.02228 0.06113,-0.08341 0.105687,-0.105688 0.03151,-0.01577 0.07418,0.01577 0.105687,0 0.04456,-0.02228 0.06113,-0.08341 0.105687,-0.105687 0.03151,-0.01574 0.07418,0.01577 0.105687,0 0.08912,-0.04456 0.122251,-0.166812 0.211375,-0.211373 0.03151,-0.01577 0.07418,0.01577 0.105687,0 0.194571,-0.09728 0.0168,-0.219776 0.211374,-0.317061 0.06302,-0.03151 0.161552,0.04982 0.211374,0 0.02491,-0.0249 -0.01576,-0.07418 0,-0.105688 0.219922,-0.439843 -0.0073,0.112985 0.211374,-0.105685 0.02491,-0.02492 -0.02491,-0.08078 0,-0.105688 0.02491,-0.0249 0.08078,0.02492 0.105687,0 0.05284,-0.05284 -0.05284,-0.264218 0,-0.317061 0.04982,-0.04982 0.161552,0.04982 0.211374,0 0.02491,-0.0249 -0.02491,-0.08078 0,-0.105687 0.04982,-0.04982 0.148354,0.03151 0.211374,0 0.207468,-0.103736 0.04758,-0.200848 0.105687,-0.317061 0.219922,-0.439844 -0.0073,0.112982 0.211374,-0.105688 0.02491,-0.0249 -0.01576,-0.07418 0,-0.105685 0.11684,-0.23368 0.06559,-0.0328 0.211374,-0.105688 0.23368,-0.11684 0.0328,-0.0656 0.105687,-0.211376 0.02228,-0.04456 0.08341,-0.06112 0.105687,-0.105685 0.01576,-0.03151 -0.01576,-0.07418 0,-0.105688 0.02228,-0.04456 0.08341,-0.06113 0.105687,-0.105687 0.04227,-0.08455 -0.04228,-0.232511 0,-0.317061 0.02228,-0.04456 0.08341,-0.06112 0.105687,-0.105685 0.03151,-0.06302 -0.03151,-0.148355 0,-0.211376 0.02228,-0.04456 0.08341,-0.06112 0.105687,-0.105688 0.0139,-0.02779 0,-0.36748 0,-0.422746 0,-0.281834 0,-0.563665 0,-0.845497 0,-0.07491 -0.01366,-0.606795 0,-0.634122 0.02228,-0.04456 0.08341,-0.06113 0.105687,-0.105687 0.01576,-0.03151 -0.01576,-0.07418 0,-0.105688 0.02228,-0.04456 0.08341,-0.06112 0.105687,-0.105685 0.01576,-0.03151 0,-0.07046 0,-0.105688 0,-0.07491 -0.01366,-0.606796 0,-0.634122 0.02228,-0.04456 0.08341,-0.06113 0.105687,-0.105688 0.04228,-0.08455 -0.04228,-0.23251 0,-0.31706 0.02228,-0.04456 0.08341,-0.06112 0.105687,-0.105688 0.04228,-0.08455 -0.04228,-0.232511 0,-0.317061 0.02228,-0.04456 0.08341,-0.06112 0.105687,-0.105685 0.02867,-0.05733 -0.02892,-0.39383 0,-0.422749 0.02491,-0.02492 0.08078,0.0249 0.105687,0 0.02491,-0.02492 0,-0.07046 0,-0.105688 0.03523,0 0.08078,0.0249 0.105687,0 0.05284,-0.05284 -0.05284,-0.264218 0,-0.31706 0.02491,-0.02492 0.08078,0.0249 0.105687,0 0.02491,-0.02492 -0.01576,-0.07418 0,-0.105688 0.02228,-0.04456 0.07046,-0.07046 0.105687,-0.105685 0.03523,-0.03523 0.06113,-0.08341 0.105687,-0.105688 0.03151,-0.01577 0.08078,0.0249 0.105687,0 0.02491,-0.02492 -0.02491,-0.08078 0,-0.105688 0.02491,-0.02492 0.07418,0.01577 0.105687,0 0.04456,-0.02228 0.07046,-0.07046 0.105687,-0.105688 0.03523,-0.03523 0.08341,-0.06112 0.105687,-0.105685 0.07289,-0.14578 -0.127993,-0.09454 0.105687,-0.211376 0.03151,-0.01574 0.07418,0.01577 0.105687,0 0.04456,-0.02228 0.07046,-0.07046 0.105687,-0.105685 0.03523,-0.03523 0.08341,-0.06113 0.105687,-0.105687 0.01576,-0.03151 -0.01576,-0.07418 0,-0.105688 0.052,-0.103997 0.370748,-0.318749 0.422748,-0.422746 0.01576,-0.03151 -0.01576,-0.07418 0,-0.105688 0.06341,-0.126825 0.253649,-0.190238 0.317061,-0.317061 0.03151,-0.06302 -0.03151,-0.148354 0,-0.211375 0.04456,-0.08912 0.166812,-0.122251 0.211374,-0.211373 0.01576,-0.03151 0,-0.07046 0,-0.105688 0.03523,-0.03523 0.08341,-0.06112 0.105687,-0.105685 0.01576,-0.03151 -0.01576,-0.07418 0,-0.105688 0.04456,-0.08912 0.166813,-0.122251 0.211374,-0.211376 0.03209,-0.06418 -0.03209,-0.569944 0,-0.634121 0.02228,-0.04456 0.08341,-0.06112 0.105687,-0.105686 0.01576,-0.03151 -0.01576,-0.07418 0,-0.105687 0.02228,-0.04456 0.08341,-0.06113 0.105687,-0.105688 0.01576,-0.03151 -0.01576,-0.07418 0,-0.105688 0.02228,-0.04456 0.08341,-0.06112 0.105687,-0.105685 0.03151,-0.06302 -0.03151,-0.148355 0,-0.211376 0.02228,-0.04456 0.08341,-0.06112 0.105687,-0.105685 0.01576,-0.03151 -0.01114,-0.07227 0,-0.105688 0.04982,-0.149463 0.161553,-0.273285 0.211374,-0.422748 0.0248,-0.07441 0,-0.637755 0,-0.73981 0,-0.35229 0,-0.70458 0,-1.05687 0,-0.05527 -0.0139,-0.394957 0,-0.422749 0.02228,-0.04456 0.08341,-0.06112 0.105687,-0.105685 0.03151,-0.06302 -0.03151,-0.148354 0,-0.211375 0.02228,-0.04456 0.08341,-0.06112 0.105687,-0.105686 0.01608,-0.03216 0,-0.269464 0,-0.31706 0,-0.35229 0,-0.70458 0,-1.05687 0,-0.02511 -0.01184,-0.399061 0,-0.422749 0.02228,-0.04456 0.08341,-0.06113 0.105687,-0.105688 0.01389,-0.02779 0,-0.367482 0,-0.422748 0,-0.38752 0,-0.775036 0,-1.162556 0,-0.35229 0,-0.70458 0,-1.05687 0,-0.09954 -0.02004,-0.468315 0,-0.528436 0.01576,-0.04727 0.08341,-0.06112 0.105687,-0.105688 0.01389,-0.02779 0,-0.36748 0,-0.422746 0,-0.35229 0,-0.70458 0,-1.05687 0,-0.422749 0,-0.845498 0,-1.268246 0,-0.102397 -0.021,-0.571103 0,-0.634122 0.02491,-0.07473 0.08078,-0.136641 0.105687,-0.211373 0.01114,-0.03342 -0.01114,-0.07227 0,-0.105688 0.02491,-0.07473 0.08078,-0.136641 0.105687,-0.211372 0.01114,-0.03342 0,-0.07046 0,-0.105688 0,-0.07046 0,-0.140917 0,-0.211376 0,-0.281831 0,-0.563663 0,-0.845494 0,-0.176147 0,-0.352291 0,-0.528437 0,-0.06945 -0.01987,-0.257432 0,-0.317061 0.137197,-0.411588 0.105687,-0.0099 0.105687,-0.422746 0,-0.317063 0,-0.634124 0,-0.951185 0,-0.140914 -0.03418,-0.286038 0,-0.422748 0.01208,-0.04833 0.08341,-0.06112 0.105687,-0.105685 0.01576,-0.03151 0,-0.07046 0,-0.105688 0,-0.07046 -0.01709,-0.143021 0,-0.211373 0.01911,-0.07642 0.08078,-0.136644 0.105687,-0.211376 0.01114,-0.03342 0,-0.07046 0,-0.105685 0,-0.07046 0,-0.140917 0,-0.211376 0,-0.211373 0,-0.422748 0,-0.634121 0,-0.07046 -0.02228,-0.144531 0,-0.211373 0.02491,-0.07473 0.08078,-0.136644 0.105687,-0.211376 0.03356,-0.100679 -0.03431,-0.425489 0,-0.528434 0.02491,-0.07473 0.08078,-0.136644 0.105687,-0.211375 0.02217,-0.06652 0,-0.433171 0,-0.528434 0,-0.03523 -0.02491,-0.08078 0,-0.105688 0.0557,-0.0557 0.155673,-0.04998 0.211375,-0.105688 0.0034,-0.0034 0,-0.291427 0,-0.31706 0,-0.07351 -0.01911,-0.490215 0,-0.528435 0.02228,-0.04456 0.08341,-0.06113 0.105687,-0.105687 0.03352,-0.06704 -0.03433,-0.459778 0,-0.528435 0.02228,-0.04456 0.08341,-0.06113 0.105687,-0.105687 0.01575,-0.03151 -0.01576,-0.07418 0,-0.105687 0.02228,-0.04456 0.08341,-0.06113 0.105687,-0.105687 0.03334,-0.06668 -0.03334,-0.46176 0,-0.528435 0.02228,-0.04456 0.08341,-0.06112 0.105687,-0.105687 0.01576,-0.03151 -0.01576,-0.07418 0,-0.105687 0.02228,-0.04456 0.08341,-0.06113 0.105687,-0.105687 0.05635,-0.112693 -0.05635,-0.09868 0,-0.211374 0.02228,-0.04456 0.08341,-0.06113 0.105687,-0.105687 0.01576,-0.03151 -0.01576,-0.07418 0,-0.105687 0.02228,-0.04456 0.08341,-0.06113 0.105687,-0.105687 0.03151,-0.06302 -0.03151,-0.148355 0,-0.211374 0.02228,-0.04456 0.08341,-0.06112 0.105687,-0.105687 0.01576,-0.03151 -0.01576,-0.07418 0,-0.105687 0.350519,-0.35052 -0.04982,0.09964 0.105687,-0.211374 0.02228,-0.04456 0.08341,-0.06113 0.105687,-0.105687 0.01576,-0.03151 -0.01576,-0.07418 0,-0.105687 0.02228,-0.04456 0.08341,-0.06113 0.105687,-0.105687 0.03151,-0.06302 -0.03151,-0.148355 0,-0.211374 0.02228,-0.04456 0.08341,-0.06113 0.105687,-0.105687 0.03151,-0.06302 -0.03151,-0.148354 0,-0.211374 0.350519,-0.35052 -0.04982,0.09964 0.105687,-0.211374 0.02228,-0.04456 0.08341,-0.06113 0.105687,-0.105687 0.01576,-0.03151 -0.01576,-0.07418 0,-0.105687 0.02228,-0.04456 0.08341,-0.06113 0.105687,-0.105687 0.03321,-0.06643 -0.03321,-0.356322 0,-0.422748 0.04456,-0.08912 0.166812,-0.122251 0.211374,-0.211374 0.03151,-0.06302 -0.04982,-0.161553 0,-0.211374 0.02491,-0.02491 0.08078,0.02491 0.105687,0 0.02491,-0.02491 -0.02491,-0.08078 0,-0.105687 0.02491,-0.02491 0.08078,0.02491 0.105687,0 0.0371,-0.0371 -0.0365,-0.455434 0,-0.528435 0.219922,-0.439844 -0.0073,0.112983 0.211374,-0.105687 0.04982,-0.04982 -0.03151,-0.148355 0,-0.211374 0.219922,-0.439844 -0.0073,0.112983 0.211374,-0.105687 0.21867,-0.218671 -0.334157,0.0085 0.105687,-0.211374 0.14578,-0.07289 0.09453,0.127992 0.211374,-0.105687 0.07289,-0.145781 -0.127993,-0.09454 0.105687,-0.211374 0.06302,-0.03151 0.161552,0.04982 0.211374,0 0.02491,-0.02491 -0.02491,-0.08078 0,-0.105687 0.04982,-0.04982 0.148354,0.03151 0.211374,0 0.439844,-0.219923 -0.112983,0.0073 0.105687,-0.211375 0.02491,-0.02491 0.07418,0.01576 0.105687,0 0.04456,-0.02228 0.07046,-0.07046 0.105687,-0.105687 0.03523,-0.03523 0.07046,-0.07046 0.105687,-0.105687 0.03523,-0.03523 0.07046,-0.07046 0.105687,-0.105687 0.03523,-0.03523 0.06113,-0.08341 0.105687,-0.105687 0.03151,-0.01576 0.07418,0.01576 0.105687,0 0.168747,-0.08437 0.04263,-0.127 0.211374,-0.211374 0.02779,-0.0139 0.367482,0 0.422748,0 0.35229,0 0.70458,0 1.05687,0 0.528435,0 1.05687,0 1.585305,0 0.07491,0 0.606797,-0.01366 0.634123,0 0.04456,0.02228 0.06113,0.08341 0.105687,0.105687 0.03151,0.01576 0.07418,-0.01576 0.105686,0 0.04456,0.02228 0.06113,0.08341 0.105687,0.105687 0.06302,0.03151 0.148355,-0.03151 0.211373,0 0.04456,0.02228 0.06113,0.08341 0.105688,0.105687 0.03151,0.01576 0.07418,-0.01576 0.105688,0 0.126825,0.06341 0.190235,0.253649 0.317061,0.317061 0.06302,0.03151 0.148354,-0.03151 0.211373,0 0.04456,0.02228 0.06113,0.08341 0.105688,0.105688 0.03151,0.01576 0.08078,-0.02491 0.105687,0 0.0249,0.02491 -0.0249,0.08078 0,0.105687 0.0249,0.02491 0.07418,-0.01576 0.105685,0 0.126826,0.06341 0.190239,0.253648 0.317064,0.317061 0.03151,0.01576 0.08078,-0.02491 0.105685,0 0.0249,0.02491 -0.0249,0.08078 0,0.105687 0.0249,0.02491 0.07418,-0.01576 0.105688,0 0.126825,0.06341 0.190235,0.253648 0.317061,0.317061 0.03151,0.01576 0.07418,-0.01576 0.105687,0 0.02806,0.01403 0.30303,0.289 0.317061,0.317061 0.01574,0.03151 -0.0249,0.08078 0,0.105687 0.21867,0.21867 -0.0085,-0.334157 0.211373,0.105687 0,0.281832 -0.03523,-0.03523 0.105688,0.105687 0.04982,0.04982 -0.04982,0.161552 0,0.211374 0.0249,0.02491 0.08078,-0.02491 0.105688,0 0.04982,0.04982 -0.03151,0.148354 0,0.211374 0.02228,0.04456 0.0834,0.06113 0.105685,0.105687 0.03334,0.06667 -0.03334,0.46176 0,0.528435 0.02228,0.04456 0.08341,0.06112 0.105688,0.105687 0.01577,0.03151 -0.01574,0.07418 0,0.105687 0.02228,0.04456 0.08341,0.06113 0.105688,0.105687 0.05636,0.112732 -0.05637,0.09864 0,0.211374 0.02228,0.04456 0.0834,0.06113 0.105685,0.105687 0.03151,0.06302 -0.03151,0.148354 0,0.211374 0.04456,0.08912 0.156104,0.128466 0.211375,0.211374 0.162005,0.243006 0.04937,0.285429 0.211373,0.528435 0.05527,0.08291 0.179864,0.116845 0.211376,0.211374 0.02228,0.06684 -0.01709,0.14302 0,0.211374 0.127587,0.510357 0.05022,-0.0052 0.211373,0.317061 0.01577,0.03151 -0.01577,0.07418 0,0.105687 0.02228,0.04456 0.07805,0.06423 0.105688,0.105687 0.0437,0.06555 0.06199,0.14583 0.105685,0.211374 0.02764,0.04145 0.07805,0.06423 0.105688,0.105687 0.162004,0.243006 0.04937,0.285429 0.211375,0.528435 0.02764,0.04145 0.08341,0.06113 0.105686,0.105687 0.01577,0.03151 0,0.07046 0,0.105687 0.03523,0.07046 0.06199,0.14583 0.105687,0.211374 0.02764,0.04145 0.08993,0.05842 0.105688,0.105687 0.01611,0.04834 -0.02352,0.37572 0,0.422748 0.02228,0.04456 0.0834,0.06113 0.105685,0.105687 0.01577,0.03151 -0.01114,0.07227 0,0.105686 0.0249,0.07473 0.08078,0.136644 0.105688,0.211376 0.01114,0.03342 0,0.07046 0,0.105688 0.03523,0.07045 0.07046,0.140914 0.105688,0.211372 0.03523,0.07046 0.06199,0.145831 0.105685,0.211373 0.02764,0.04145 0.08994,0.05842 0.105688,0.105688 0.01611,0.04834 -0.02352,0.375719 0,0.422749 0.02228,0.04456 0.08993,0.05842 0.105688,0.105688 0.02228,0.06684 0,0.140914 0,0.211373 0,0.03523 -0.01577,0.07418 0,0.105687 0.04456,0.08912 0.166812,0.122251 0.211373,0.211373 0.01577,0.03151 0,0.07046 0,0.105688 0.03523,0.105685 0.04837,0.221533 0.105688,0.317061 0.05127,0.08544 0.156101,0.128466 0.211373,0.211373 0.03908,0.05863 -0.02228,0.144531 0,0.211376 0.0249,0.07473 0.08078,0.136641 0.105687,0.211373 0.01114,0.03342 -0.01577,0.07418 0,0.105687 0.02228,0.04456 0.08341,0.06112 0.105688,0.105686 0.04982,0.09964 0.07867,0.208983 0.105685,0.317063 0.0085,0.03418 -0.01574,0.07418 0,0.105685 0.02228,0.04456 0.08341,0.06113 0.105688,0.105688 0.01577,0.03151 -0.01577,0.07418 0,0.105688 0.02228,0.04456 0.08341,0.06112 0.105688,0.105685 0.01574,0.03151 0,0.07046 0,0.105688 0,0.07046 -0.02228,0.144531 0,0.211373 0.01574,0.04726 0.08993,0.05842 0.105685,0.105688 0.02228,0.06684 -0.02228,0.144531 0,0.211375 0.01577,0.04726 0.08993,0.05842 0.105688,0.105685 0.01611,0.04834 -0.02352,0.375722 0,0.422749 0.02228,0.04456 0.08341,0.06113 0.105688,0.105688 0.03151,0.06302 -0.02228,0.144531 0,0.211373 0.0249,0.07473 0.08078,0.136641 0.105688,0.211375 0.02966,0.08898 -0.03146,0.465511 0,0.528434 0.02228,0.04456 0.0834,0.06113 0.105685,0.105688 0.03151,0.06302 -0.03151,0.148354 0,0.211373 0.04456,0.08912 0.166814,0.122251 0.211375,0.211376 0.01574,0.03151 0,0.07046 0,0.105685 0.03523,0.03523 0.0834,0.06113 0.105686,0.105688 0.03151,0.06302 -0.03151,0.148354 0,0.211373 0.02228,0.04456 0.08341,0.06113 0.105687,0.105687 0.03151,0.06302 -0.03151,0.148355 0,0.211373 0.35052,0.35052 -0.04982,-0.09964 0.105688,0.211376 0.02228,0.04456 0.0834,0.06112 0.105685,0.105685 0.03149,0.06298 -0.02455,0.430239 0,0.528436 0.266957,1.067822 -0.03816,-0.07633 0.211376,0.422749 0.01574,0.03151 -0.01114,0.07227 0,0.105685 0.02492,0.07473 0.08078,0.136644 0.105688,0.211376 0.01114,0.03342 -0.01577,0.07418 0,0.105688 0.02228,0.04456 0.0834,0.06112 0.105685,0.105685 0.03151,0.06302 -0.03151,0.148354 0,0.211375 0.02228,0.04456 0.08993,0.05842 0.105688,0.105686 0.02228,0.06684 0,0.140917 0,0.211375 0,0.03523 -0.01577,0.07418 0,0.105685 0.02228,0.04456 0.08341,0.06113 0.105688,0.105688 0.01574,0.03151 0,0.07046 0,0.105688 0.03523,0.07046 0.06199,0.14583 0.105685,0.211373 0.02764,0.04145 0.08341,0.06113 0.105688,0.105688 0.03151,0.06302 -0.02228,0.144531 0,0.211373 0.07473,0.224197 0.242329,0.409927 0.31706,0.634124 0.03256,0.09768 -0.03286,0.42985 0,0.528434 0.0249,0.07473 0.08078,0.136641 0.105688,0.211373 0.01114,0.03342 -0.01114,0.07227 0,0.105688 0.0249,0.07473 0.08078,0.136641 0.105688,0.211375 0.01114,0.03342 -0.01577,0.07418 0,0.105685 0.02228,0.04456 0.0834,0.06113 0.105685,0.105688 0.0289,0.0578 -0.01799,0.245137 0,0.317061 0.02702,0.108077 0.07867,0.208984 0.105688,0.317061 0.0085,0.03418 -0.01577,0.07418 0,0.105688 0.02228,0.04456 0.08993,0.05842 0.105688,0.105687 0.02228,0.06684 -0.02228,0.144532 0,0.211373 0.01574,0.04727 0.0834,0.06112 0.105685,0.105688 0.01577,0.03151 0,0.07046 0,0.105685 0.03523,0.03523 0.08341,0.06113 0.105688,0.105688 0.01577,0.03151 0,0.07046 0,0.105688 0,0.07046 -0.02228,0.144531 0,0.211373 0.01577,0.04727 0.08341,0.06113 0.105687,0.105688 0.01574,0.03151 0,0.07046 0,0.105688 0,0.08261 -0.01926,0.682035 0,0.739806 0.0249,0.07473 0.08078,0.136644 0.105686,0.211376 0.02228,0.06684 -0.03151,0.148354 0,0.211373 0.02228,0.04456 0.08993,0.05842 0.105687,0.105688 0.02228,0.06684 0,0.140914 0,0.211373 0,0.03523 -0.01574,0.07418 0,0.105688 0.02228,0.04456 0.08993,0.05842 0.105688,0.105687 0.01611,0.04834 -0.02352,0.375719 0,0.422746 0.02228,0.04456 0.0834,0.06113 0.105688,0.105688 0.01574,0.03151 0,0.07046 0,0.105688 0.03523,0.03523 0.0834,0.06112 0.105685,0.105688 0.03151,0.06302 -0.02228,0.144531 0,0.211373 0.0249,0.07473 0.08078,0.136641 0.105688,0.211373 0.02424,0.0727 -0.03118,0.254703 0,0.31706 0.02228,0.04456 0.08341,0.06113 0.105688,0.105688 0.04228,0.08455 -0.04227,0.232513 0,0.317061 0.04456,0.08912 0.166812,0.122251 0.211373,0.211376 0.03151,0.06302 -0.03151,0.148354 0,0.211373 0.35052,0.35052 -0.04982,-0.09964 0.105688,0.211373 0.02228,0.04456 0.0834,0.06113 0.105685,0.105687 0.01577,0.03151 -0.01574,0.07418 0,0.105688 0.06341,0.126823 0.253651,0.190236 0.317063,0.317061 0.01574,0.03151 -0.01577,0.07418 0,0.105688 0.02228,0.04456 0.0834,0.06112 0.105685,0.105685 0.01577,0.03151 0,0.07046 0,0.105688 0.03523,0.03523 0.08341,0.06113 0.105688,0.105688 0.03151,0.06302 -0.03151,0.148354 0,0.211373 0.06341,0.126825 0.253648,0.190238 0.317061,0.31706 0.155509,0.311018 -0.244832,-0.139144 0.105688,0.211376 0.03523,0.03523 0.07046,0.07046 0.105685,0.105685 0.03523,0.03523 0.08341,0.06113 0.105688,0.105688 0.01577,0.03151 -0.01574,0.07418 0,0.105688 0.02228,0.04456 0.08341,0.06112 0.105688,0.105685 0.04228,0.08455 -0.04227,0.232513 0,0.317063 0.04456,0.08912 0.166811,0.122251 0.211373,0.211373 0.01577,0.03151 0,0.07046 0,0.105688 0.03523,0.03523 0.08341,0.06112 0.105687,0.105685 0.03151,0.06302 -0.03151,0.148355 0,0.211376 0.02228,0.04456 0.08341,0.06112 0.105688,0.105685 0.01574,0.03151 -0.01577,0.07418 0,0.105688 0.02228,0.04456 0.08341,0.06113 0.105685,0.105688 0.03151,0.06302 -0.03151,0.148354 0,0.211373 0.02228,0.04456 0.08341,0.06113 0.105688,0.105688 0.03151,0.06302 -0.03151,0.148354 0,0.211373 0.35052,0.35052 -0.04982,-0.09964 0.105688,0.211375 0.02228,0.04456 0.0834,0.06112 0.105685,0.105685 0.03151,0.06302 -0.03151,0.148355 0,0.211376 0.02228,0.04456 0.08341,0.06112 0.105688,0.105688 0.03151,0.06302 -0.03151,0.148352 0,0.211373 0.06341,0.126825 0.253648,0.190235 0.317061,0.317061 0.01577,0.03151 -0.01574,0.07418 0,0.105687 0.02228,0.04456 0.08341,0.06112 0.105688,0.105685 0.01577,0.03151 -0.01577,0.07418 0,0.105688 0.02228,0.04456 0.08341,0.06113 0.105687,0.105688 0.01574,0.03151 -0.01577,0.07418 0,0.105685 0.06341,0.126826 0.253649,0.190238 0.317061,0.317064 0.01574,0.03151 -0.01577,0.07418 0,0.105685 0.02822,0.05645 0.261419,0.261421 0.317061,0.317061 0.176144,0.176146 0.35229,0.35229 0.528434,0.528436 0.07046,0.07046 0.131662,0.151588 0.211375,0.211373 0.06302,0.04727 0.145828,0.06199 0.211373,0.105688 0.09621,0.06414 0.223388,0.270224 0.317061,0.317061 0.06302,0.03151 0.148355,-0.03151 0.211376,0 0.04456,0.02228 0.06112,0.08341 0.105685,0.105687 0.03151,0.01574 0.08078,-0.0249 0.105688,0 0.02492,0.02492 -0.0249,0.08078 0,0.105686 0.02492,0.02492 0.07418,-0.01574 0.105688,0 0.126822,0.06341 0.190235,0.25365 0.31706,0.317063 0.14578,0.07289 0.09453,-0.127995 0.211373,0.105685 0.01577,0.03151 -0.01574,0.07418 0,0.105688 0.01402,0.02806 0.289002,0.30303 0.317061,0.317061 0.03151,0.01577 0.08078,-0.0249 0.105688,0 0.02492,0.02492 -0.0249,0.08078 0,0.105688 0.02492,0.02492 0.08078,-0.0249 0.105688,0 0.02492,0.02492 -0.02492,0.08077 0,0.105685 0.02492,0.02492 0.08077,-0.0249 0.105685,0 0.21867,0.21867 -0.334156,-0.0085 0.105688,0.211375 0.03151,0.01574 0.08078,-0.0249 0.105688,0 0.02892,0.02892 -0.02867,0.365414 0,0.422749 0.02228,0.04456 0.0834,0.06112 0.105685,0.105685 0.04227,0.08455 -0.04227,0.232513 0,0.317061 0.02228,0.04456 0.08341,0.06113 0.105687,0.105688 0.04228,0.08455 -0.04227,0.23251 0,0.317061 0.35052,0.35052 -0.04982,-0.09964 0.105688,0.211375 0.06341,0.126823 0.253648,0.190236 0.317061,0.317061 0.01577,0.03151 -0.01577,0.07418 0,0.105685 0.01402,0.02806 0.288999,0.303033 0.317061,0.317064 0.03151,0.01574 0.07418,-0.01577 0.105688,0 0.08912,0.04456 0.12225,0.166811 0.211373,0.211373 0.06643,0.03321 0.356322,-0.03321 0.422748,0 0.08912,0.04456 0.122251,0.166811 0.211373,0.211373 0.06302,0.03151 0.144532,-0.02228 0.211376,0 0.07473,0.0249 0.136641,0.08078 0.211373,0.105687 0.07269,0.02424 0.254704,-0.03118 0.317061,0 0.04456,0.02228 0.06113,0.08341 0.105687,0.105688 0.03151,0.01574 0.07418,-0.01577 0.105688,0 0.04456,0.02228 0.06112,0.0834 0.105685,0.105685 0.06667,0.03334 0.461762,-0.03334 0.528437,0 0.04456,0.02228 0.06112,0.08341 0.105688,0.105688 0.03151,0.01574 0.07046,0 0.105685,0 0.03523,0 0.07046,0 0.105688,0 0.0476,0 0.284895,-0.01609 0.31706,0 0.35052,0.35052 -0.09964,-0.04982 0.211373,0.105688 0.04456,0.02228 0.06113,0.08341 0.105688,0.105688 0.08455,0.04227 0.232511,-0.04227 0.317061,0 0.04456,0.02228 0.05842,0.08993 0.105688,0.105685 0.06684,0.02228 0.140917,0 0.211373,0 0.03523,0 0.07418,-0.01574 0.105688,0 0.04456,0.02228 0.06113,0.08341 0.105687,0.105688 0.06302,0.03151 0.148355,-0.03151 0.211373,0 0.04456,0.02228 0.06113,0.08341 0.105688,0.105688 0.06643,0.03321 0.35632,-0.03321 0.422749,0 0.04456,0.02228 0.06112,0.0834 0.105685,0.105685 0.06302,0.03151 0.148354,-0.03151 0.211376,0 0.04456,0.02228 0.06112,0.08341 0.105685,0.105688 0.06564,0.03282 0.566401,-0.03386 0.634124,0 0.04456,0.02228 0.06112,0.08341 0.105685,0.105687 0.08455,0.04228 0.232513,-0.04227 0.317061,0 0.04456,0.02228 0.06113,0.0834 0.105688,0.105685 0.03151,0.01577 0.07418,-0.01574 0.105688,0 0.04456,0.02228 0.06112,0.08341 0.105685,0.105688 0.08455,0.04227 0.232513,-0.04227 0.317063,0 0.04456,0.02228 0.06112,0.08341 0.105685,0.105688 0.03151,0.01574 0.07418,-0.01577 0.105688,0 0.04456,0.02228 0.06112,0.0834 0.105688,0.105688 0.08455,0.04227 0.23251,-0.04228 0.317061,0 0.04456,0.02228 0.06112,0.0834 0.105685,0.105685 0.03151,0.01577 0.07418,-0.01574 0.105688,0 0.04456,0.02228 0.06113,0.08341 0.105687,0.105688 0.06418,0.03209 0.569947,-0.03209 0.634122,0 0.04456,0.02228 0.06113,0.08341 0.105688,0.105688 0.02779,0.01389 0.367482,0 0.422748,0 0.317061,0 0.634122,0 0.951183,0 0.281831,0 0.563663,0 0.845494,0 0.0476,0 0.284898,0.01609 0.317064,0 0.08912,-0.04456 0.122251,-0.166815 0.211373,-0.211376 0.06643,-0.03321 0.356322,0.03321 0.422748,0 0.04456,-0.02228 0.06112,-0.0834 0.105686,-0.105685 0.03216,-0.01609 0.269464,0 0.31706,0 0.211376,0 0.422749,0 0.634125,0 0.528433,0 1.05687,0 1.585303,0 5.636641,0 11.273282,0 16.909923,0 3.699045,0 7.398092,0 11.097136,0 1.162558,0 2.325116,0 3.487671,0 0.387519,0 0.775039,0 1.162558,0 0.08653,0 0.45996,-0.02283 0.528436,0 0.07473,0.02492 0.134128,0.09024 0.211373,0.105685 0.103635,0.02072 0.211373,0 0.317061,0 0.176147,0 0.35229,0 0.528437,0 0.09445,0 0.494755,-0.01683 0.528433,0 0.04456,0.02228 0.06113,0.08341 0.105688,0.105688 0.03368,0.01683 0.43398,0 0.528434,0 0.387519,0 0.775039,0 1.162558,0 1.05687,0 2.11374,0 3.170609,0 1.02165,0 2.04329,0 3.06493,0 0.35229,0 0.70458,0 1.05687,0 0.0895,0 0.36593,0.01894 0.42275,0 0.0473,-0.01577 0.0611,-0.08341 0.10568,-0.105688 0.0315,-0.01574 0.0705,0 0.10569,0 0.0352,0 0.0742,0.01577 0.10569,0 0.0446,-0.02228 0.0584,-0.08993 0.10568,-0.105685 0.10027,-0.03342 0.21138,0 0.31707,0 0.35229,0 0.70458,0 1.05687,0 0.0704,0 0.14091,0 0.21137,0 0.0705,0 0.14453,0.02228 0.21137,0 0.0473,-0.01577 0.0611,-0.08341 0.10569,-0.105688 0.0315,-0.01577 0.0705,0 0.10569,0 0.0705,0 0.14091,0 0.21137,0 0.17615,0 0.35229,0 0.52844,0 0.70458,0 1.40916,0 2.11374,0 0.45797,0 0.91595,0 1.37393,0 0.0735,0 0.49021,0.0191 0.52843,0 0.0446,-0.02228 0.0611,-0.08341 0.10569,-0.105688 0.0315,-0.01577 0.0705,0 0.10569,0 0.0705,0 0.14091,0 0.21137,0 0.17615,0 0.35229,0 0.52844,0 0.45797,0 0.91595,0 1.37393,0 1.51485,0 3.02969,0 4.54454,0 3.38198,0 6.76397,0 10.14595,0 1.05687,0 2.11374,0 3.17061,0 0.35229,0 0.70458,0 1.05687,0 0.10569,0 0.21138,0 0.31706,0 0.0705,0 0.14302,-0.01709 0.21138,0 0.0764,0.0191 0.13413,0.09024 0.21137,0.105688 0.10364,0.02072 0.21138,0 0.31706,0 0.31706,0 0.63412,0 0.95119,0"
       id="path1858"
       inkscape:connector-curvature="0" />
  </g>
</svg>
