<?xml version="1.0" encoding="UTF-8" standalone="no"?>
<!-- Created with Inkscape (http://www.inkscape.org/) -->

<svg
   xmlns:dc="http://purl.org/dc/elements/1.1/"
   xmlns:cc="http://creativecommons.org/ns#"
   xmlns:rdf="http://www.w3.org/1999/02/22-rdf-syntax-ns#"
   xmlns:svg="http://www.w3.org/2000/svg"
   xmlns="http://www.w3.org/2000/svg"
   xmlns:xlink="http://www.w3.org/1999/xlink"
   xmlns:sodipodi="http://sodipodi.sourceforge.net/DTD/sodipodi-0.dtd"
   xmlns:inkscape="http://www.inkscape.org/namespaces/inkscape"
   width="143.61395mm"
   height="56.239777mm"
   viewBox="0 0 143.61395 56.239777"
   version="1.1"
   id="svg8"
   inkscape:version="0.92.4 (5da689c313, 2019-01-14)"
   sodipodi:docname="nondispersive.svg">
  <defs
     id="defs2">
    <pattern
       inkscape:collect="always"
       xlink:href="#Strips1_1white"
       id="pattern2793"
       patternTransform="matrix(1.4905904,0.82722672,-3.184362,5.7379426,0,0)" />
    <pattern
       inkscape:isstock="true"
       inkscape:stockid="Stripes 1:1 white"
       id="Strips1_1white"
       patternTransform="translate(0,0) scale(10,10)"
       height="1"
       width="2"
       patternUnits="userSpaceOnUse"
       inkscape:collect="always">
      <rect
         id="rect2074"
         height="2"
         width="1"
         y="-0.5"
         x="0"
         style="fill:white;stroke:none" />
    </pattern>
    <marker
       inkscape:stockid="Arrow1Lstart"
       orient="auto"
       refY="0"
       refX="0"
       id="Arrow1Lstart"
       style="overflow:visible"
       inkscape:isstock="true">
      <path
         id="path1544"
         d="M 0,0 5,-5 -12.5,0 5,5 Z"
         style="fill:#000000;fill-opacity:1;fill-rule:evenodd;stroke:#000000;stroke-width:1.00000003pt;stroke-opacity:1"
         transform="matrix(0.8,0,0,0.8,10,0)"
         inkscape:connector-curvature="0" />
    </marker>
    <marker
       inkscape:stockid="Arrow1Lend"
       orient="auto"
       refY="0"
       refX="0"
       id="Arrow1Lend"
       style="overflow:visible"
       inkscape:isstock="true">
      <path
         id="path1547"
         d="M 0,0 5,-5 -12.5,0 5,5 Z"
         style="fill:#000000;fill-opacity:1;fill-rule:evenodd;stroke:#000000;stroke-width:1.00000003pt;stroke-opacity:1"
         transform="matrix(-0.8,0,0,-0.8,-10,0)"
         inkscape:connector-curvature="0" />
    </marker>
    <pattern
       patternUnits="userSpaceOnUse"
       width="96.540616"
       height="85.071816"
       patternTransform="matrix(0.26458333,0,0,0.26458333,24.260375,8.2391875)"
       id="pattern817">
      <path
         inkscape:connector-curvature="0"
         id="path815"
         d="M 1.1643843,48.846979 45.06049,0.73009731 95.709841,53.067759 34.086462,84.301525 29.865686,48.002825 Z"
         style="fill:#c87137;stroke:#000000;stroke-width:0.99999994px;stroke-linecap:butt;stroke-linejoin:miter;stroke-opacity:1" />
    </pattern>
  </defs>
  <sodipodi:namedview
     id="base"
     pagecolor="#ffffff"
     bordercolor="#666666"
     borderopacity="1.0"
     inkscape:pageopacity="0.0"
     inkscape:pageshadow="2"
     inkscape:zoom="1.7702143"
     inkscape:cx="416.99175"
     inkscape:cy="33.306595"
     inkscape:document-units="mm"
     inkscape:current-layer="layer1"
     showgrid="false"
     inkscape:snap-global="false"
     inkscape:window-width="2490"
     inkscape:window-height="1016"
     inkscape:window-x="70"
     inkscape:window-y="27"
     inkscape:window-maximized="1"
     fit-margin-top="0"
     fit-margin-left="0"
     fit-margin-right="0"
     fit-margin-bottom="0" />
  <metadata
     id="metadata5">
    <rdf:RDF>
      <cc:Work
         rdf:about="">
        <dc:format>image/svg+xml</dc:format>
        <dc:type
           rdf:resource="http://purl.org/dc/dcmitype/StillImage" />
        <dc:title></dc:title>
      </cc:Work>
    </rdf:RDF>
  </metadata>
  <g
     inkscape:label="Layer 1"
     inkscape:groupmode="layer"
     id="layer1"
     transform="translate(-3.4884032,-9.3339181)">
    <path
       inkscape:connector-curvature="0"
       id="path2069"
       d="m 13.634357,59.626963 c 0,0 0.09203,-6.419582 0.105687,-6.446908 0.02228,-0.04456 0.08341,-0.06113 0.105687,-0.105688 0.04228,-0.08455 -0.04228,-0.23251 0,-0.31706 0.02228,-0.04456 0.08341,-0.06112 0.105687,-0.105688 0.04228,-0.08455 -0.04228,-0.232511 0,-0.317061 0.02228,-0.04456 0.08341,-0.06112 0.105687,-0.105685 0.02867,-0.05733 -0.02892,-0.39383 0,-0.422749 0.02491,-0.02492 0.08078,0.0249 0.105687,0 0.02491,-0.02492 0,-0.07046 0,-0.105688 0.03523,0 0.08078,0.0249 0.105687,0 0.05284,-0.05284 -0.05284,-0.264218 0,-0.31706 0.02491,-0.02492 0.08078,0.0249 0.105687,0 0.02491,-0.02492 -0.01576,-0.07418 0,-0.105688 0.02228,-0.04456 0.07046,-0.07046 0.105687,-0.105685 0.03523,-0.03523 0.06113,-0.08341 0.105687,-0.105688 0.03151,-0.01577 0.08078,0.0249 0.105687,0 0.02491,-0.02492 -0.02491,-0.08078 0,-0.105688 0.02491,-0.02492 0.07418,0.01577 0.105687,0 0.04456,-0.02228 0.07046,-0.07046 0.105687,-0.105688 0.03523,-0.03523 0.08341,-0.06112 0.105687,-0.105685 0.07289,-0.14578 -0.127993,-0.09454 0.105687,-0.211376 0.03151,-0.01574 0.07418,0.01577 0.105687,0 0.04456,-0.02228 0.07046,-0.07046 0.105687,-0.105685 0.03523,-0.03523 0.08341,-0.06113 0.105687,-0.105687 0.01576,-0.03151 -0.01576,-0.07418 0,-0.105688 0.052,-0.103997 0.370748,-0.318749 0.422748,-0.422746 0.01576,-0.03151 -0.01576,-0.07418 0,-0.105688 0.06341,-0.126825 0.253649,-0.190238 0.317061,-0.317061 0.03151,-0.06302 -0.03151,-0.148354 0,-0.211375 0.04456,-0.08912 0.166812,-0.122251 0.211374,-0.211373 0.01576,-0.03151 0,-0.07046 0,-0.105688 0.03523,-0.03523 0.08341,-0.06112 0.105687,-0.105685 0.01576,-0.03151 -0.01576,-0.07418 0,-0.105688 0.04456,-0.08912 0.166813,-0.122251 0.211374,-0.211376 0.03209,-0.06418 -0.03209,-0.569944 0,-0.634121 0.02228,-0.04456 0.08341,-0.06112 0.105687,-0.105686 0.01576,-0.03151 -0.01576,-0.07418 0,-0.105687 0.02228,-0.04456 0.08341,-0.06113 0.105687,-0.105688 0.01576,-0.03151 -0.01576,-0.07418 0,-0.105688 0.02228,-0.04456 0.08341,-0.06112 0.105687,-0.105685 0.03151,-0.06302 -0.03151,-0.148355 0,-0.211376 0.02228,-0.04456 0.08341,-0.06112 0.105687,-0.105685 0.01576,-0.03151 -0.01114,-0.07227 0,-0.105688 0.04982,-0.149463 0.161553,-0.273285 0.211374,-0.422748 0.0248,-0.07441 0,-0.637755 0,-0.73981 v -1.05687 c 0,-0.05527 -0.0139,-0.394957 0,-0.422749 0.02228,-0.04456 0.08341,-0.06112 0.105687,-0.105685 0.03151,-0.06302 -0.03151,-0.148354 0,-0.211375 0.02228,-0.04456 0.08341,-0.06112 0.105687,-0.105686 0.01608,-0.03216 0,-0.269464 0,-0.31706 v -1.05687 c 0,-0.02511 -0.01184,-0.399061 0,-0.422749 0.02228,-0.04456 0.08341,-0.06113 0.105687,-0.105688 0.01389,-0.02779 0,-0.367482 0,-0.422748 V 40.28624 39.22937 c 0,-0.09954 -0.02004,-0.468315 0,-0.528436 0.01576,-0.04727 0.08341,-0.06112 0.105687,-0.105688 0.01389,-0.02779 0,-0.36748 0,-0.422746 v -1.05687 -1.268246 c 0,-0.102397 -0.021,-0.571103 0,-0.634122 0.02491,-0.07473 0.08078,-0.136641 0.105687,-0.211373 0.01114,-0.03342 -0.01114,-0.07227 0,-0.105688 0.02491,-0.07473 0.08078,-0.136641 0.105687,-0.211372 0.01114,-0.03342 0,-0.07046 0,-0.105688 v -0.211376 -0.845494 -0.528437 c 0,-0.06945 -0.01987,-0.257432 0,-0.317061 0.137197,-0.411588 0.105687,-0.0099 0.105687,-0.422746 v -0.951185 c 0,-0.140914 -0.03418,-0.286038 0,-0.422748 0.01208,-0.04833 0.08341,-0.06112 0.105687,-0.105685 0.01576,-0.03151 0,-0.07046 0,-0.105688 0,-0.07046 -0.01709,-0.143021 0,-0.211373 0.01911,-0.07642 0.08078,-0.136644 0.105687,-0.211376 0.01114,-0.03342 0,-0.07046 0,-0.105685 V 29.928911 29.29479 c 0,-0.07046 -0.02228,-0.144531 0,-0.211373 0.02491,-0.07473 0.08078,-0.136644 0.105687,-0.211376 0.03356,-0.100679 -0.03431,-0.425489 0,-0.528434 0.02491,-0.07473 0.08078,-0.136644 0.105687,-0.211375 0.02217,-0.06652 0,-0.433171 0,-0.528434 0,-0.03523 -0.02491,-0.08078 0,-0.105688 0.0557,-0.0557 0.155673,-0.04998 0.211375,-0.105688 0.0034,-0.0034 0,-0.291427 0,-0.31706 0,-0.07351 -0.01911,-0.490215 0,-0.528435 0.02228,-0.04456 0.08341,-0.06113 0.105687,-0.105687 0.03352,-0.06704 -0.03433,-0.459778 0,-0.528435 0.02228,-0.04456 0.08341,-0.06113 0.105687,-0.105687 0.01575,-0.03151 -0.01576,-0.07418 0,-0.105687 0.02228,-0.04456 0.08341,-0.06113 0.105687,-0.105687 0.03334,-0.06668 -0.03334,-0.46176 0,-0.528435 0.02228,-0.04456 0.08341,-0.06112 0.105687,-0.105687 0.01576,-0.03151 -0.01576,-0.07418 0,-0.105687 0.02228,-0.04456 0.08341,-0.06113 0.105687,-0.105687 0.05635,-0.112693 -0.05635,-0.09868 0,-0.211374 0.02228,-0.04456 0.08341,-0.06113 0.105687,-0.105687 0.01576,-0.03151 -0.01576,-0.07418 0,-0.105687 0.02228,-0.04456 0.08341,-0.06113 0.105687,-0.105687 0.03151,-0.06302 -0.03151,-0.148355 0,-0.211374 0.02228,-0.04456 0.08341,-0.06112 0.105687,-0.105687 0.01576,-0.03151 -0.01576,-0.07418 0,-0.105687 0.350519,-0.35052 -0.04982,0.09964 0.105687,-0.211374 0.02228,-0.04456 0.08341,-0.06113 0.105687,-0.105687 0.01576,-0.03151 -0.01576,-0.07418 0,-0.105687 0.02228,-0.04456 0.08341,-0.06113 0.105687,-0.105687 0.03151,-0.06302 -0.03151,-0.148355 0,-0.211374 0.02228,-0.04456 0.08341,-0.06113 0.105687,-0.105687 0.03151,-0.06302 -0.03151,-0.148354 0,-0.211374 0.350519,-0.35052 -0.04982,0.09964 0.105687,-0.211374 0.02228,-0.04456 0.08341,-0.06113 0.105687,-0.105687 0.01576,-0.03151 -0.01576,-0.07418 0,-0.105687 0.02228,-0.04456 0.08341,-0.06113 0.105687,-0.105687 0.03321,-0.06643 -0.03321,-0.356322 0,-0.422748 0.04456,-0.08912 0.166812,-0.122251 0.211374,-0.211374 0.03151,-0.06302 -0.04982,-0.161553 0,-0.211374 0.02491,-0.02491 0.08078,0.02491 0.105687,0 0.02491,-0.02491 -0.02491,-0.08078 0,-0.105687 0.02491,-0.02491 0.08078,0.02491 0.105687,0 0.0371,-0.0371 -0.0365,-0.455434 0,-0.528435 0.219922,-0.439844 -0.0073,0.112983 0.211374,-0.105687 0.04982,-0.04982 -0.03151,-0.148355 0,-0.211374 0.219922,-0.439844 -0.0073,0.112983 0.211374,-0.105687 0.21867,-0.218671 -0.334157,0.0085 0.105687,-0.211374 0.14578,-0.07289 0.09453,0.127992 0.211374,-0.105687 0.07289,-0.145781 -0.127993,-0.09454 0.105687,-0.211374 0.06302,-0.03151 0.161552,0.04982 0.211374,0 0.02491,-0.02491 -0.02491,-0.08078 0,-0.105687 0.04982,-0.04982 0.148354,0.03151 0.211374,0 0.439844,-0.219923 -0.112983,0.0073 0.105687,-0.211375 0.02491,-0.02491 0.07418,0.01576 0.105687,0 0.04456,-0.02228 0.07046,-0.07046 0.105687,-0.105687 l 0.105687,-0.105687 0.105687,-0.105687 c 0.03523,-0.03523 0.06113,-0.08341 0.105687,-0.105687 0.03151,-0.01576 0.07418,0.01576 0.105687,0 0.168747,-0.08437 0.04263,-0.127 0.211374,-0.211374 0.02779,-0.0139 0.367482,0 0.422748,0 h 1.05687 1.585305 c 0.07491,0 0.606797,-0.01366 0.634123,0 0.04456,0.02228 0.06113,0.08341 0.105687,0.105687 0.03151,0.01576 0.07418,-0.01576 0.105686,0 0.04456,0.02228 0.06113,0.08341 0.105687,0.105687 0.06302,0.03151 0.148355,-0.03151 0.211373,0 0.04456,0.02228 0.06113,0.08341 0.105688,0.105687 0.03151,0.01576 0.07418,-0.01576 0.105688,0 0.126825,0.06341 0.190235,0.253649 0.317061,0.317061 0.06302,0.03151 0.148354,-0.03151 0.211373,0 0.04456,0.02228 0.06113,0.08341 0.105688,0.105688 0.03151,0.01576 0.08078,-0.02491 0.105687,0 0.0249,0.02491 -0.0249,0.08078 0,0.105687 0.0249,0.02491 0.07418,-0.01576 0.105685,0 0.126826,0.06341 0.190239,0.253648 0.317064,0.317061 0.03151,0.01576 0.08078,-0.02491 0.105685,0 0.0249,0.02491 -0.0249,0.08078 0,0.105687 0.0249,0.02491 0.07418,-0.01576 0.105688,0 0.126825,0.06341 0.190235,0.253648 0.317061,0.317061 0.03151,0.01576 0.07418,-0.01576 0.105687,0 0.02806,0.01403 0.30303,0.289 0.317061,0.317061 0.01574,0.03151 -0.0249,0.08078 0,0.105687 0.21867,0.21867 -0.0085,-0.334157 0.211373,0.105687 0,0.281832 -0.03523,-0.03523 0.105688,0.105687 0.04982,0.04982 -0.04982,0.161552 0,0.211374 0.0249,0.02491 0.08078,-0.02491 0.105688,0 0.04982,0.04982 -0.03151,0.148354 0,0.211374 0.02228,0.04456 0.0834,0.06113 0.105685,0.105687 0.03334,0.06667 -0.03334,0.46176 0,0.528435 0.02228,0.04456 0.08341,0.06112 0.105688,0.105687 0.01577,0.03151 -0.01574,0.07418 0,0.105687 0.02228,0.04456 0.08341,0.06113 0.105688,0.105687 0.05636,0.112732 -0.05637,0.09864 0,0.211374 0.02228,0.04456 0.0834,0.06113 0.105685,0.105687 0.03151,0.06302 -0.03151,0.148354 0,0.211374 0.04456,0.08912 0.156104,0.128466 0.211375,0.211374 0.162005,0.243006 0.04937,0.285429 0.211373,0.528435 0.05527,0.08291 0.179864,0.116845 0.211376,0.211374 0.02228,0.06684 -0.01709,0.14302 0,0.211374 0.127587,0.510357 0.05022,-0.0052 0.211373,0.317061 0.01577,0.03151 -0.01577,0.07418 0,0.105687 0.02228,0.04456 0.07805,0.06423 0.105688,0.105687 0.0437,0.06555 0.06199,0.14583 0.105685,0.211374 0.02764,0.04145 0.07805,0.06423 0.105688,0.105687 0.162004,0.243006 0.04937,0.285429 0.211375,0.528435 0.02764,0.04145 0.08341,0.06113 0.105686,0.105687 0.01577,0.03151 0,0.07046 0,0.105687 0.03523,0.07046 0.06199,0.14583 0.105687,0.211374 0.02764,0.04145 0.08993,0.05842 0.105688,0.105687 0.01611,0.04834 -0.02352,0.37572 0,0.422748 0.02228,0.04456 0.0834,0.06113 0.105685,0.105687 0.01577,0.03151 -0.01114,0.07227 0,0.105686 0.0249,0.07473 0.08078,0.136644 0.105688,0.211376 0.01114,0.03342 0,0.07046 0,0.105688 0.03523,0.07045 0.07046,0.140914 0.105688,0.211372 0.03523,0.07046 0.06199,0.145831 0.105685,0.211373 0.02764,0.04145 0.08994,0.05842 0.105688,0.105688 0.01611,0.04834 -0.02352,0.375719 0,0.422749 0.02228,0.04456 0.08993,0.05842 0.105688,0.105688 0.02228,0.06684 0,0.140914 0,0.211373 0,0.03523 -0.01577,0.07418 0,0.105687 0.04456,0.08912 0.166812,0.122251 0.211373,0.211373 0.01577,0.03151 0,0.07046 0,0.105688 0.03523,0.105685 0.04837,0.221533 0.105688,0.317061 0.05127,0.08544 0.156101,0.128466 0.211373,0.211373 0.03908,0.05863 -0.02228,0.144531 0,0.211376 0.0249,0.07473 0.08078,0.136641 0.105687,0.211373 0.01114,0.03342 -0.01577,0.07418 0,0.105687 0.02228,0.04456 0.08341,0.06112 0.105688,0.105686 0.04982,0.09964 0.07867,0.208983 0.105685,0.317063 0.0085,0.03418 -0.01574,0.07418 0,0.105685 0.02228,0.04456 0.08341,0.06113 0.105688,0.105688 0.01577,0.03151 -0.01577,0.07418 0,0.105688 0.02228,0.04456 0.08341,0.06112 0.105688,0.105685 0.01574,0.03151 0,0.07046 0,0.105688 0,0.07046 -0.02228,0.144531 0,0.211373 0.01574,0.04726 0.08993,0.05842 0.105685,0.105688 0.02228,0.06684 -0.02228,0.144531 0,0.211375 0.01577,0.04726 0.08993,0.05842 0.105688,0.105685 0.01611,0.04834 -0.02352,0.375722 0,0.422749 0.02228,0.04456 0.08341,0.06113 0.105688,0.105688 0.03151,0.06302 -0.02228,0.144531 0,0.211373 0.0249,0.07473 0.08078,0.136641 0.105688,0.211375 0.02966,0.08898 -0.03146,0.465511 0,0.528434 0.02228,0.04456 0.0834,0.06113 0.105685,0.105688 0.03151,0.06302 -0.03151,0.148354 0,0.211373 0.04456,0.08912 0.166814,0.122251 0.211375,0.211376 0.01574,0.03151 0,0.07046 0,0.105685 0.03523,0.03523 0.0834,0.06113 0.105686,0.105688 0.03151,0.06302 -0.03151,0.148354 0,0.211373 0.02228,0.04456 0.08341,0.06113 0.105687,0.105687 0.03151,0.06302 -0.03151,0.148355 0,0.211373 0.35052,0.35052 -0.04982,-0.09964 0.105688,0.211376 0.02228,0.04456 0.0834,0.06112 0.105685,0.105685 0.03149,0.06298 -0.02455,0.430239 0,0.528436 0.266957,1.067822 -0.03816,-0.07633 0.211376,0.422749 0.01574,0.03151 -0.01114,0.07227 0,0.105685 0.02492,0.07473 0.08078,0.136644 0.105688,0.211376 0.01114,0.03342 -0.01577,0.07418 0,0.105688 0.02228,0.04456 0.0834,0.06112 0.105685,0.105685 0.03151,0.06302 -0.03151,0.148354 0,0.211375 0.02228,0.04456 0.08993,0.05842 0.105688,0.105686 0.02228,0.06684 0,0.140917 0,0.211375 0,0.03523 -0.01577,0.07418 0,0.105685 0.02228,0.04456 0.08341,0.06113 0.105688,0.105688 0.01574,0.03151 0,0.07046 0,0.105688 0.03523,0.07046 0.06199,0.14583 0.105685,0.211373 0.02764,0.04145 0.08341,0.06113 0.105688,0.105688 0.03151,0.06302 -0.02228,0.144531 0,0.211373 0.07473,0.224197 0.242329,0.409927 0.31706,0.634124 0.03256,0.09768 -0.03286,0.42985 0,0.528434 0.0249,0.07473 0.08078,0.136641 0.105688,0.211373 0.01114,0.03342 -0.01114,0.07227 0,0.105688 0.0249,0.07473 0.08078,0.136641 0.105688,0.211375 0.01114,0.03342 -0.01577,0.07418 0,0.105685 0.02228,0.04456 0.0834,0.06113 0.105685,0.105688 0.0289,0.0578 -0.01799,0.245137 0,0.317061 0.02702,0.108077 0.07867,0.208984 0.105688,0.317061 0.0085,0.03418 -0.01577,0.07418 0,0.105688 0.02228,0.04456 0.08993,0.05842 0.105688,0.105687 0.02228,0.06684 -0.02228,0.144532 0,0.211373 0.01574,0.04727 0.0834,0.06112 0.105685,0.105688 0.01577,0.03151 0,0.07046 0,0.105685 0.03523,0.03523 0.08341,0.06113 0.105688,0.105688 0.01577,0.03151 0,0.07046 0,0.105688 0,0.07046 -0.02228,0.144531 0,0.211373 0.01577,0.04727 0.08341,0.06113 0.105687,0.105688 0.01574,0.03151 0,0.07046 0,0.105688 0,0.08261 -0.01926,0.682035 0,0.739806 0.0249,0.07473 0.08078,0.136644 0.105686,0.211376 0.02228,0.06684 -0.03151,0.148354 0,0.211373 0.02228,0.04456 0.08993,0.05842 0.105687,0.105688 0.02228,0.06684 0,0.140914 0,0.211373 0,0.03523 -0.01574,0.07418 0,0.105688 0.02228,0.04456 0.08993,0.05842 0.105688,0.105687 0.01611,0.04834 -0.02352,0.375719 0,0.422746 0.02228,0.04456 0.0834,0.06113 0.105688,0.105688 0.01574,0.03151 0,0.07046 0,0.105688 0.03523,0.03523 0.0834,0.06112 0.105685,0.105688 0.03151,0.06302 -0.02228,0.144531 0,0.211373 0.0249,0.07473 0.08078,0.136641 0.105688,0.211373 0.02424,0.0727 -0.03118,0.254703 0,0.31706 0.02228,0.04456 0.08341,0.06113 0.105688,0.105688 0.04228,0.08455 -0.04227,0.232513 0,0.317061 0.04456,0.08912 0.166812,0.122251 0.211373,0.211376 0.03151,0.06302 -0.03151,0.148354 0,0.211373 0.35052,0.35052 -0.04982,-0.09964 0.105688,0.211373 0.02228,0.04456 0.0834,0.06113 0.105685,0.105687 0.01577,0.03151 -0.01574,0.07418 0,0.105688 0.06341,0.126823 0.253651,0.190236 0.317063,0.317061 0.01574,0.03151 -0.01577,0.07418 0,0.105688 0.02228,0.04456 0.0834,0.06112 0.105685,0.105685 0.01577,0.03151 0,0.07046 0,0.105688 0.03523,0.03523 0.08341,0.06113 0.105688,0.105688 0.03151,0.06302 -0.03151,0.148354 0,0.211373 0.06341,0.126825 0.253648,0.190238 0.317061,0.31706 0.155509,0.311018 -0.244832,-0.139144 0.105688,0.211376 l 0.105685,0.105685 c 0.03523,0.03523 0.08341,0.06113 0.105688,0.105688 0.01577,0.03151 -0.01574,0.07418 0,0.105688 0.02228,0.04456 0.08341,0.06112 0.105688,0.105685 0.04228,0.08455 -0.04227,0.232513 0,0.317063 0.04456,0.08912 0.166811,0.122251 0.211373,0.211373 0.01577,0.03151 0,0.07046 0,0.105688 0.03523,0.03523 0.08341,0.06112 0.105687,0.105685 0.03151,0.06302 -0.03151,0.148355 0,0.211376 0.02228,0.04456 0.08341,0.06112 0.105688,0.105685 0.01574,0.03151 -0.01577,0.07418 0,0.105688 0.02228,0.04456 0.08341,0.06113 0.105685,0.105688 0.03151,0.06302 -0.03151,0.148354 0,0.211373 0.02228,0.04456 0.08341,0.06113 0.105688,0.105688 0.03151,0.06302 -0.03151,0.148354 0,0.211373 0.35052,0.35052 -0.04982,-0.09964 0.105688,0.211375 0.02228,0.04456 0.0834,0.06112 0.105685,0.105685 0.03151,0.06302 -0.03151,0.148355 0,0.211376 0.02228,0.04456 0.08341,0.06112 0.105688,0.105688 0.03151,0.06302 -0.03151,0.148352 0,0.211373 0.06341,0.126825 0.253648,0.190235 0.317061,0.317061 0.01577,0.03151 -0.01574,0.07418 0,0.105687 0.02228,0.04456 0.08341,0.06112 0.105688,0.105685 0.01577,0.03151 -0.01577,0.07418 0,0.105688 0.02228,0.04456 0.08341,0.06113 0.105687,0.105688 0.01574,0.03151 -0.01577,0.07418 0,0.105685 0.06341,0.126826 0.253649,0.190238 0.317061,0.317064 0.01574,0.03151 -0.01577,0.07418 0,0.105685 0.02822,0.05645 0.261419,0.261421 0.317061,0.317061 l 0.528434,0.528436 c 0.07046,0.07046 0.131662,0.151588 0.211375,0.211373 0.06302,0.04727 0.145828,0.06199 0.211373,0.105688 0.09621,0.06414 0.223388,0.270224 0.317061,0.317061 l 0.04705,6.745736 -29.110971,-0.08745"
       style="fill:#0000ff;fill-opacity:1;stroke:#0000ff;stroke-width:0.26458332px;stroke-linecap:butt;stroke-linejoin:miter;stroke-opacity:1"
       sodipodi:nodetypes="cccccccccccccccccccccccccccccccccccccccccccccssccccssccscsccscsccccsccscssccsccscsccccsccssccccccccccccccccsccccccscccccccccccccccccccccscscccscscccccccccccccccccccccccccscccccccsccccccscscccccccccccccccsccccccccccccccscccccccccccccccccscccccccccscccccscccccccccccccccsccsccccscccccccccccccccccccccccsscccccccccccccccccccccccccccccccccc" />
    <path
       style="fill:none;stroke:#000000;stroke-width:0.26499999;stroke-linecap:butt;stroke-linejoin:miter;stroke-miterlimit:4;stroke-dasharray:none;stroke-opacity:1;marker-start:url(#Arrow1Lstart);marker-end:url(#Arrow1Lend)"
       d="M 13.844999,9.8483792 V 59.415589 H 146.58789"
       id="path1542"
       inkscape:connector-curvature="0" />
    <path
       style="fill:none;stroke:#0000ff;stroke-width:0.26458332px;stroke-linecap:butt;stroke-linejoin:miter;stroke-opacity:1"
       d="m 3.4884032,59.309901 c 0.5988931,0 1.1977859,0 1.796679,0 0.055266,0 0.3949586,-0.01389 0.4227481,0 0.044562,0.02228 0.061126,0.08341 0.105687,0.105688 0.032164,0.01609 0.2694641,0 0.3170611,0 0.281832,0 0.5636641,0 0.8454961,0 0.7398091,0 1.4796182,0 2.2194274,0 0.3875194,0 0.7750384,0 1.1625571,0 0.05527,0 0.394959,0.01389 0.422748,0 0.04456,-0.02228 0.06113,-0.08341 0.105687,-0.105688 0.03151,-0.01577 0.07418,0.01577 0.105687,0 0.04456,-0.02228 0.06113,-0.08341 0.105687,-0.105687 0.03151,-0.01574 0.07418,0.01577 0.105687,0 0.08912,-0.04456 0.122251,-0.166812 0.211375,-0.211373 0.03151,-0.01577 0.07418,0.01577 0.105687,0 0.194571,-0.09728 0.0168,-0.219776 0.211374,-0.317061 0.06302,-0.03151 0.161552,0.04982 0.211374,0 0.02491,-0.0249 -0.01576,-0.07418 0,-0.105688 0.219922,-0.439843 -0.0073,0.112985 0.211374,-0.105685 0.02491,-0.02492 -0.02491,-0.08078 0,-0.105688 0.02491,-0.0249 0.08078,0.02492 0.105687,0 0.05284,-0.05284 -0.05284,-0.264218 0,-0.317061 0.04982,-0.04982 0.161552,0.04982 0.211374,0 0.02491,-0.0249 -0.02491,-0.08078 0,-0.105687 0.04982,-0.04982 0.148354,0.03151 0.211374,0 0.207468,-0.103736 0.04758,-0.200848 0.105687,-0.317061 0.219922,-0.439844 -0.0073,0.112982 0.211374,-0.105688 0.02491,-0.0249 -0.01576,-0.07418 0,-0.105685 0.11684,-0.23368 0.06559,-0.0328 0.211374,-0.105688 0.23368,-0.11684 0.0328,-0.0656 0.105687,-0.211376 0.02228,-0.04456 0.08341,-0.06112 0.105687,-0.105685 0.01576,-0.03151 -0.01576,-0.07418 0,-0.105688 0.02228,-0.04456 0.08341,-0.06113 0.105687,-0.105687 0.04227,-0.08455 -0.04228,-0.232511 0,-0.317061 0.02228,-0.04456 0.08341,-0.06112 0.105687,-0.105685 0.03151,-0.06302 -0.03151,-0.148355 0,-0.211376 0.02228,-0.04456 0.08341,-0.06112 0.105687,-0.105688 0.0139,-0.02779 0,-0.36748 0,-0.422746 0,-0.281834 0,-0.563665 0,-0.845497 0,-0.07491 -0.01366,-0.606795 0,-0.634122 0.02228,-0.04456 0.08341,-0.06113 0.105687,-0.105687 0.01576,-0.03151 -0.01576,-0.07418 0,-0.105688 0.02228,-0.04456 0.08341,-0.06112 0.105687,-0.105685 0.01576,-0.03151 0,-0.07046 0,-0.105688 0,-0.07491 -0.01366,-0.606796 0,-0.634122 0.02228,-0.04456 0.08341,-0.06113 0.105687,-0.105688 0.04228,-0.08455 -0.04228,-0.23251 0,-0.31706 0.02228,-0.04456 0.08341,-0.06112 0.105687,-0.105688 0.04228,-0.08455 -0.04228,-0.232511 0,-0.317061 0.02228,-0.04456 0.08341,-0.06112 0.105687,-0.105685 0.02867,-0.05733 -0.02892,-0.39383 0,-0.422749 0.02491,-0.02492 0.08078,0.0249 0.105687,0 0.02491,-0.02492 0,-0.07046 0,-0.105688 0.03523,0 0.08078,0.0249 0.105687,0 0.05284,-0.05284 -0.05284,-0.264218 0,-0.31706 0.02491,-0.02492 0.08078,0.0249 0.105687,0 0.02491,-0.02492 -0.01576,-0.07418 0,-0.105688 0.02228,-0.04456 0.07046,-0.07046 0.105687,-0.105685 0.03523,-0.03523 0.06113,-0.08341 0.105687,-0.105688 0.03151,-0.01577 0.08078,0.0249 0.105687,0 0.02491,-0.02492 -0.02491,-0.08078 0,-0.105688 0.02491,-0.02492 0.07418,0.01577 0.105687,0 0.04456,-0.02228 0.07046,-0.07046 0.105687,-0.105688 0.03523,-0.03523 0.08341,-0.06112 0.105687,-0.105685 0.07289,-0.14578 -0.127993,-0.09454 0.105687,-0.211376 0.03151,-0.01574 0.07418,0.01577 0.105687,0 0.04456,-0.02228 0.07046,-0.07046 0.105687,-0.105685 0.03523,-0.03523 0.08341,-0.06113 0.105687,-0.105687 0.01576,-0.03151 -0.01576,-0.07418 0,-0.105688 0.052,-0.103997 0.370748,-0.318749 0.422748,-0.422746 0.01576,-0.03151 -0.01576,-0.07418 0,-0.105688 0.06341,-0.126825 0.253649,-0.190238 0.317061,-0.317061 0.03151,-0.06302 -0.03151,-0.148354 0,-0.211375 0.04456,-0.08912 0.166812,-0.122251 0.211374,-0.211373 0.01576,-0.03151 0,-0.07046 0,-0.105688 0.03523,-0.03523 0.08341,-0.06112 0.105687,-0.105685 0.01576,-0.03151 -0.01576,-0.07418 0,-0.105688 0.04456,-0.08912 0.166813,-0.122251 0.211374,-0.211376 0.03209,-0.06418 -0.03209,-0.569944 0,-0.634121 0.02228,-0.04456 0.08341,-0.06112 0.105687,-0.105686 0.01576,-0.03151 -0.01576,-0.07418 0,-0.105687 0.02228,-0.04456 0.08341,-0.06113 0.105687,-0.105688 0.01576,-0.03151 -0.01576,-0.07418 0,-0.105688 0.02228,-0.04456 0.08341,-0.06112 0.105687,-0.105685 0.03151,-0.06302 -0.03151,-0.148355 0,-0.211376 0.02228,-0.04456 0.08341,-0.06112 0.105687,-0.105685 0.01576,-0.03151 -0.01114,-0.07227 0,-0.105688 0.04982,-0.149463 0.161553,-0.273285 0.211374,-0.422748 0.0248,-0.07441 0,-0.637755 0,-0.73981 0,-0.35229 0,-0.70458 0,-1.05687 0,-0.05527 -0.0139,-0.394957 0,-0.422749 0.02228,-0.04456 0.08341,-0.06112 0.105687,-0.105685 0.03151,-0.06302 -0.03151,-0.148354 0,-0.211375 0.02228,-0.04456 0.08341,-0.06112 0.105687,-0.105686 0.01608,-0.03216 0,-0.269464 0,-0.31706 0,-0.35229 0,-0.70458 0,-1.05687 0,-0.02511 -0.01184,-0.399061 0,-0.422749 0.02228,-0.04456 0.08341,-0.06113 0.105687,-0.105688 0.01389,-0.02779 0,-0.367482 0,-0.422748 0,-0.38752 0,-0.775036 0,-1.162556 0,-0.35229 0,-0.70458 0,-1.05687 0,-0.09954 -0.02004,-0.468315 0,-0.528436 0.01576,-0.04727 0.08341,-0.06112 0.105687,-0.105688 0.01389,-0.02779 0,-0.36748 0,-0.422746 0,-0.35229 0,-0.70458 0,-1.05687 0,-0.422749 0,-0.845498 0,-1.268246 0,-0.102397 -0.021,-0.571103 0,-0.634122 0.02491,-0.07473 0.08078,-0.136641 0.105687,-0.211373 0.01114,-0.03342 -0.01114,-0.07227 0,-0.105688 0.02491,-0.07473 0.08078,-0.136641 0.105687,-0.211372 0.01114,-0.03342 0,-0.07046 0,-0.105688 0,-0.07046 0,-0.140917 0,-0.211376 0,-0.281831 0,-0.563663 0,-0.845494 0,-0.176147 0,-0.352291 0,-0.528437 0,-0.06945 -0.01987,-0.257432 0,-0.317061 0.137197,-0.411588 0.105687,-0.0099 0.105687,-0.422746 0,-0.317063 0,-0.634124 0,-0.951185 0,-0.140914 -0.03418,-0.286038 0,-0.422748 0.01208,-0.04833 0.08341,-0.06112 0.105687,-0.105685 0.01576,-0.03151 0,-0.07046 0,-0.105688 0,-0.07046 -0.01709,-0.143021 0,-0.211373 0.01911,-0.07642 0.08078,-0.136644 0.105687,-0.211376 0.01114,-0.03342 0,-0.07046 0,-0.105685 0,-0.07046 0,-0.140917 0,-0.211376 0,-0.211373 0,-0.422748 0,-0.634121 0,-0.07046 -0.02228,-0.144531 0,-0.211373 0.02491,-0.07473 0.08078,-0.136644 0.105687,-0.211376 0.03356,-0.100679 -0.03431,-0.425489 0,-0.528434 0.02491,-0.07473 0.08078,-0.136644 0.105687,-0.211375 0.02217,-0.06652 0,-0.433171 0,-0.528434 0,-0.03523 -0.02491,-0.08078 0,-0.105688 0.0557,-0.0557 0.155673,-0.04998 0.211375,-0.105688 0.0034,-0.0034 0,-0.291427 0,-0.31706 0,-0.07351 -0.01911,-0.490215 0,-0.528435 0.02228,-0.04456 0.08341,-0.06113 0.105687,-0.105687 0.03352,-0.06704 -0.03433,-0.459778 0,-0.528435 0.02228,-0.04456 0.08341,-0.06113 0.105687,-0.105687 0.01575,-0.03151 -0.01576,-0.07418 0,-0.105687 0.02228,-0.04456 0.08341,-0.06113 0.105687,-0.105687 0.03334,-0.06668 -0.03334,-0.46176 0,-0.528435 0.02228,-0.04456 0.08341,-0.06112 0.105687,-0.105687 0.01576,-0.03151 -0.01576,-0.07418 0,-0.105687 0.02228,-0.04456 0.08341,-0.06113 0.105687,-0.105687 0.05635,-0.112693 -0.05635,-0.09868 0,-0.211374 0.02228,-0.04456 0.08341,-0.06113 0.105687,-0.105687 0.01576,-0.03151 -0.01576,-0.07418 0,-0.105687 0.02228,-0.04456 0.08341,-0.06113 0.105687,-0.105687 0.03151,-0.06302 -0.03151,-0.148355 0,-0.211374 0.02228,-0.04456 0.08341,-0.06112 0.105687,-0.105687 0.01576,-0.03151 -0.01576,-0.07418 0,-0.105687 0.350519,-0.35052 -0.04982,0.09964 0.105687,-0.211374 0.02228,-0.04456 0.08341,-0.06113 0.105687,-0.105687 0.01576,-0.03151 -0.01576,-0.07418 0,-0.105687 0.02228,-0.04456 0.08341,-0.06113 0.105687,-0.105687 0.03151,-0.06302 -0.03151,-0.148355 0,-0.211374 0.02228,-0.04456 0.08341,-0.06113 0.105687,-0.105687 0.03151,-0.06302 -0.03151,-0.148354 0,-0.211374 0.350519,-0.35052 -0.04982,0.09964 0.105687,-0.211374 0.02228,-0.04456 0.08341,-0.06113 0.105687,-0.105687 0.01576,-0.03151 -0.01576,-0.07418 0,-0.105687 0.02228,-0.04456 0.08341,-0.06113 0.105687,-0.105687 0.03321,-0.06643 -0.03321,-0.356322 0,-0.422748 0.04456,-0.08912 0.166812,-0.122251 0.211374,-0.211374 0.03151,-0.06302 -0.04982,-0.161553 0,-0.211374 0.02491,-0.02491 0.08078,0.02491 0.105687,0 0.02491,-0.02491 -0.02491,-0.08078 0,-0.105687 0.02491,-0.02491 0.08078,0.02491 0.105687,0 0.0371,-0.0371 -0.0365,-0.455434 0,-0.528435 0.219922,-0.439844 -0.0073,0.112983 0.211374,-0.105687 0.04982,-0.04982 -0.03151,-0.148355 0,-0.211374 0.219922,-0.439844 -0.0073,0.112983 0.211374,-0.105687 0.21867,-0.218671 -0.334157,0.0085 0.105687,-0.211374 0.14578,-0.07289 0.09453,0.127992 0.211374,-0.105687 0.07289,-0.145781 -0.127993,-0.09454 0.105687,-0.211374 0.06302,-0.03151 0.161552,0.04982 0.211374,0 0.02491,-0.02491 -0.02491,-0.08078 0,-0.105687 0.04982,-0.04982 0.148354,0.03151 0.211374,0 0.439844,-0.219923 -0.112983,0.0073 0.105687,-0.211375 0.02491,-0.02491 0.07418,0.01576 0.105687,0 0.04456,-0.02228 0.07046,-0.07046 0.105687,-0.105687 0.03523,-0.03523 0.07046,-0.07046 0.105687,-0.105687 0.03523,-0.03523 0.07046,-0.07046 0.105687,-0.105687 0.03523,-0.03523 0.06113,-0.08341 0.105687,-0.105687 0.03151,-0.01576 0.07418,0.01576 0.105687,0 0.168747,-0.08437 0.04263,-0.127 0.211374,-0.211374 0.02779,-0.0139 0.367482,0 0.422748,0 0.35229,0 0.70458,0 1.05687,0 0.528435,0 1.05687,0 1.585305,0 0.07491,0 0.606797,-0.01366 0.634123,0 0.04456,0.02228 0.06113,0.08341 0.105687,0.105687 0.03151,0.01576 0.07418,-0.01576 0.105686,0 0.04456,0.02228 0.06113,0.08341 0.105687,0.105687 0.06302,0.03151 0.148355,-0.03151 0.211373,0 0.04456,0.02228 0.06113,0.08341 0.105688,0.105687 0.03151,0.01576 0.07418,-0.01576 0.105688,0 0.126825,0.06341 0.190235,0.253649 0.317061,0.317061 0.06302,0.03151 0.148354,-0.03151 0.211373,0 0.04456,0.02228 0.06113,0.08341 0.105688,0.105688 0.03151,0.01576 0.08078,-0.02491 0.105687,0 0.0249,0.02491 -0.0249,0.08078 0,0.105687 0.0249,0.02491 0.07418,-0.01576 0.105685,0 0.126826,0.06341 0.190239,0.253648 0.317064,0.317061 0.03151,0.01576 0.08078,-0.02491 0.105685,0 0.0249,0.02491 -0.0249,0.08078 0,0.105687 0.0249,0.02491 0.07418,-0.01576 0.105688,0 0.126825,0.06341 0.190235,0.253648 0.317061,0.317061 0.03151,0.01576 0.07418,-0.01576 0.105687,0 0.02806,0.01403 0.30303,0.289 0.317061,0.317061 0.01574,0.03151 -0.0249,0.08078 0,0.105687 0.21867,0.21867 -0.0085,-0.334157 0.211373,0.105687 0,0.281832 -0.03523,-0.03523 0.105688,0.105687 0.04982,0.04982 -0.04982,0.161552 0,0.211374 0.0249,0.02491 0.08078,-0.02491 0.105688,0 0.04982,0.04982 -0.03151,0.148354 0,0.211374 0.02228,0.04456 0.0834,0.06113 0.105685,0.105687 0.03334,0.06667 -0.03334,0.46176 0,0.528435 0.02228,0.04456 0.08341,0.06112 0.105688,0.105687 0.01577,0.03151 -0.01574,0.07418 0,0.105687 0.02228,0.04456 0.08341,0.06113 0.105688,0.105687 0.05636,0.112732 -0.05637,0.09864 0,0.211374 0.02228,0.04456 0.0834,0.06113 0.105685,0.105687 0.03151,0.06302 -0.03151,0.148354 0,0.211374 0.04456,0.08912 0.156104,0.128466 0.211375,0.211374 0.162005,0.243006 0.04937,0.285429 0.211373,0.528435 0.05527,0.08291 0.179864,0.116845 0.211376,0.211374 0.02228,0.06684 -0.01709,0.14302 0,0.211374 0.127587,0.510357 0.05022,-0.0052 0.211373,0.317061 0.01577,0.03151 -0.01577,0.07418 0,0.105687 0.02228,0.04456 0.07805,0.06423 0.105688,0.105687 0.0437,0.06555 0.06199,0.14583 0.105685,0.211374 0.02764,0.04145 0.07805,0.06423 0.105688,0.105687 0.162004,0.243006 0.04937,0.285429 0.211375,0.528435 0.02764,0.04145 0.08341,0.06113 0.105686,0.105687 0.01577,0.03151 0,0.07046 0,0.105687 0.03523,0.07046 0.06199,0.14583 0.105687,0.211374 0.02764,0.04145 0.08993,0.05842 0.105688,0.105687 0.01611,0.04834 -0.02352,0.37572 0,0.422748 0.02228,0.04456 0.0834,0.06113 0.105685,0.105687 0.01577,0.03151 -0.01114,0.07227 0,0.105686 0.0249,0.07473 0.08078,0.136644 0.105688,0.211376 0.01114,0.03342 0,0.07046 0,0.105688 0.03523,0.07045 0.07046,0.140914 0.105688,0.211372 0.03523,0.07046 0.06199,0.145831 0.105685,0.211373 0.02764,0.04145 0.08994,0.05842 0.105688,0.105688 0.01611,0.04834 -0.02352,0.375719 0,0.422749 0.02228,0.04456 0.08993,0.05842 0.105688,0.105688 0.02228,0.06684 0,0.140914 0,0.211373 0,0.03523 -0.01577,0.07418 0,0.105687 0.04456,0.08912 0.166812,0.122251 0.211373,0.211373 0.01577,0.03151 0,0.07046 0,0.105688 0.03523,0.105685 0.04837,0.221533 0.105688,0.317061 0.05127,0.08544 0.156101,0.128466 0.211373,0.211373 0.03908,0.05863 -0.02228,0.144531 0,0.211376 0.0249,0.07473 0.08078,0.136641 0.105687,0.211373 0.01114,0.03342 -0.01577,0.07418 0,0.105687 0.02228,0.04456 0.08341,0.06112 0.105688,0.105686 0.04982,0.09964 0.07867,0.208983 0.105685,0.317063 0.0085,0.03418 -0.01574,0.07418 0,0.105685 0.02228,0.04456 0.08341,0.06113 0.105688,0.105688 0.01577,0.03151 -0.01577,0.07418 0,0.105688 0.02228,0.04456 0.08341,0.06112 0.105688,0.105685 0.01574,0.03151 0,0.07046 0,0.105688 0,0.07046 -0.02228,0.144531 0,0.211373 0.01574,0.04726 0.08993,0.05842 0.105685,0.105688 0.02228,0.06684 -0.02228,0.144531 0,0.211375 0.01577,0.04726 0.08993,0.05842 0.105688,0.105685 0.01611,0.04834 -0.02352,0.375722 0,0.422749 0.02228,0.04456 0.08341,0.06113 0.105688,0.105688 0.03151,0.06302 -0.02228,0.144531 0,0.211373 0.0249,0.07473 0.08078,0.136641 0.105688,0.211375 0.02966,0.08898 -0.03146,0.465511 0,0.528434 0.02228,0.04456 0.0834,0.06113 0.105685,0.105688 0.03151,0.06302 -0.03151,0.148354 0,0.211373 0.04456,0.08912 0.166814,0.122251 0.211375,0.211376 0.01574,0.03151 0,0.07046 0,0.105685 0.03523,0.03523 0.0834,0.06113 0.105686,0.105688 0.03151,0.06302 -0.03151,0.148354 0,0.211373 0.02228,0.04456 0.08341,0.06113 0.105687,0.105687 0.03151,0.06302 -0.03151,0.148355 0,0.211373 0.35052,0.35052 -0.04982,-0.09964 0.105688,0.211376 0.02228,0.04456 0.0834,0.06112 0.105685,0.105685 0.03149,0.06298 -0.02455,0.430239 0,0.528436 0.266957,1.067822 -0.03816,-0.07633 0.211376,0.422749 0.01574,0.03151 -0.01114,0.07227 0,0.105685 0.02492,0.07473 0.08078,0.136644 0.105688,0.211376 0.01114,0.03342 -0.01577,0.07418 0,0.105688 0.02228,0.04456 0.0834,0.06112 0.105685,0.105685 0.03151,0.06302 -0.03151,0.148354 0,0.211375 0.02228,0.04456 0.08993,0.05842 0.105688,0.105686 0.02228,0.06684 0,0.140917 0,0.211375 0,0.03523 -0.01577,0.07418 0,0.105685 0.02228,0.04456 0.08341,0.06113 0.105688,0.105688 0.01574,0.03151 0,0.07046 0,0.105688 0.03523,0.07046 0.06199,0.14583 0.105685,0.211373 0.02764,0.04145 0.08341,0.06113 0.105688,0.105688 0.03151,0.06302 -0.02228,0.144531 0,0.211373 0.07473,0.224197 0.242329,0.409927 0.31706,0.634124 0.03256,0.09768 -0.03286,0.42985 0,0.528434 0.0249,0.07473 0.08078,0.136641 0.105688,0.211373 0.01114,0.03342 -0.01114,0.07227 0,0.105688 0.0249,0.07473 0.08078,0.136641 0.105688,0.211375 0.01114,0.03342 -0.01577,0.07418 0,0.105685 0.02228,0.04456 0.0834,0.06113 0.105685,0.105688 0.0289,0.0578 -0.01799,0.245137 0,0.317061 0.02702,0.108077 0.07867,0.208984 0.105688,0.317061 0.0085,0.03418 -0.01577,0.07418 0,0.105688 0.02228,0.04456 0.08993,0.05842 0.105688,0.105687 0.02228,0.06684 -0.02228,0.144532 0,0.211373 0.01574,0.04727 0.0834,0.06112 0.105685,0.105688 0.01577,0.03151 0,0.07046 0,0.105685 0.03523,0.03523 0.08341,0.06113 0.105688,0.105688 0.01577,0.03151 0,0.07046 0,0.105688 0,0.07046 -0.02228,0.144531 0,0.211373 0.01577,0.04727 0.08341,0.06113 0.105687,0.105688 0.01574,0.03151 0,0.07046 0,0.105688 0,0.08261 -0.01926,0.682035 0,0.739806 0.0249,0.07473 0.08078,0.136644 0.105686,0.211376 0.02228,0.06684 -0.03151,0.148354 0,0.211373 0.02228,0.04456 0.08993,0.05842 0.105687,0.105688 0.02228,0.06684 0,0.140914 0,0.211373 0,0.03523 -0.01574,0.07418 0,0.105688 0.02228,0.04456 0.08993,0.05842 0.105688,0.105687 0.01611,0.04834 -0.02352,0.375719 0,0.422746 0.02228,0.04456 0.0834,0.06113 0.105688,0.105688 0.01574,0.03151 0,0.07046 0,0.105688 0.03523,0.03523 0.0834,0.06112 0.105685,0.105688 0.03151,0.06302 -0.02228,0.144531 0,0.211373 0.0249,0.07473 0.08078,0.136641 0.105688,0.211373 0.02424,0.0727 -0.03118,0.254703 0,0.31706 0.02228,0.04456 0.08341,0.06113 0.105688,0.105688 0.04228,0.08455 -0.04227,0.232513 0,0.317061 0.04456,0.08912 0.166812,0.122251 0.211373,0.211376 0.03151,0.06302 -0.03151,0.148354 0,0.211373 0.35052,0.35052 -0.04982,-0.09964 0.105688,0.211373 0.02228,0.04456 0.0834,0.06113 0.105685,0.105687 0.01577,0.03151 -0.01574,0.07418 0,0.105688 0.06341,0.126823 0.253651,0.190236 0.317063,0.317061 0.01574,0.03151 -0.01577,0.07418 0,0.105688 0.02228,0.04456 0.0834,0.06112 0.105685,0.105685 0.01577,0.03151 0,0.07046 0,0.105688 0.03523,0.03523 0.08341,0.06113 0.105688,0.105688 0.03151,0.06302 -0.03151,0.148354 0,0.211373 0.06341,0.126825 0.253648,0.190238 0.317061,0.31706 0.155509,0.311018 -0.244832,-0.139144 0.105688,0.211376 0.03523,0.03523 0.07046,0.07046 0.105685,0.105685 0.03523,0.03523 0.08341,0.06113 0.105688,0.105688 0.01577,0.03151 -0.01574,0.07418 0,0.105688 0.02228,0.04456 0.08341,0.06112 0.105688,0.105685 0.04228,0.08455 -0.04227,0.232513 0,0.317063 0.04456,0.08912 0.166811,0.122251 0.211373,0.211373 0.01577,0.03151 0,0.07046 0,0.105688 0.03523,0.03523 0.08341,0.06112 0.105687,0.105685 0.03151,0.06302 -0.03151,0.148355 0,0.211376 0.02228,0.04456 0.08341,0.06112 0.105688,0.105685 0.01574,0.03151 -0.01577,0.07418 0,0.105688 0.02228,0.04456 0.08341,0.06113 0.105685,0.105688 0.03151,0.06302 -0.03151,0.148354 0,0.211373 0.02228,0.04456 0.08341,0.06113 0.105688,0.105688 0.03151,0.06302 -0.03151,0.148354 0,0.211373 0.35052,0.35052 -0.04982,-0.09964 0.105688,0.211375 0.02228,0.04456 0.0834,0.06112 0.105685,0.105685 0.03151,0.06302 -0.03151,0.148355 0,0.211376 0.02228,0.04456 0.08341,0.06112 0.105688,0.105688 0.03151,0.06302 -0.03151,0.148352 0,0.211373 0.06341,0.126825 0.253648,0.190235 0.317061,0.317061 0.01577,0.03151 -0.01574,0.07418 0,0.105687 0.02228,0.04456 0.08341,0.06112 0.105688,0.105685 0.01577,0.03151 -0.01577,0.07418 0,0.105688 0.02228,0.04456 0.08341,0.06113 0.105687,0.105688 0.01574,0.03151 -0.01577,0.07418 0,0.105685 0.06341,0.126826 0.253649,0.190238 0.317061,0.317064 0.01574,0.03151 -0.01577,0.07418 0,0.105685 0.02822,0.05645 0.261419,0.261421 0.317061,0.317061 0.176144,0.176146 0.35229,0.35229 0.528434,0.528436 0.07046,0.07046 0.131662,0.151588 0.211375,0.211373 0.06302,0.04727 0.145828,0.06199 0.211373,0.105688 0.09621,0.06414 0.223388,0.270224 0.317061,0.317061 0.06302,0.03151 0.148355,-0.03151 0.211376,0 0.04456,0.02228 0.06112,0.08341 0.105685,0.105687 0.03151,0.01574 0.08078,-0.0249 0.105688,0 0.02492,0.02492 -0.0249,0.08078 0,0.105686 0.02492,0.02492 0.07418,-0.01574 0.105688,0 0.126822,0.06341 0.190235,0.25365 0.31706,0.317063 0.14578,0.07289 0.09453,-0.127995 0.211373,0.105685 0.01577,0.03151 -0.01574,0.07418 0,0.105688 0.01402,0.02806 0.289002,0.30303 0.317061,0.317061 0.03151,0.01577 0.08078,-0.0249 0.105688,0 0.02492,0.02492 -0.0249,0.08078 0,0.105688 0.02492,0.02492 0.08078,-0.0249 0.105688,0 0.02492,0.02492 -0.02492,0.08077 0,0.105685 0.02492,0.02492 0.08077,-0.0249 0.105685,0 0.21867,0.21867 -0.334156,-0.0085 0.105688,0.211375 0.03151,0.01574 0.08078,-0.0249 0.105688,0 0.02892,0.02892 -0.02867,0.365414 0,0.422749 0.02228,0.04456 0.0834,0.06112 0.105685,0.105685 0.04227,0.08455 -0.04227,0.232513 0,0.317061 0.02228,0.04456 0.08341,0.06113 0.105687,0.105688 0.04228,0.08455 -0.04227,0.23251 0,0.317061 0.35052,0.35052 -0.04982,-0.09964 0.105688,0.211375 0.06341,0.126823 0.253648,0.190236 0.317061,0.317061 0.01577,0.03151 -0.01577,0.07418 0,0.105685 0.01402,0.02806 0.288999,0.303033 0.317061,0.317064 0.03151,0.01574 0.07418,-0.01577 0.105688,0 0.08912,0.04456 0.12225,0.166811 0.211373,0.211373 0.06643,0.03321 0.356322,-0.03321 0.422748,0 0.08912,0.04456 0.122251,0.166811 0.211373,0.211373 0.06302,0.03151 0.144532,-0.02228 0.211376,0 0.07473,0.0249 0.136641,0.08078 0.211373,0.105687 0.07269,0.02424 0.254704,-0.03118 0.317061,0 0.04456,0.02228 0.06113,0.08341 0.105687,0.105688 0.03151,0.01574 0.07418,-0.01577 0.105688,0 0.04456,0.02228 0.06112,0.0834 0.105685,0.105685 0.06667,0.03334 0.461762,-0.03334 0.528437,0 0.04456,0.02228 0.06112,0.08341 0.105688,0.105688 0.03151,0.01574 0.07046,0 0.105685,0 0.03523,0 0.07046,0 0.105688,0 0.0476,0 0.284895,-0.01609 0.31706,0 0.35052,0.35052 -0.09964,-0.04982 0.211373,0.105688 0.04456,0.02228 0.06113,0.08341 0.105688,0.105688 0.08455,0.04227 0.232511,-0.04227 0.317061,0 0.04456,0.02228 0.05842,0.08993 0.105688,0.105685 0.06684,0.02228 0.140917,0 0.211373,0 0.03523,0 0.07418,-0.01574 0.105688,0 0.04456,0.02228 0.06113,0.08341 0.105687,0.105688 0.06302,0.03151 0.148355,-0.03151 0.211373,0 0.04456,0.02228 0.06113,0.08341 0.105688,0.105688 0.06643,0.03321 0.35632,-0.03321 0.422749,0 0.04456,0.02228 0.06112,0.0834 0.105685,0.105685 0.06302,0.03151 0.148354,-0.03151 0.211376,0 0.04456,0.02228 0.06112,0.08341 0.105685,0.105688 0.06564,0.03282 0.566401,-0.03386 0.634124,0 0.04456,0.02228 0.06112,0.08341 0.105685,0.105687 0.08455,0.04228 0.232513,-0.04227 0.317061,0 0.04456,0.02228 0.06113,0.0834 0.105688,0.105685 0.03151,0.01577 0.07418,-0.01574 0.105688,0 0.04456,0.02228 0.06112,0.08341 0.105685,0.105688 0.08455,0.04227 0.232513,-0.04227 0.317063,0 0.04456,0.02228 0.06112,0.08341 0.105685,0.105688 0.03151,0.01574 0.07418,-0.01577 0.105688,0 0.04456,0.02228 0.06112,0.0834 0.105688,0.105688 0.08455,0.04227 0.23251,-0.04228 0.317061,0 0.04456,0.02228 0.06112,0.0834 0.105685,0.105685 0.03151,0.01577 0.07418,-0.01574 0.105688,0 0.04456,0.02228 0.06113,0.08341 0.105687,0.105688 0.06418,0.03209 0.569947,-0.03209 0.634122,0 0.04456,0.02228 0.06113,0.08341 0.105688,0.105688 0.02779,0.01389 0.367482,0 0.422748,0 0.317061,0 0.634122,0 0.951183,0 0.281831,0 0.563663,0 0.845494,0 0.0476,0 0.284898,0.01609 0.317064,0 0.08912,-0.04456 0.122251,-0.166815 0.211373,-0.211376 0.06643,-0.03321 0.356322,0.03321 0.422748,0 0.04456,-0.02228 0.06112,-0.0834 0.105686,-0.105685 0.03216,-0.01609 0.269464,0 0.31706,0 0.211376,0 0.422749,0 0.634125,0 0.528433,0 1.05687,0 1.585303,0 5.636641,0 11.273282,0 16.909923,0 3.699045,0 7.398092,0 11.097136,0 1.162558,0 2.325116,0 3.487671,0 0.387519,0 0.775039,0 1.162558,0 0.08653,0 0.45996,-0.02283 0.528436,0 0.07473,0.02492 0.134128,0.09024 0.211373,0.105685 0.103635,0.02072 0.211373,0 0.317061,0 0.176147,0 0.35229,0 0.528437,0 0.09445,0 0.494755,-0.01683 0.528433,0 0.04456,0.02228 0.06113,0.08341 0.105688,0.105688 0.03368,0.01683 0.43398,0 0.528434,0 0.387519,0 0.775039,0 1.162558,0 1.05687,0 2.11374,0 3.170609,0 1.02165,0 2.04329,0 3.06493,0 0.35229,0 0.70458,0 1.05687,0 0.0895,0 0.36593,0.01894 0.42275,0 0.0473,-0.01577 0.0611,-0.08341 0.10568,-0.105688 0.0315,-0.01574 0.0705,0 0.10569,0 0.0352,0 0.0742,0.01577 0.10569,0 0.0446,-0.02228 0.0584,-0.08993 0.10568,-0.105685 0.10027,-0.03342 0.21138,0 0.31707,0 0.35229,0 0.70458,0 1.05687,0 0.0704,0 0.14091,0 0.21137,0 0.0705,0 0.14453,0.02228 0.21137,0 0.0473,-0.01577 0.0611,-0.08341 0.10569,-0.105688 0.0315,-0.01577 0.0705,0 0.10569,0 0.0705,0 0.14091,0 0.21137,0 0.17615,0 0.35229,0 0.52844,0 0.70458,0 1.40916,0 2.11374,0 0.45797,0 0.91595,0 1.37393,0 0.0735,0 0.49021,0.0191 0.52843,0 0.0446,-0.02228 0.0611,-0.08341 0.10569,-0.105688 0.0315,-0.01577 0.0705,0 0.10569,0 0.0705,0 0.14091,0 0.21137,0 0.17615,0 0.35229,0 0.52844,0 0.45797,0 0.91595,0 1.37393,0 1.51485,0 3.02969,0 4.54454,0 3.38198,0 6.76397,0 10.14595,0 1.05687,0 2.11374,0 3.17061,0 0.35229,0 0.70458,0 1.05687,0 0.10569,0 0.21138,0 0.31706,0 0.0705,0 0.14302,-0.01709 0.21138,0 0.0764,0.0191 0.13413,0.09024 0.21137,0.105688 0.10364,0.02072 0.21138,0 0.31706,0 0.31706,0 0.63412,0 0.95119,0"
       id="path1858"
       inkscape:connector-curvature="0" />
    <path
       style="fill:none;stroke:#000000;stroke-width:0.26458332px;stroke-linecap:butt;stroke-linejoin:miter;stroke-opacity:1"
       d="m 43.146724,57.93597 v 3.804733"
       id="path1860"
       inkscape:connector-curvature="0"
       sodipodi:nodetypes="cc" />
    <path
       sodipodi:nodetypes="cc"
       inkscape:connector-curvature="0"
       id="path1862"
       d="M 13.739311,58.041657 V 61.84639"
       style="fill:none;stroke:#000000;stroke-width:0.26458332px;stroke-linecap:butt;stroke-linejoin:miter;stroke-opacity:1" />
    <path
       sodipodi:nodetypes="cc"
       inkscape:connector-curvature="0"
       id="path1864"
       d="m 101.96155,57.93597 v 3.804733"
       style="fill:none;stroke:#000000;stroke-width:0.26458332px;stroke-linecap:butt;stroke-linejoin:miter;stroke-opacity:1" />
    <path
       style="fill:none;stroke:#000000;stroke-width:0.26458332px;stroke-linecap:butt;stroke-linejoin:miter;stroke-opacity:1"
       d="M 72.554136,58.041657 V 61.84639"
       id="path1866"
       inkscape:connector-curvature="0"
       sodipodi:nodetypes="cc" />
    <path
       sodipodi:nodetypes="cc"
       inkscape:connector-curvature="0"
       id="path1870"
       d="M 131.36896,58.041657 V 61.84639"
       style="fill:none;stroke:#000000;stroke-width:0.26458332px;stroke-linecap:butt;stroke-linejoin:miter;stroke-opacity:1" />
    <g
       id="g1897"
       transform="matrix(0.44203353,0,0,0.44203353,2.0734704,-2.6041701)"
       style="fill:#0000ff">
      <g
         word-spacing="normal"
         letter-spacing="normal"
         font-size-adjust="none"
         font-stretch="normal"
         font-weight="normal"
         font-variant="normal"
         font-style="normal"
         stroke-miterlimit="10.433"
         xml:space="preserve"
         transform="matrix(0.3,0,0,-0.3,-52.5,222.75)"
         id="content"
         style="font-style:normal;font-variant:normal;font-weight:normal;font-stretch:normal;letter-spacing:normal;word-spacing:normal;text-anchor:start;fill:#0000ff;fill-opacity:1;fill-rule:evenodd;stroke:#000000;stroke-linecap:butt;stroke-linejoin:miter;stroke-miterlimit:10.43299961;stroke-dasharray:none;stroke-dashoffset:0;stroke-opacity:1"><path
           id="path1888"
           d="m 469.82,440.23 v 0 0.01 0 0.01 l -0.01,0.02 v 0.01 0.02 0.02 0.02 l -0.01,0.02 v 0.02 l -0.01,0.02 -0.01,0.02 -0.01,0.03 -0.01,0.02 -0.01,0.03 -0.01,0.02 -0.02,0.03 -0.02,0.02 -0.02,0.02 -0.02,0.03 -0.01,0.01 -0.01,0.01 -0.02,0.01 -0.01,0.01 -0.02,0.01 -0.01,0.01 -0.02,0.01 -0.01,0.01 -0.02,0.01 -0.02,0.01 h -0.02 l -0.02,0.01 -0.02,0.01 h -0.02 l -0.02,0.01 -0.02,0.01 h -0.03 -0.02 l -0.03,0.01 h -0.02 -0.03 l -0.03,0.01 h -0.02 -0.03 c -1.16,0 -4.79,-0.41 -6.08,-0.5 -0.41,-0.05 -0.96,-0.1 -0.96,-1 0,-0.6 0.46,-0.6 1.21,-0.6 2.39,0 2.48,-0.34 2.48,-0.84 l -0.15,-1 -7.22,-28.7 c -0.21,-0.69 -0.21,-0.8 -0.21,-1.1 0,-1.14 1,-1.39 1.46,-1.39 0.79,0 1.59,0.6 1.84,1.3 l 0.94,3.78 1.11,4.48 c 0.29,1.1 0.59,2.19 0.84,3.35 0.1,0.3 0.5,1.94 0.55,2.23 0.14,0.46 1.69,3.25 3.39,4.6 1.09,0.79 2.64,1.73 4.78,1.73 2.14,0 2.69,-1.69 2.69,-3.48 0,-2.69 -1.89,-8.13 -3.1,-11.16 -0.39,-1.16 -0.64,-1.75 -0.64,-2.75 0,-2.33 1.74,-4.08 4.08,-4.08 4.69,0 6.53,7.27 6.53,7.67 0,0.5 -0.45,0.5 -0.59,0.5 -0.5,0 -0.5,-0.15 -0.75,-0.9 -0.75,-2.64 -2.34,-6.17 -5.08,-6.17 -0.86,0 -1.2,0.5 -1.2,1.64 0,1.25 0.45,2.45 0.9,3.54 0.8,2.14 3.04,8.07 3.04,10.96 0,3.23 -2,5.32 -5.74,5.32 -3.14,0 -5.53,-1.53 -7.37,-3.82 z"
           inkscape:connector-curvature="0"
           style="fill:#0000ff;stroke-width:0" /><path
           id="path1890"
           d="m 500.68,394.25 v 0.02 0.03 0.01 0.02 0.01 l -0.01,0.02 v 0.01 l -0.01,0.02 -0.01,0.02 -0.01,0.02 -0.01,0.02 -0.02,0.03 -0.01,0.02 -0.02,0.03 -0.02,0.03 -0.03,0.03 -0.02,0.03 -0.03,0.04 -0.02,0.02 -0.01,0.02 -0.02,0.02 -0.02,0.02 -0.02,0.02 -0.02,0.03 -0.02,0.02 -0.02,0.02 -0.02,0.03 -0.03,0.02 -0.02,0.03 -0.03,0.03 -0.03,0.03 -0.02,0.03 -0.03,0.03 -0.03,0.03 -0.03,0.03 -0.03,0.03 -0.04,0.04 -0.03,0.03 -0.04,0.04 -0.03,0.03 -0.04,0.04 -0.04,0.04 c -6.22,6.28 -7.81,15.69 -7.81,23.31 0,8.67 1.89,17.35 8.01,23.56 0.64,0.61 0.64,0.71 0.64,0.86 0,0.35 -0.18,0.49 -0.48,0.49 -0.5,0 -4.99,-3.38 -7.92,-9.7 -2.55,-5.49 -3.14,-11.02 -3.14,-15.21 0,-3.89 0.54,-9.9 3.28,-15.54 2.98,-6.13 7.28,-9.36 7.78,-9.36 0.3,0 0.48,0.14 0.48,0.5 z"
           inkscape:connector-curvature="0"
           style="fill:#0000ff;stroke-width:0" /><path
           id="path1892"
           d="m 513.78,426.12 h 4.69 c 0.98,0 1.48,0 1.48,1 0,0.55 -0.5,0.55 -1.39,0.55 h -4.39 c 1.8,7.08 2.05,8.08 2.05,8.37 0,0.85 -0.6,1.35 -1.44,1.35 -0.16,0 -1.55,-0.05 -2,-1.8 l -1.94,-7.92 h -4.68 c -1,0 -1.5,0 -1.5,-0.94 0,-0.61 0.4,-0.61 1.4,-0.61 h 4.38 c -3.58,-14.14 -3.78,-14.98 -3.78,-15.89 0,-2.69 1.89,-4.58 4.57,-4.58 5.08,0 7.93,7.27 7.93,7.67 0,0.5 -0.39,0.5 -0.6,0.5 -0.45,0 -0.5,-0.15 -0.75,-0.7 -2.14,-5.17 -4.78,-6.37 -6.47,-6.37 -1.04,0 -1.54,0.65 -1.54,2.29 0,1.19 0.09,1.55 0.29,2.39 z"
           inkscape:connector-curvature="0"
           style="fill:#0000ff;stroke-width:0" /><path
           id="path1894"
           d="m 535.91,418.65 -0.01,0.37 v 0.39 l -0.01,0.39 -0.01,0.41 -0.04,0.84 -0.06,0.88 -0.08,0.92 -0.11,0.95 -0.14,0.97 -0.16,1.01 -0.2,1.02 -0.23,1.03 -0.26,1.05 -0.31,1.06 -0.35,1.07 -0.39,1.07 -0.21,0.53 -0.23,0.53 -0.24,0.53 -0.25,0.53 c -2.98,6.12 -7.26,9.36 -7.76,9.36 -0.3,0 -0.5,-0.19 -0.5,-0.49 0,-0.15 0,-0.25 0.94,-1.15 4.89,-4.92 7.73,-12.85 7.73,-23.27 0,-8.51 -1.84,-17.28 -8.03,-23.56 -0.64,-0.59 -0.64,-0.7 -0.64,-0.84 0,-0.3 0.2,-0.5 0.5,-0.5 0.5,0 4.97,3.39 7.92,9.71 2.53,5.47 3.13,11 3.13,15.19 z"
           inkscape:connector-curvature="0"
           style="fill:#0000ff;stroke-width:0" /></g>    </g>
    <g
       id="g1933"
       transform="matrix(0.27767143,0,0,0.27767143,18.549547,38.087858)">
      <g
         word-spacing="normal"
         letter-spacing="normal"
         font-size-adjust="none"
         font-stretch="normal"
         font-weight="normal"
         font-variant="normal"
         font-style="normal"
         stroke-miterlimit="10.433"
         xml:space="preserve"
         transform="matrix(0.3,0,0,-0.3,-53.641857,220.84691)"
         id="g1931"
         style="font-style:normal;font-variant:normal;font-weight:normal;font-stretch:normal;letter-spacing:normal;word-spacing:normal;text-anchor:start;fill:none;fill-opacity:1;fill-rule:evenodd;stroke:#000000;stroke-linecap:butt;stroke-linejoin:miter;stroke-miterlimit:10.43299961;stroke-dasharray:none;stroke-dashoffset:0;stroke-opacity:1"><path
           id="path1929"
           d="m 476.8,436.43 0.02,0.07 0.01,0.06 0.03,0.12 0.03,0.12 0.03,0.11 0.03,0.11 0.03,0.09 0.03,0.1 0.03,0.09 0.03,0.08 0.03,0.08 0.03,0.07 0.03,0.07 0.03,0.06 0.03,0.06 0.03,0.06 0.03,0.05 0.03,0.05 0.03,0.04 0.04,0.04 0.03,0.04 0.04,0.04 0.03,0.03 0.04,0.03 0.04,0.03 0.04,0.02 0.05,0.03 0.04,0.02 0.05,0.02 0.04,0.01 0.05,0.02 0.06,0.01 0.05,0.02 c 0.45,0.11 2.1,0.11 3.14,0.11 5.03,0 7.27,-0.21 7.27,-4.1 0,-0.73 -0.19,-2.68 -0.39,-3.98 -0.05,-0.19 -0.16,-0.8 -0.16,-0.94 0,-0.3 0.16,-0.66 0.59,-0.66 0.57,0 0.66,0.41 0.75,1.16 l 1.35,8.66 c 0.06,0.2 0.11,0.7 0.11,0.86 0,0.54 -0.5,0.54 -1.35,0.54 H 461.6 c -1.21,0 -1.25,-0.06 -1.6,-1 l -2.98,-8.76 c -0.06,-0.11 -0.3,-0.8 -0.3,-0.91 0,-0.3 0.24,-0.55 0.6,-0.55 0.5,0 0.54,0.25 0.84,1.05 2.69,7.72 3.98,8.63 11.36,8.63 h 1.94 c 1.4,0 1.4,-0.21 1.4,-0.6 0,-0.31 -0.15,-0.9 -0.2,-1.04 l -6.67,-26.61 c -0.45,-1.85 -0.61,-2.39 -5.94,-2.39 -1.8,0 -2.09,0 -2.09,-0.96 0,-0.59 0.54,-0.59 0.84,-0.59 1.36,0 2.75,0.09 4.09,0.09 1.4,0 2.85,0.07 4.24,0.07 1.39,0 2.78,-0.07 4.14,-0.07 1.44,0 2.94,-0.09 4.33,-0.09 0.5,0 1.09,0 1.09,1 0,0.55 -0.39,0.55 -1.69,0.55 -1.25,0 -1.89,0 -3.18,0.09 -1.46,0.16 -1.85,0.3 -1.85,1.09 0,0.07 0,0.32 0.19,1.05 z"
           inkscape:connector-curvature="0"
           style="fill:#000000;stroke-width:0" /></g>    </g>
    <g
       id="g1971"
       transform="matrix(0.27767143,0,0,0.27767143,46.493867,37.559424)">
      <g
         word-spacing="normal"
         letter-spacing="normal"
         font-size-adjust="none"
         font-stretch="normal"
         font-weight="normal"
         font-variant="normal"
         font-style="normal"
         stroke-miterlimit="10.433"
         xml:space="preserve"
         transform="matrix(0.3,0,0,-0.3,-52.5,222.75)"
         id="g1969"
         style="font-style:normal;font-variant:normal;font-weight:normal;font-stretch:normal;letter-spacing:normal;word-spacing:normal;text-anchor:start;fill:none;fill-opacity:1;fill-rule:evenodd;stroke:#000000;stroke-linecap:butt;stroke-linejoin:miter;stroke-miterlimit:10.43299961;stroke-dasharray:none;stroke-dashoffset:0;stroke-opacity:1"><path
           id="path1965"
           d="m 461.85,410.04 5.28,5.13 c 7.76,6.87 10.76,9.56 10.76,14.54 0,5.69 -4.48,9.68 -10.56,9.68 -5.64,0 -9.33,-4.6 -9.33,-9.03 0,-2.79 2.5,-2.79 2.64,-2.79 0.86,0 2.6,0.6 2.6,2.64 0,1.3 -0.89,2.6 -2.64,2.6 -0.39,0 -0.5,0 -0.64,-0.05 1.14,3.24 3.83,5.08 6.72,5.08 4.53,0 6.68,-4.05 6.68,-8.13 0,-3.98 -2.5,-7.92 -5.23,-11.01 l -9.56,-10.66 C 458,407.5 458,407.4 458,406.2 h 18.49 l 1.4,8.67 h -1.25 c -0.25,-1.5 -0.59,-3.69 -1.09,-4.44 -0.36,-0.39 -3.64,-0.39 -4.73,-0.39 z"
           inkscape:connector-curvature="0"
           style="fill:#000000;stroke-width:0" /><path
           id="path1967"
           d="m 501.76,436.43 0.01,0.07 0.02,0.06 0.03,0.12 0.03,0.12 0.03,0.11 0.03,0.11 0.03,0.09 0.03,0.1 0.03,0.09 0.03,0.08 0.03,0.08 0.02,0.07 0.03,0.07 0.03,0.06 0.03,0.06 0.03,0.06 0.03,0.05 0.04,0.05 0.03,0.04 0.03,0.04 0.04,0.04 0.03,0.04 0.04,0.03 0.04,0.03 0.04,0.03 0.04,0.02 0.04,0.03 0.05,0.02 0.04,0.02 0.05,0.01 0.05,0.02 0.05,0.01 0.06,0.02 c 0.45,0.11 2.09,0.11 3.14,0.11 5.03,0 7.26,-0.21 7.26,-4.1 0,-0.73 -0.18,-2.68 -0.39,-3.98 -0.04,-0.19 -0.15,-0.8 -0.15,-0.94 0,-0.3 0.15,-0.66 0.59,-0.66 0.56,0 0.66,0.41 0.75,1.16 l 1.35,8.66 c 0.06,0.2 0.1,0.7 0.1,0.86 0,0.54 -0.5,0.54 -1.34,0.54 h -27.66 c -1.2,0 -1.25,-0.06 -1.59,-1 l -2.98,-8.76 c -0.07,-0.11 -0.3,-0.8 -0.3,-0.91 0,-0.3 0.23,-0.55 0.59,-0.55 0.5,0 0.55,0.25 0.85,1.05 2.68,7.72 3.98,8.63 11.36,8.63 h 1.93 c 1.41,0 1.41,-0.21 1.41,-0.6 0,-0.31 -0.16,-0.9 -0.2,-1.04 l -6.67,-26.61 c -0.46,-1.85 -0.61,-2.39 -5.94,-2.39 -1.8,0 -2.1,0 -2.1,-0.96 0,-0.59 0.55,-0.59 0.85,-0.59 1.36,0 2.75,0.09 4.09,0.09 1.39,0 2.85,0.07 4.24,0.07 1.39,0 2.78,-0.07 4.14,-0.07 1.43,0 2.93,-0.09 4.32,-0.09 0.5,0 1.1,0 1.1,1 0,0.55 -0.39,0.55 -1.69,0.55 -1.25,0 -1.89,0 -3.19,0.09 -1.45,0.16 -1.84,0.3 -1.84,1.09 0,0.07 0,0.32 0.19,1.05 z"
           inkscape:connector-curvature="0"
           style="fill:#000000;stroke-width:0" /></g>    </g>
    <g
       id="g2014"
       transform="matrix(0.27767143,0,0,0.27767143,75.991029,37.468626)">
      <g
         word-spacing="normal"
         letter-spacing="normal"
         font-size-adjust="none"
         font-stretch="normal"
         font-weight="normal"
         font-variant="normal"
         font-style="normal"
         stroke-miterlimit="10.433"
         xml:space="preserve"
         transform="matrix(0.3,0,0,-0.3,-52.5,222.75)"
         id="g2012"
         style="font-style:normal;font-variant:normal;font-weight:normal;font-stretch:normal;letter-spacing:normal;word-spacing:normal;text-anchor:start;fill:none;fill-opacity:1;fill-rule:evenodd;stroke:#000000;stroke-linecap:butt;stroke-linejoin:miter;stroke-miterlimit:10.43299961;stroke-dasharray:none;stroke-dashoffset:0;stroke-opacity:1"><path
           id="path2008"
           d="m 469.97,423.73 0.38,0.13 0.37,0.15 0.37,0.15 0.35,0.17 0.35,0.18 0.34,0.19 0.33,0.2 0.32,0.22 0.31,0.22 0.31,0.23 0.29,0.24 0.28,0.25 0.27,0.26 0.26,0.27 0.25,0.27 0.24,0.29 0.22,0.29 0.21,0.3 0.2,0.3 0.19,0.32 0.18,0.32 0.16,0.32 0.14,0.33 0.14,0.34 0.11,0.34 0.11,0.34 0.09,0.35 0.07,0.36 0.06,0.36 0.04,0.36 0.02,0.36 0.01,0.37 c 0,4.08 -4.39,6.88 -9.17,6.88 -5.03,0 -8.81,-3 -8.81,-6.78 0,-1.65 1.09,-2.6 2.54,-2.6 1.54,0 2.54,1.1 2.54,2.55 0,2.48 -2.35,2.48 -3.08,2.48 1.53,2.44 4.83,3.1 6.62,3.1 2.03,0 4.78,-1.1 4.78,-5.58 0,-0.61 -0.11,-3.49 -1.4,-5.69 -1.49,-2.39 -3.19,-2.53 -4.42,-2.59 -0.41,-0.05 -1.6,-0.14 -1.96,-0.14 -0.39,-0.05 -0.75,-0.1 -0.75,-0.6 0,-0.54 0.36,-0.54 1.21,-0.54 h 2.18 c 4.1,0 5.94,-3.39 5.94,-8.29 0,-6.76 -3.44,-8.21 -5.64,-8.21 -2.14,0 -5.88,0.84 -7.61,3.78 1.73,-0.24 3.28,0.86 3.28,2.75 0,1.79 -1.34,2.78 -2.8,2.78 -1.18,0 -2.78,-0.69 -2.78,-2.89 0,-4.53 4.63,-7.81 10.07,-7.81 6.07,0 10.61,4.53 10.61,9.6 0,4.1 -3.15,7.97 -8.32,9.02 z"
           inkscape:connector-curvature="0"
           style="fill:#000000;stroke-width:0" /><path
           id="path2010"
           d="m 501.76,436.43 0.01,0.07 0.02,0.06 0.03,0.12 0.03,0.12 0.03,0.11 0.03,0.11 0.03,0.09 0.03,0.1 0.03,0.09 0.03,0.08 0.03,0.08 0.02,0.07 0.03,0.07 0.03,0.06 0.03,0.06 0.03,0.06 0.03,0.05 0.04,0.05 0.03,0.04 0.03,0.04 0.04,0.04 0.03,0.04 0.04,0.03 0.04,0.03 0.04,0.03 0.04,0.02 0.04,0.03 0.05,0.02 0.04,0.02 0.05,0.01 0.05,0.02 0.05,0.01 0.06,0.02 c 0.45,0.11 2.09,0.11 3.14,0.11 5.03,0 7.26,-0.21 7.26,-4.1 0,-0.73 -0.18,-2.68 -0.39,-3.98 -0.04,-0.19 -0.15,-0.8 -0.15,-0.94 0,-0.3 0.15,-0.66 0.59,-0.66 0.56,0 0.66,0.41 0.75,1.16 l 1.35,8.66 c 0.06,0.2 0.1,0.7 0.1,0.86 0,0.54 -0.5,0.54 -1.34,0.54 h -27.66 c -1.2,0 -1.25,-0.06 -1.59,-1 l -2.98,-8.76 c -0.07,-0.11 -0.3,-0.8 -0.3,-0.91 0,-0.3 0.23,-0.55 0.59,-0.55 0.5,0 0.55,0.25 0.85,1.05 2.68,7.72 3.98,8.63 11.36,8.63 h 1.93 c 1.41,0 1.41,-0.21 1.41,-0.6 0,-0.31 -0.16,-0.9 -0.2,-1.04 l -6.67,-26.61 c -0.46,-1.85 -0.61,-2.39 -5.94,-2.39 -1.8,0 -2.1,0 -2.1,-0.96 0,-0.59 0.55,-0.59 0.85,-0.59 1.36,0 2.75,0.09 4.09,0.09 1.39,0 2.85,0.07 4.24,0.07 1.39,0 2.78,-0.07 4.14,-0.07 1.43,0 2.93,-0.09 4.32,-0.09 0.5,0 1.1,0 1.1,1 0,0.55 -0.39,0.55 -1.69,0.55 -1.25,0 -1.89,0 -3.19,0.09 -1.45,0.16 -1.84,0.3 -1.84,1.09 0,0.07 0,0.32 0.19,1.05 z"
           inkscape:connector-curvature="0"
           style="fill:#000000;stroke-width:0" /></g>    </g>
    <g
       id="g2061"
       transform="matrix(0.27767143,0,0,0.27767143,105.71418,37.559424)">
      <g
         word-spacing="normal"
         letter-spacing="normal"
         font-size-adjust="none"
         font-stretch="normal"
         font-weight="normal"
         font-variant="normal"
         font-style="normal"
         stroke-miterlimit="10.433"
         xml:space="preserve"
         transform="matrix(0.3,0,0,-0.3,-52.5,222.75)"
         id="g2059"
         style="font-style:normal;font-variant:normal;font-weight:normal;font-stretch:normal;letter-spacing:normal;word-spacing:normal;text-anchor:start;fill:none;fill-opacity:1;fill-rule:evenodd;stroke:#000000;stroke-linecap:butt;stroke-linejoin:miter;stroke-miterlimit:10.43299961;stroke-dasharray:none;stroke-dashoffset:0;stroke-opacity:1"><path
           id="path2055"
           d="m 470.16,414.42 v -4.33 c 0,-1.8 -0.09,-2.34 -3.78,-2.34 h -1.05 v -1.55 c 2.05,0.16 4.64,0.16 6.74,0.16 2.09,0 4.73,0 6.76,-0.16 v 1.55 h -1.04 c -3.69,0 -3.79,0.54 -3.79,2.34 v 4.33 h 4.99 v 1.54 H 474 v 22.68 c 0,1 0,1.29 -0.79,1.29 -0.46,0 -0.6,0 -1,-0.61 l -15.3,-23.36 h 1.41 l 12.15,18.58 v -18.58 h -12.15 -1.41 v -1.54 z"
           inkscape:connector-curvature="0"
           style="fill:#000000;stroke-width:0" /><path
           id="path2057"
           d="m 501.76,436.43 0.01,0.07 0.02,0.06 0.03,0.12 0.03,0.12 0.03,0.11 0.03,0.11 0.03,0.09 0.03,0.1 0.03,0.09 0.03,0.08 0.03,0.08 0.02,0.07 0.03,0.07 0.03,0.06 0.03,0.06 0.03,0.06 0.03,0.05 0.04,0.05 0.03,0.04 0.03,0.04 0.04,0.04 0.03,0.04 0.04,0.03 0.04,0.03 0.04,0.03 0.04,0.02 0.04,0.03 0.05,0.02 0.04,0.02 0.05,0.01 0.05,0.02 0.05,0.01 0.06,0.02 c 0.45,0.11 2.09,0.11 3.14,0.11 5.03,0 7.26,-0.21 7.26,-4.1 0,-0.73 -0.18,-2.68 -0.39,-3.98 -0.04,-0.19 -0.15,-0.8 -0.15,-0.94 0,-0.3 0.15,-0.66 0.59,-0.66 0.56,0 0.66,0.41 0.75,1.16 l 1.35,8.66 c 0.06,0.2 0.1,0.7 0.1,0.86 0,0.54 -0.5,0.54 -1.34,0.54 h -27.66 c -1.2,0 -1.25,-0.06 -1.59,-1 l -2.98,-8.76 c -0.07,-0.11 -0.3,-0.8 -0.3,-0.91 0,-0.3 0.23,-0.55 0.59,-0.55 0.5,0 0.55,0.25 0.85,1.05 2.68,7.72 3.98,8.63 11.36,8.63 h 1.93 c 1.41,0 1.41,-0.21 1.41,-0.6 0,-0.31 -0.16,-0.9 -0.2,-1.04 l -6.67,-26.61 c -0.46,-1.85 -0.61,-2.39 -5.94,-2.39 -1.8,0 -2.1,0 -2.1,-0.96 0,-0.59 0.55,-0.59 0.85,-0.59 1.36,0 2.75,0.09 4.09,0.09 1.39,0 2.85,0.07 4.24,0.07 1.39,0 2.78,-0.07 4.14,-0.07 1.43,0 2.93,-0.09 4.32,-0.09 0.5,0 1.1,0 1.1,1 0,0.55 -0.39,0.55 -1.69,0.55 -1.25,0 -1.89,0 -3.19,0.09 -1.45,0.16 -1.84,0.3 -1.84,1.09 0,0.07 0,0.32 0.19,1.05 z"
           inkscape:connector-curvature="0"
           style="fill:#000000;stroke-width:0" /></g>    </g>
    <path
       sodipodi:nodetypes="cccccccccccccccccccccccccccccccccccccccccccccssccccssccscsccscsccccsccscssccsccscsccccsccssccccccccccccccccsccccccscccccccccccccccccccccscscccscscccccccccccccccccccccccccscccccccsccccccscscccccccccccccccsccccccccccccccscccccccccccccccccscccccccccscccccscccccccccccccccsccsccccscccccccccccccccccccccccsscccccccccccccccccccccccccccccccccc"
       style="fill:url(#pattern2793);fill-opacity:1;stroke:#0000ff;stroke-width:0.26458332px;stroke-linecap:butt;stroke-linejoin:miter;stroke-opacity:1"
       d="m 13.634357,59.626963 c 0,0 0.09203,-6.419582 0.105687,-6.446908 0.02228,-0.04456 0.08341,-0.06113 0.105687,-0.105688 0.04228,-0.08455 -0.04228,-0.23251 0,-0.31706 0.02228,-0.04456 0.08341,-0.06112 0.105687,-0.105688 0.04228,-0.08455 -0.04228,-0.232511 0,-0.317061 0.02228,-0.04456 0.08341,-0.06112 0.105687,-0.105685 0.02867,-0.05733 -0.02892,-0.39383 0,-0.422749 0.02491,-0.02492 0.08078,0.0249 0.105687,0 0.02491,-0.02492 0,-0.07046 0,-0.105688 0.03523,0 0.08078,0.0249 0.105687,0 0.05284,-0.05284 -0.05284,-0.264218 0,-0.31706 0.02491,-0.02492 0.08078,0.0249 0.105687,0 0.02491,-0.02492 -0.01576,-0.07418 0,-0.105688 0.02228,-0.04456 0.07046,-0.07046 0.105687,-0.105685 0.03523,-0.03523 0.06113,-0.08341 0.105687,-0.105688 0.03151,-0.01577 0.08078,0.0249 0.105687,0 0.02491,-0.02492 -0.02491,-0.08078 0,-0.105688 0.02491,-0.02492 0.07418,0.01577 0.105687,0 0.04456,-0.02228 0.07046,-0.07046 0.105687,-0.105688 0.03523,-0.03523 0.08341,-0.06112 0.105687,-0.105685 0.07289,-0.14578 -0.127993,-0.09454 0.105687,-0.211376 0.03151,-0.01574 0.07418,0.01577 0.105687,0 0.04456,-0.02228 0.07046,-0.07046 0.105687,-0.105685 0.03523,-0.03523 0.08341,-0.06113 0.105687,-0.105687 0.01576,-0.03151 -0.01576,-0.07418 0,-0.105688 0.052,-0.103997 0.370748,-0.318749 0.422748,-0.422746 0.01576,-0.03151 -0.01576,-0.07418 0,-0.105688 0.06341,-0.126825 0.253649,-0.190238 0.317061,-0.317061 0.03151,-0.06302 -0.03151,-0.148354 0,-0.211375 0.04456,-0.08912 0.166812,-0.122251 0.211374,-0.211373 0.01576,-0.03151 0,-0.07046 0,-0.105688 0.03523,-0.03523 0.08341,-0.06112 0.105687,-0.105685 0.01576,-0.03151 -0.01576,-0.07418 0,-0.105688 0.04456,-0.08912 0.166813,-0.122251 0.211374,-0.211376 0.03209,-0.06418 -0.03209,-0.569944 0,-0.634121 0.02228,-0.04456 0.08341,-0.06112 0.105687,-0.105686 0.01576,-0.03151 -0.01576,-0.07418 0,-0.105687 0.02228,-0.04456 0.08341,-0.06113 0.105687,-0.105688 0.01576,-0.03151 -0.01576,-0.07418 0,-0.105688 0.02228,-0.04456 0.08341,-0.06112 0.105687,-0.105685 0.03151,-0.06302 -0.03151,-0.148355 0,-0.211376 0.02228,-0.04456 0.08341,-0.06112 0.105687,-0.105685 0.01576,-0.03151 -0.01114,-0.07227 0,-0.105688 0.04982,-0.149463 0.161553,-0.273285 0.211374,-0.422748 0.0248,-0.07441 0,-0.637755 0,-0.73981 v -1.05687 c 0,-0.05527 -0.0139,-0.394957 0,-0.422749 0.02228,-0.04456 0.08341,-0.06112 0.105687,-0.105685 0.03151,-0.06302 -0.03151,-0.148354 0,-0.211375 0.02228,-0.04456 0.08341,-0.06112 0.105687,-0.105686 0.01608,-0.03216 0,-0.269464 0,-0.31706 v -1.05687 c 0,-0.02511 -0.01184,-0.399061 0,-0.422749 0.02228,-0.04456 0.08341,-0.06113 0.105687,-0.105688 0.01389,-0.02779 0,-0.367482 0,-0.422748 V 40.28624 39.22937 c 0,-0.09954 -0.02004,-0.468315 0,-0.528436 0.01576,-0.04727 0.08341,-0.06112 0.105687,-0.105688 0.01389,-0.02779 0,-0.36748 0,-0.422746 v -1.05687 -1.268246 c 0,-0.102397 -0.021,-0.571103 0,-0.634122 0.02491,-0.07473 0.08078,-0.136641 0.105687,-0.211373 0.01114,-0.03342 -0.01114,-0.07227 0,-0.105688 0.02491,-0.07473 0.08078,-0.136641 0.105687,-0.211372 0.01114,-0.03342 0,-0.07046 0,-0.105688 v -0.211376 -0.845494 -0.528437 c 0,-0.06945 -0.01987,-0.257432 0,-0.317061 0.137197,-0.411588 0.105687,-0.0099 0.105687,-0.422746 v -0.951185 c 0,-0.140914 -0.03418,-0.286038 0,-0.422748 0.01208,-0.04833 0.08341,-0.06112 0.105687,-0.105685 0.01576,-0.03151 0,-0.07046 0,-0.105688 0,-0.07046 -0.01709,-0.143021 0,-0.211373 0.01911,-0.07642 0.08078,-0.136644 0.105687,-0.211376 0.01114,-0.03342 0,-0.07046 0,-0.105685 V 29.928911 29.29479 c 0,-0.07046 -0.02228,-0.144531 0,-0.211373 0.02491,-0.07473 0.08078,-0.136644 0.105687,-0.211376 0.03356,-0.100679 -0.03431,-0.425489 0,-0.528434 0.02491,-0.07473 0.08078,-0.136644 0.105687,-0.211375 0.02217,-0.06652 0,-0.433171 0,-0.528434 0,-0.03523 -0.02491,-0.08078 0,-0.105688 0.0557,-0.0557 0.155673,-0.04998 0.211375,-0.105688 0.0034,-0.0034 0,-0.291427 0,-0.31706 0,-0.07351 -0.01911,-0.490215 0,-0.528435 0.02228,-0.04456 0.08341,-0.06113 0.105687,-0.105687 0.03352,-0.06704 -0.03433,-0.459778 0,-0.528435 0.02228,-0.04456 0.08341,-0.06113 0.105687,-0.105687 0.01575,-0.03151 -0.01576,-0.07418 0,-0.105687 0.02228,-0.04456 0.08341,-0.06113 0.105687,-0.105687 0.03334,-0.06668 -0.03334,-0.46176 0,-0.528435 0.02228,-0.04456 0.08341,-0.06112 0.105687,-0.105687 0.01576,-0.03151 -0.01576,-0.07418 0,-0.105687 0.02228,-0.04456 0.08341,-0.06113 0.105687,-0.105687 0.05635,-0.112693 -0.05635,-0.09868 0,-0.211374 0.02228,-0.04456 0.08341,-0.06113 0.105687,-0.105687 0.01576,-0.03151 -0.01576,-0.07418 0,-0.105687 0.02228,-0.04456 0.08341,-0.06113 0.105687,-0.105687 0.03151,-0.06302 -0.03151,-0.148355 0,-0.211374 0.02228,-0.04456 0.08341,-0.06112 0.105687,-0.105687 0.01576,-0.03151 -0.01576,-0.07418 0,-0.105687 0.350519,-0.35052 -0.04982,0.09964 0.105687,-0.211374 0.02228,-0.04456 0.08341,-0.06113 0.105687,-0.105687 0.01576,-0.03151 -0.01576,-0.07418 0,-0.105687 0.02228,-0.04456 0.08341,-0.06113 0.105687,-0.105687 0.03151,-0.06302 -0.03151,-0.148355 0,-0.211374 0.02228,-0.04456 0.08341,-0.06113 0.105687,-0.105687 0.03151,-0.06302 -0.03151,-0.148354 0,-0.211374 0.350519,-0.35052 -0.04982,0.09964 0.105687,-0.211374 0.02228,-0.04456 0.08341,-0.06113 0.105687,-0.105687 0.01576,-0.03151 -0.01576,-0.07418 0,-0.105687 0.02228,-0.04456 0.08341,-0.06113 0.105687,-0.105687 0.03321,-0.06643 -0.03321,-0.356322 0,-0.422748 0.04456,-0.08912 0.166812,-0.122251 0.211374,-0.211374 0.03151,-0.06302 -0.04982,-0.161553 0,-0.211374 0.02491,-0.02491 0.08078,0.02491 0.105687,0 0.02491,-0.02491 -0.02491,-0.08078 0,-0.105687 0.02491,-0.02491 0.08078,0.02491 0.105687,0 0.0371,-0.0371 -0.0365,-0.455434 0,-0.528435 0.219922,-0.439844 -0.0073,0.112983 0.211374,-0.105687 0.04982,-0.04982 -0.03151,-0.148355 0,-0.211374 0.219922,-0.439844 -0.0073,0.112983 0.211374,-0.105687 0.21867,-0.218671 -0.334157,0.0085 0.105687,-0.211374 0.14578,-0.07289 0.09453,0.127992 0.211374,-0.105687 0.07289,-0.145781 -0.127993,-0.09454 0.105687,-0.211374 0.06302,-0.03151 0.161552,0.04982 0.211374,0 0.02491,-0.02491 -0.02491,-0.08078 0,-0.105687 0.04982,-0.04982 0.148354,0.03151 0.211374,0 0.439844,-0.219923 -0.112983,0.0073 0.105687,-0.211375 0.02491,-0.02491 0.07418,0.01576 0.105687,0 0.04456,-0.02228 0.07046,-0.07046 0.105687,-0.105687 l 0.105687,-0.105687 0.105687,-0.105687 c 0.03523,-0.03523 0.06113,-0.08341 0.105687,-0.105687 0.03151,-0.01576 0.07418,0.01576 0.105687,0 0.168747,-0.08437 0.04263,-0.127 0.211374,-0.211374 0.02779,-0.0139 0.367482,0 0.422748,0 h 1.05687 1.585305 c 0.07491,0 0.606797,-0.01366 0.634123,0 0.04456,0.02228 0.06113,0.08341 0.105687,0.105687 0.03151,0.01576 0.07418,-0.01576 0.105686,0 0.04456,0.02228 0.06113,0.08341 0.105687,0.105687 0.06302,0.03151 0.148355,-0.03151 0.211373,0 0.04456,0.02228 0.06113,0.08341 0.105688,0.105687 0.03151,0.01576 0.07418,-0.01576 0.105688,0 0.126825,0.06341 0.190235,0.253649 0.317061,0.317061 0.06302,0.03151 0.148354,-0.03151 0.211373,0 0.04456,0.02228 0.06113,0.08341 0.105688,0.105688 0.03151,0.01576 0.08078,-0.02491 0.105687,0 0.0249,0.02491 -0.0249,0.08078 0,0.105687 0.0249,0.02491 0.07418,-0.01576 0.105685,0 0.126826,0.06341 0.190239,0.253648 0.317064,0.317061 0.03151,0.01576 0.08078,-0.02491 0.105685,0 0.0249,0.02491 -0.0249,0.08078 0,0.105687 0.0249,0.02491 0.07418,-0.01576 0.105688,0 0.126825,0.06341 0.190235,0.253648 0.317061,0.317061 0.03151,0.01576 0.07418,-0.01576 0.105687,0 0.02806,0.01403 0.30303,0.289 0.317061,0.317061 0.01574,0.03151 -0.0249,0.08078 0,0.105687 0.21867,0.21867 -0.0085,-0.334157 0.211373,0.105687 0,0.281832 -0.03523,-0.03523 0.105688,0.105687 0.04982,0.04982 -0.04982,0.161552 0,0.211374 0.0249,0.02491 0.08078,-0.02491 0.105688,0 0.04982,0.04982 -0.03151,0.148354 0,0.211374 0.02228,0.04456 0.0834,0.06113 0.105685,0.105687 0.03334,0.06667 -0.03334,0.46176 0,0.528435 0.02228,0.04456 0.08341,0.06112 0.105688,0.105687 0.01577,0.03151 -0.01574,0.07418 0,0.105687 0.02228,0.04456 0.08341,0.06113 0.105688,0.105687 0.05636,0.112732 -0.05637,0.09864 0,0.211374 0.02228,0.04456 0.0834,0.06113 0.105685,0.105687 0.03151,0.06302 -0.03151,0.148354 0,0.211374 0.04456,0.08912 0.156104,0.128466 0.211375,0.211374 0.162005,0.243006 0.04937,0.285429 0.211373,0.528435 0.05527,0.08291 0.179864,0.116845 0.211376,0.211374 0.02228,0.06684 -0.01709,0.14302 0,0.211374 0.127587,0.510357 0.05022,-0.0052 0.211373,0.317061 0.01577,0.03151 -0.01577,0.07418 0,0.105687 0.02228,0.04456 0.07805,0.06423 0.105688,0.105687 0.0437,0.06555 0.06199,0.14583 0.105685,0.211374 0.02764,0.04145 0.07805,0.06423 0.105688,0.105687 0.162004,0.243006 0.04937,0.285429 0.211375,0.528435 0.02764,0.04145 0.08341,0.06113 0.105686,0.105687 0.01577,0.03151 0,0.07046 0,0.105687 0.03523,0.07046 0.06199,0.14583 0.105687,0.211374 0.02764,0.04145 0.08993,0.05842 0.105688,0.105687 0.01611,0.04834 -0.02352,0.37572 0,0.422748 0.02228,0.04456 0.0834,0.06113 0.105685,0.105687 0.01577,0.03151 -0.01114,0.07227 0,0.105686 0.0249,0.07473 0.08078,0.136644 0.105688,0.211376 0.01114,0.03342 0,0.07046 0,0.105688 0.03523,0.07045 0.07046,0.140914 0.105688,0.211372 0.03523,0.07046 0.06199,0.145831 0.105685,0.211373 0.02764,0.04145 0.08994,0.05842 0.105688,0.105688 0.01611,0.04834 -0.02352,0.375719 0,0.422749 0.02228,0.04456 0.08993,0.05842 0.105688,0.105688 0.02228,0.06684 0,0.140914 0,0.211373 0,0.03523 -0.01577,0.07418 0,0.105687 0.04456,0.08912 0.166812,0.122251 0.211373,0.211373 0.01577,0.03151 0,0.07046 0,0.105688 0.03523,0.105685 0.04837,0.221533 0.105688,0.317061 0.05127,0.08544 0.156101,0.128466 0.211373,0.211373 0.03908,0.05863 -0.02228,0.144531 0,0.211376 0.0249,0.07473 0.08078,0.136641 0.105687,0.211373 0.01114,0.03342 -0.01577,0.07418 0,0.105687 0.02228,0.04456 0.08341,0.06112 0.105688,0.105686 0.04982,0.09964 0.07867,0.208983 0.105685,0.317063 0.0085,0.03418 -0.01574,0.07418 0,0.105685 0.02228,0.04456 0.08341,0.06113 0.105688,0.105688 0.01577,0.03151 -0.01577,0.07418 0,0.105688 0.02228,0.04456 0.08341,0.06112 0.105688,0.105685 0.01574,0.03151 0,0.07046 0,0.105688 0,0.07046 -0.02228,0.144531 0,0.211373 0.01574,0.04726 0.08993,0.05842 0.105685,0.105688 0.02228,0.06684 -0.02228,0.144531 0,0.211375 0.01577,0.04726 0.08993,0.05842 0.105688,0.105685 0.01611,0.04834 -0.02352,0.375722 0,0.422749 0.02228,0.04456 0.08341,0.06113 0.105688,0.105688 0.03151,0.06302 -0.02228,0.144531 0,0.211373 0.0249,0.07473 0.08078,0.136641 0.105688,0.211375 0.02966,0.08898 -0.03146,0.465511 0,0.528434 0.02228,0.04456 0.0834,0.06113 0.105685,0.105688 0.03151,0.06302 -0.03151,0.148354 0,0.211373 0.04456,0.08912 0.166814,0.122251 0.211375,0.211376 0.01574,0.03151 0,0.07046 0,0.105685 0.03523,0.03523 0.0834,0.06113 0.105686,0.105688 0.03151,0.06302 -0.03151,0.148354 0,0.211373 0.02228,0.04456 0.08341,0.06113 0.105687,0.105687 0.03151,0.06302 -0.03151,0.148355 0,0.211373 0.35052,0.35052 -0.04982,-0.09964 0.105688,0.211376 0.02228,0.04456 0.0834,0.06112 0.105685,0.105685 0.03149,0.06298 -0.02455,0.430239 0,0.528436 0.266957,1.067822 -0.03816,-0.07633 0.211376,0.422749 0.01574,0.03151 -0.01114,0.07227 0,0.105685 0.02492,0.07473 0.08078,0.136644 0.105688,0.211376 0.01114,0.03342 -0.01577,0.07418 0,0.105688 0.02228,0.04456 0.0834,0.06112 0.105685,0.105685 0.03151,0.06302 -0.03151,0.148354 0,0.211375 0.02228,0.04456 0.08993,0.05842 0.105688,0.105686 0.02228,0.06684 0,0.140917 0,0.211375 0,0.03523 -0.01577,0.07418 0,0.105685 0.02228,0.04456 0.08341,0.06113 0.105688,0.105688 0.01574,0.03151 0,0.07046 0,0.105688 0.03523,0.07046 0.06199,0.14583 0.105685,0.211373 0.02764,0.04145 0.08341,0.06113 0.105688,0.105688 0.03151,0.06302 -0.02228,0.144531 0,0.211373 0.07473,0.224197 0.242329,0.409927 0.31706,0.634124 0.03256,0.09768 -0.03286,0.42985 0,0.528434 0.0249,0.07473 0.08078,0.136641 0.105688,0.211373 0.01114,0.03342 -0.01114,0.07227 0,0.105688 0.0249,0.07473 0.08078,0.136641 0.105688,0.211375 0.01114,0.03342 -0.01577,0.07418 0,0.105685 0.02228,0.04456 0.0834,0.06113 0.105685,0.105688 0.0289,0.0578 -0.01799,0.245137 0,0.317061 0.02702,0.108077 0.07867,0.208984 0.105688,0.317061 0.0085,0.03418 -0.01577,0.07418 0,0.105688 0.02228,0.04456 0.08993,0.05842 0.105688,0.105687 0.02228,0.06684 -0.02228,0.144532 0,0.211373 0.01574,0.04727 0.0834,0.06112 0.105685,0.105688 0.01577,0.03151 0,0.07046 0,0.105685 0.03523,0.03523 0.08341,0.06113 0.105688,0.105688 0.01577,0.03151 0,0.07046 0,0.105688 0,0.07046 -0.02228,0.144531 0,0.211373 0.01577,0.04727 0.08341,0.06113 0.105687,0.105688 0.01574,0.03151 0,0.07046 0,0.105688 0,0.08261 -0.01926,0.682035 0,0.739806 0.0249,0.07473 0.08078,0.136644 0.105686,0.211376 0.02228,0.06684 -0.03151,0.148354 0,0.211373 0.02228,0.04456 0.08993,0.05842 0.105687,0.105688 0.02228,0.06684 0,0.140914 0,0.211373 0,0.03523 -0.01574,0.07418 0,0.105688 0.02228,0.04456 0.08993,0.05842 0.105688,0.105687 0.01611,0.04834 -0.02352,0.375719 0,0.422746 0.02228,0.04456 0.0834,0.06113 0.105688,0.105688 0.01574,0.03151 0,0.07046 0,0.105688 0.03523,0.03523 0.0834,0.06112 0.105685,0.105688 0.03151,0.06302 -0.02228,0.144531 0,0.211373 0.0249,0.07473 0.08078,0.136641 0.105688,0.211373 0.02424,0.0727 -0.03118,0.254703 0,0.31706 0.02228,0.04456 0.08341,0.06113 0.105688,0.105688 0.04228,0.08455 -0.04227,0.232513 0,0.317061 0.04456,0.08912 0.166812,0.122251 0.211373,0.211376 0.03151,0.06302 -0.03151,0.148354 0,0.211373 0.35052,0.35052 -0.04982,-0.09964 0.105688,0.211373 0.02228,0.04456 0.0834,0.06113 0.105685,0.105687 0.01577,0.03151 -0.01574,0.07418 0,0.105688 0.06341,0.126823 0.253651,0.190236 0.317063,0.317061 0.01574,0.03151 -0.01577,0.07418 0,0.105688 0.02228,0.04456 0.0834,0.06112 0.105685,0.105685 0.01577,0.03151 0,0.07046 0,0.105688 0.03523,0.03523 0.08341,0.06113 0.105688,0.105688 0.03151,0.06302 -0.03151,0.148354 0,0.211373 0.06341,0.126825 0.253648,0.190238 0.317061,0.31706 0.155509,0.311018 -0.244832,-0.139144 0.105688,0.211376 l 0.105685,0.105685 c 0.03523,0.03523 0.08341,0.06113 0.105688,0.105688 0.01577,0.03151 -0.01574,0.07418 0,0.105688 0.02228,0.04456 0.08341,0.06112 0.105688,0.105685 0.04228,0.08455 -0.04227,0.232513 0,0.317063 0.04456,0.08912 0.166811,0.122251 0.211373,0.211373 0.01577,0.03151 0,0.07046 0,0.105688 0.03523,0.03523 0.08341,0.06112 0.105687,0.105685 0.03151,0.06302 -0.03151,0.148355 0,0.211376 0.02228,0.04456 0.08341,0.06112 0.105688,0.105685 0.01574,0.03151 -0.01577,0.07418 0,0.105688 0.02228,0.04456 0.08341,0.06113 0.105685,0.105688 0.03151,0.06302 -0.03151,0.148354 0,0.211373 0.02228,0.04456 0.08341,0.06113 0.105688,0.105688 0.03151,0.06302 -0.03151,0.148354 0,0.211373 0.35052,0.35052 -0.04982,-0.09964 0.105688,0.211375 0.02228,0.04456 0.0834,0.06112 0.105685,0.105685 0.03151,0.06302 -0.03151,0.148355 0,0.211376 0.02228,0.04456 0.08341,0.06112 0.105688,0.105688 0.03151,0.06302 -0.03151,0.148352 0,0.211373 0.06341,0.126825 0.253648,0.190235 0.317061,0.317061 0.01577,0.03151 -0.01574,0.07418 0,0.105687 0.02228,0.04456 0.08341,0.06112 0.105688,0.105685 0.01577,0.03151 -0.01577,0.07418 0,0.105688 0.02228,0.04456 0.08341,0.06113 0.105687,0.105688 0.01574,0.03151 -0.01577,0.07418 0,0.105685 0.06341,0.126826 0.253649,0.190238 0.317061,0.317064 0.01574,0.03151 -0.01577,0.07418 0,0.105685 0.02822,0.05645 0.261419,0.261421 0.317061,0.317061 l 0.528434,0.528436 c 0.07046,0.07046 0.131662,0.151588 0.211375,0.211373 0.06302,0.04727 0.145828,0.06199 0.211373,0.105688 0.09621,0.06414 0.223388,0.270224 0.317061,0.317061 l 0.04705,6.745736 -29.110971,-0.08745"
       id="path2789"
       inkscape:connector-curvature="0" />
  </g>
</svg>
