<?xml version="1.0" encoding="UTF-8" standalone="no"?>
<!-- Created with Inkscape (http://www.inkscape.org/) -->

<svg
   xmlns:dc="http://purl.org/dc/elements/1.1/"
   xmlns:cc="http://creativecommons.org/ns#"
   xmlns:rdf="http://www.w3.org/1999/02/22-rdf-syntax-ns#"
   xmlns:svg="http://www.w3.org/2000/svg"
   xmlns="http://www.w3.org/2000/svg"
   xmlns:sodipodi="http://sodipodi.sourceforge.net/DTD/sodipodi-0.dtd"
   xmlns:inkscape="http://www.inkscape.org/namespaces/inkscape"
   width="61.418903mm"
   height="60.237789mm"
   viewBox="0 0 217.62604 213.44098"
   id="svg2"
   version="1.1"
   inkscape:version="0.91 r13725"
   sodipodi:docname="projection1.svg">
  <sodipodi:namedview
     id="base"
     pagecolor="#ffffff"
     bordercolor="#666666"
     borderopacity="1.0"
     inkscape:pageopacity="0.0"
     inkscape:pageshadow="2"
     inkscape:zoom="2.7018545"
     inkscape:cx="34.406901"
     inkscape:cy="114.16513"
     inkscape:document-units="px"
     inkscape:current-layer="layer1"
     showgrid="false"
     inkscape:window-width="1631"
     inkscape:window-height="1032"
     inkscape:window-x="49"
     inkscape:window-y="48"
     inkscape:window-maximized="1"
     fit-margin-top="0"
     fit-margin-left="0"
     fit-margin-right="0"
     fit-margin-bottom="0" />
  <defs
     id="defs4">
    <marker
       inkscape:stockid="Arrow1Mend"
       orient="auto"
       refY="0"
       refX="0"
       id="marker6800"
       style="overflow:visible"
       inkscape:isstock="true">
      <path
         id="path6802"
         d="M 0,0 5,-5 -12.5,0 5,5 0,0 Z"
         style="fill:#ff0000;fill-opacity:1;fill-rule:evenodd;stroke:#ff0000;stroke-width:1pt;stroke-opacity:1"
         transform="matrix(-0.4,0,0,-0.4,-4,0)"
         inkscape:connector-curvature="0" />
    </marker>
    <marker
       inkscape:stockid="Arrow1Mend"
       orient="auto"
       refY="0"
       refX="0"
       id="marker6458"
       style="overflow:visible"
       inkscape:isstock="true">
      <path
         id="path6460"
         d="M 0,0 5,-5 -12.5,0 5,5 0,0 Z"
         style="fill:#ff0000;fill-opacity:1;fill-rule:evenodd;stroke:#ff0000;stroke-width:1pt;stroke-opacity:1"
         transform="matrix(-0.4,0,0,-0.4,-4,0)"
         inkscape:connector-curvature="0" />
    </marker>
    <marker
       inkscape:collect="always"
       inkscape:isstock="true"
       style="overflow:visible"
       id="marker4670"
       refX="0"
       refY="0"
       orient="auto"
       inkscape:stockid="Arrow1Mend">
      <path
         transform="matrix(-0.4,0,0,-0.4,-4,0)"
         style="fill:#a10000;fill-opacity:1;fill-rule:evenodd;stroke:#a10000;stroke-width:1pt;stroke-opacity:1"
         d="M 0,0 5,-5 -12.5,0 5,5 0,0 Z"
         id="path4672"
         inkscape:connector-curvature="0" />
    </marker>
    <marker
       inkscape:isstock="true"
       style="overflow:visible"
       id="Arrow1Mend"
       refX="0"
       refY="0"
       orient="auto"
       inkscape:stockid="Arrow1Mend">
      <path
         transform="matrix(-0.4,0,0,-0.4,-4,0)"
         style="fill:#008242;fill-opacity:1;fill-rule:evenodd;stroke:#008242;stroke-width:1pt;stroke-opacity:1"
         d="M 0,0 5,-5 -12.5,0 5,5 0,0 Z"
         id="path4175"
         inkscape:connector-curvature="0" />
    </marker>
  </defs>
  <metadata
     id="metadata7">
    <rdf:RDF>
      <cc:Work
         rdf:about="">
        <dc:format>image/svg+xml</dc:format>
        <dc:type
           rdf:resource="http://purl.org/dc/dcmitype/StillImage" />
        <dc:title />
      </cc:Work>
    </rdf:RDF>
  </metadata>
  <g
     id="layer1"
     inkscape:groupmode="layer"
     inkscape:label="Layer 1"
     transform="translate(-91.899149,-22.02451)">
    <rect
       transform="matrix(0.93189348,-0.36273206,-0.34337214,0.93919943,0,0)"
       y="226.26123"
       x="247.53928"
       height="107.75211"
       width="144.4819"
       id="rect4136"
       style="fill:#e6ffe6;fill-opacity:1;stroke:#000000;stroke-width:1.7467376;stroke-miterlimit:4;stroke-dasharray:none;stroke-dashoffset:0;stroke-opacity:1" />
    <path
       sodipodi:nodetypes="ccc"
       inkscape:connector-curvature="0"
       id="path4144"
       d="m 151.12694,22.02451 0,102.38139 149.97582,0"
       style="fill:none;fill-rule:evenodd;stroke:#000000;stroke-width:1px;stroke-linecap:butt;stroke-linejoin:miter;stroke-opacity:1" />
    <path
       sodipodi:nodetypes="cc"
       inkscape:connector-curvature="0"
       id="path4146"
       d="M 151.12694,124.4059 92.252702,183.28015"
       style="fill:none;fill-rule:evenodd;stroke:#000000;stroke-width:1px;stroke-linecap:butt;stroke-linejoin:miter;stroke-opacity:1" />
    <path
       sodipodi:nodetypes="cc"
       inkscape:connector-curvature="0"
       id="path4152"
       d="M 148.65221,125.37955 309.34316,62.568757"
       style="fill:none;fill-rule:evenodd;stroke:#000000;stroke-width:1;stroke-linecap:butt;stroke-linejoin:miter;stroke-miterlimit:4;stroke-dasharray:1, 2;stroke-dashoffset:0;stroke-opacity:1" />
    <path
       sodipodi:nodetypes="cc"
       style="fill:none;fill-rule:evenodd;stroke:#000000;stroke-width:1;stroke-linecap:butt;stroke-linejoin:miter;stroke-miterlimit:4;stroke-dasharray:1, 2;stroke-dashoffset:0;stroke-opacity:1"
       d="M 151.79276,123.80928 112.27431,235.29845"
       id="path4154"
       inkscape:connector-curvature="0" />
    <path
       style="fill:none;fill-rule:evenodd;stroke:#000000;stroke-width:1;stroke-linecap:butt;stroke-linejoin:miter;stroke-miterlimit:4;stroke-dasharray:1, 2;stroke-dashoffset:0;stroke-opacity:1"
       d="M 128.76213,186.09665 280.55488,127.99667"
       id="path4156"
       inkscape:connector-curvature="0"
       sodipodi:nodetypes="cc" />
    <path
       style="fill:none;fill-rule:evenodd;stroke:#000000;stroke-width:1;stroke-linecap:butt;stroke-linejoin:miter;stroke-miterlimit:4;stroke-dasharray:1, 2;stroke-dashoffset:0;stroke-opacity:1"
       d="M 243.91525,86.646225 196.80716,216.45521"
       id="path4158"
       inkscape:connector-curvature="0" />
    <path
       sodipodi:nodetypes="cc"
       inkscape:connector-curvature="0"
       id="path4160"
       d="m 152.31618,122.76244 63.07251,25.64774"
       style="fill:none;fill-rule:evenodd;stroke:#008242;stroke-width:3;stroke-linecap:butt;stroke-linejoin:miter;stroke-miterlimit:4;stroke-dasharray:none;stroke-opacity:1;marker-end:url(#Arrow1Mend)" />
    <path
       sodipodi:nodetypes="cc"
       inkscape:connector-curvature="0"
       id="path4454"
       d="M 154.40987,121.71559 144.98826,68.849836"
       style="fill:none;fill-rule:evenodd;stroke:#a10000;stroke-width:3;stroke-linecap:butt;stroke-linejoin:miter;stroke-miterlimit:4;stroke-dasharray:none;stroke-opacity:1;marker-end:url(#marker4670)" />
    <path
       style="fill:none;fill-rule:evenodd;stroke:#a10000;stroke-width:3;stroke-linecap:butt;stroke-linejoin:miter;stroke-miterlimit:4;stroke-dasharray:none;stroke-dashoffset:0;stroke-opacity:1"
       d="m 152.8396,123.28586 29.31171,-4.18739"
       id="path6456"
       inkscape:connector-curvature="0"
       sodipodi:nodetypes="cc" />
    <path
       sodipodi:nodetypes="cc"
       inkscape:connector-curvature="0"
       id="path6786"
       d="m 131.42249,45.831896 49.1153,74.300744"
       style="fill:none;fill-rule:evenodd;stroke:#000000;stroke-width:1;stroke-linecap:butt;stroke-linejoin:miter;stroke-miterlimit:4;stroke-dasharray:1, 2;stroke-dashoffset:0;stroke-opacity:1" />
    <path
       sodipodi:nodetypes="cc"
       inkscape:connector-curvature="0"
       id="path6788"
       d="M 183.19815,110.7237 147.86708,225.09169"
       style="fill:none;fill-rule:evenodd;stroke:#000000;stroke-width:1;stroke-linecap:butt;stroke-linejoin:miter;stroke-miterlimit:4;stroke-dasharray:1, 2;stroke-dashoffset:0;stroke-opacity:1" />
    <path
       sodipodi:nodetypes="cc"
       inkscape:connector-curvature="0"
       id="path6790"
       d="M 149.17564,130.8755 306.46434,70.420106"
       style="fill:none;fill-rule:evenodd;stroke:#000000;stroke-width:1;stroke-linecap:butt;stroke-linejoin:miter;stroke-miterlimit:4;stroke-dasharray:1, 2;stroke-dashoffset:0;stroke-opacity:1" />
    <path
       style="fill:none;fill-rule:evenodd;stroke:#a10000;stroke-width:3;stroke-linecap:butt;stroke-linejoin:miter;stroke-miterlimit:4;stroke-dasharray:none;stroke-dashoffset:0;stroke-opacity:1"
       d="M 154.40987,121.71559 117.24681,68.326412"
       id="path6798"
       inkscape:connector-curvature="0"
       sodipodi:nodetypes="cc" />
    <path
       sodipodi:nodetypes="cc"
       inkscape:connector-curvature="0"
       id="path8622"
       d="m 116.72339,68.849837 41.35045,-7.32793"
       style="fill:none;fill-rule:evenodd;stroke:#000000;stroke-width:1;stroke-linecap:butt;stroke-linejoin:miter;stroke-miterlimit:4;stroke-dasharray:1, 1;stroke-dashoffset:0;stroke-opacity:1" />
    <g
       transform="matrix(0.75930543,0,0,0.75930543,-8.3440497,-55.598599)"
       id="g9521"
       style="fill:#008141;fill-opacity:1">
      <g
         style="font-style:normal;font-variant:normal;font-weight:normal;font-stretch:normal;letter-spacing:normal;word-spacing:normal;text-anchor:start;fill:#008141;fill-opacity:1;fill-rule:evenodd;stroke:#000000;stroke-linecap:butt;stroke-linejoin:miter;stroke-miterlimit:10.43299961;stroke-dasharray:none;stroke-dashoffset:0;stroke-opacity:1"
         id="g9523"
         transform="matrix(1.0629921,0,0,-1.0629921,-186.02362,789.27165)"
         xml:space="preserve"
         stroke-miterlimit="10.433"
         font-style="normal"
         font-variant="normal"
         font-weight="normal"
         font-stretch="normal"
         font-size-adjust="none"
         letter-spacing="normal"
         word-spacing="normal"><path
           style="fill:#008141;fill-opacity:1;stroke-width:0"
           inkscape:connector-curvature="0"
           d="m 465.88,439.87 -9.56,0 0,-1.19 c 2.29,-0.45 2.64,-0.84 2.64,-2.89 l 0,-25.4 c 0,-2.1 -0.39,-2.55 -2.64,-2.99 l 0,-1.2 12,0 0,1.2 c -1.85,0.24 -2.44,0.99 -2.44,2.83 l 0,13.31 c 0,0.19 0.36,0.69 0.84,1.14 1.11,1.14 2.3,1.75 3.44,1.75 1.75,0 2.59,-1.36 2.59,-4.14 l 0,-12.06 c 0,-1.84 -0.64,-2.64 -2.34,-2.83 l 0,-1.2 11.72,0 0,1.2 c -1.8,0.14 -2.45,0.89 -2.45,2.99 l 0,12.36 c 0,4.28 -2.64,7.01 -6.72,7.01 -2.64,0 -4.49,-1 -7.08,-3.89 z"
           id="path9525" /><path
           style="fill:#008141;fill-opacity:1;stroke-width:0"
           inkscape:connector-curvature="0"
           d="m 491.71,420.77 -7.77,0 0,-0.91 c 0.74,0 1.36,-0.56 3.13,-2.65 l 0,-17.46 c 0,-2.11 -0.55,-2.62 -3.24,-2.95 l 0,-0.92 8.36,0 0,0.92 c -2.84,0.33 -3.5,1.03 -3.5,3.64 l 0,14.81 16.47,-20.03 1.03,0 0,21.69 c 0,2.09 0.47,2.58 2.86,2.95 l 0,0.91 -7.91,0 0,-0.91 c 2.72,-0.26 3.43,-1.03 3.43,-3.65 l 0,-11.24 z"
           id="path9527" /></g>    </g>
    <g
       id="g9605"
       transform="matrix(0.63828407,0,0,0.63828407,-27.826059,-146.47012)"
       style="fill:#a10000;fill-opacity:1">
      <g
         word-spacing="normal"
         letter-spacing="normal"
         font-size-adjust="none"
         font-stretch="normal"
         font-weight="normal"
         font-variant="normal"
         font-style="normal"
         stroke-miterlimit="10.433"
         xml:space="preserve"
         transform="matrix(1.0629921,0,0,-1.0629921,-186.02362,789.27165)"
         id="g9607"
         style="font-style:normal;font-variant:normal;font-weight:normal;font-stretch:normal;letter-spacing:normal;word-spacing:normal;text-anchor:start;fill:#a10000;fill-opacity:1;fill-rule:evenodd;stroke:#000000;stroke-linecap:butt;stroke-linejoin:miter;stroke-miterlimit:10.43299961;stroke-dasharray:none;stroke-dashoffset:0;stroke-opacity:1"><path
           id="path9609"
           d="m 476.44,414.17 -1.39,0 c -0.45,-1.6 -0.84,-2.49 -1.64,-3.53 -1.59,-2.21 -3.25,-2.85 -7.23,-2.85 l -1.44,0 11.5,20.08 0,1.3 -18.49,0 -0.34,-7.08 1.3,0 c 1.25,4.73 2.54,5.53 9.51,5.48 l -11.65,-20.12 0,-1.25 19.07,0 z"
           inkscape:connector-curvature="0"
           style="fill:#a10000;fill-opacity:1;stroke-width:0" /></g>    </g>
  </g>
</svg>
