<?xml version="1.0" encoding="UTF-8" standalone="no"?>
<!-- Created with Inkscape (http://www.inkscape.org/) -->

<svg
   xmlns:dc="http://purl.org/dc/elements/1.1/"
   xmlns:cc="http://creativecommons.org/ns#"
   xmlns:rdf="http://www.w3.org/1999/02/22-rdf-syntax-ns#"
   xmlns:svg="http://www.w3.org/2000/svg"
   xmlns="http://www.w3.org/2000/svg"
   xmlns:sodipodi="http://sodipodi.sourceforge.net/DTD/sodipodi-0.dtd"
   xmlns:inkscape="http://www.inkscape.org/namespaces/inkscape"
   width="261.68146mm"
   height="20.831661mm"
   viewBox="0 0 261.68146 20.831661"
   version="1.1"
   id="svg8"
   inkscape:version="0.92.4 (5da689c313, 2019-01-14)"
   sodipodi:docname="siso.svg">
  <defs
     id="defs2">
    <marker
       inkscape:stockid="Arrow2Lend"
       orient="auto"
       refY="0"
       refX="0"
       id="Arrow2Lend"
       style="overflow:visible"
       inkscape:isstock="true">
      <path
         id="path860"
         style="fill:#000000;fill-opacity:1;fill-rule:evenodd;stroke:#000000;stroke-width:0.625;stroke-linejoin:round;stroke-opacity:1"
         d="M 8.7185878,4.0337352 -2.2072895,0.01601326 8.7185884,-4.0017078 c -1.7454984,2.3720609 -1.7354408,5.6174519 -6e-7,8.035443 z"
         transform="matrix(-1.1,0,0,-1.1,-1.1,0)"
         inkscape:connector-curvature="0" />
    </marker>
  </defs>
  <sodipodi:namedview
     id="base"
     pagecolor="#ffffff"
     bordercolor="#666666"
     borderopacity="1.0"
     inkscape:pageopacity="0.0"
     inkscape:pageshadow="2"
     inkscape:zoom="1.8391062"
     inkscape:cx="496.80056"
     inkscape:cy="-53.625401"
     inkscape:document-units="mm"
     inkscape:current-layer="layer1"
     showgrid="false"
     fit-margin-top="0"
     fit-margin-left="0"
     fit-margin-right="0"
     fit-margin-bottom="0"
     inkscape:window-width="2490"
     inkscape:window-height="1016"
     inkscape:window-x="70"
     inkscape:window-y="27"
     inkscape:window-maximized="1" />
  <metadata
     id="metadata5">
    <rdf:RDF>
      <cc:Work
         rdf:about="">
        <dc:format>image/svg+xml</dc:format>
        <dc:type
           rdf:resource="http://purl.org/dc/dcmitype/StillImage" />
        <dc:title />
      </cc:Work>
    </rdf:RDF>
  </metadata>
  <g
     inkscape:label="Layer 1"
     inkscape:groupmode="layer"
     id="layer1"
     transform="translate(14.117977,-10.974458)">
    <rect
       style="fill:#ffffff;fill-opacity:1;stroke:#000000;stroke-width:0.32439616;stroke-miterlimit:4;stroke-dasharray:none;stroke-dashoffset:0;stroke-opacity:1"
       id="rect815"
       width="87.518036"
       height="19.460812"
       x="-13.955779"
       y="12.183109" />
    <path
       style="fill:none;stroke:#000000;stroke-width:0.26458332px;stroke-linecap:butt;stroke-linejoin:miter;stroke-opacity:1"
       d="m 73.65897,22.073648 h 7.193258 l 10e-7,-5.466876 -2.157978,-3.165034 h 4.603686 l -2.301843,3.165034"
       id="path817"
       inkscape:connector-curvature="0"
       sodipodi:nodetypes="cccccc" />
    <rect
       style="fill:#ffffff;fill-opacity:1;stroke:#000000;stroke-width:0.32439616;stroke-miterlimit:4;stroke-dasharray:none;stroke-dashoffset:0;stroke-opacity:1"
       id="rect815-3"
       width="87.518036"
       height="19.460812"
       x="-247.40128"
       y="11.136656"
       transform="scale(-1,1)" />
    <path
       style="fill:none;stroke:#000000;stroke-width:0.26458332px;stroke-linecap:butt;stroke-linejoin:miter;stroke-opacity:1"
       d="m 159.78652,19.987604 h -7.19325 l -1e-5,-5.466876 2.15798,-3.165034 h -4.60368 l 2.30184,3.165034"
       id="path817-6"
       inkscape:connector-curvature="0"
       sodipodi:nodetypes="cccccc" />
    <path
       style="fill:none;stroke:#000000;stroke-width:0.26458332px;stroke-linecap:butt;stroke-linejoin:miter;stroke-opacity:1;marker-end:url(#Arrow2Lend)"
       d="M 87.470026,17.613828 H 144.87224"
       id="path837"
       inkscape:connector-curvature="0"
       sodipodi:nodetypes="cc" />
    <text
       xml:space="preserve"
       style="font-style:normal;font-weight:normal;font-size:10.58333302px;line-height:1.25;font-family:sans-serif;letter-spacing:0px;word-spacing:0px;fill:#000000;fill-opacity:1;stroke:none;stroke-width:0.26458332"
       x="-0.39646786"
       y="25.859011"
       id="text1123"><tspan
         sodipodi:role="line"
         id="tspan1121"
         x="-0.39646786"
         y="25.859011"
         style="stroke-width:0.26458332">Transmitter</tspan></text>
    <text
       id="text1127"
       y="24.812557"
       x="180.22508"
       style="font-style:normal;font-weight:normal;font-size:10.58333302px;line-height:1.25;font-family:sans-serif;letter-spacing:0px;word-spacing:0px;fill:#000000;fill-opacity:1;stroke:none;stroke-width:0.26458332"
       xml:space="preserve"><tspan
         style="stroke-width:0.26458332"
         y="24.812557"
         x="180.22508"
         id="tspan1125"
         sodipodi:role="line">Receiver</tspan></text>
    <g
       transform="matrix(7.5730388,0,0,7.5730388,38.828195,-1365.4504)"
       id="g8139">
      <g
         style="font-style:normal;font-variant:normal;font-weight:normal;font-stretch:normal;letter-spacing:normal;word-spacing:normal;text-anchor:start;fill:none;fill-opacity:1;fill-rule:evenodd;stroke:#000000;stroke-linecap:butt;stroke-linejoin:miter;stroke-miterlimit:10.43299961;stroke-dasharray:none;stroke-dashoffset:0;stroke-opacity:1"
         word-spacing="normal"
         letter-spacing="normal"
         font-size-adjust="none"
         font-stretch="normal"
         font-weight="normal"
         font-variant="normal"
         font-style="normal"
         stroke-miterlimit="10.433"
         xml:space="preserve"
         transform="matrix(0.02975952,0,0,-0.02975952,-5.2079152,196.26109)"
         id="content"><path
           style="fill:#000000;stroke-width:0"
           inkscape:connector-curvature="0"
           id="path8132"
           d="m 470.16,438.09 v 0.05 0.06 0.05 0.05 0.05 0.05 0.04 0.05 0.04 0.04 l -0.01,0.04 v 0.04 0.04 0.03 0.04 l -0.01,0.03 -0.01,0.07 v 0.06 l -0.02,0.05 -0.01,0.05 -0.02,0.05 -0.02,0.04 -0.02,0.04 -0.02,0.03 -0.03,0.03 -0.03,0.03 -0.04,0.03 -0.04,0.02 -0.04,0.02 -0.03,0.01 -0.02,0.01 h -0.03 l -0.02,0.01 -0.03,0.01 h -0.03 l -0.03,0.01 h -0.03 l -0.04,0.01 h -0.03 -0.04 l -0.03,0.01 h -0.04 -0.04 -0.05 -0.04 -0.04 l -0.05,0.01 h -0.05 -0.05 -0.05 -0.05 c -3.09,-3.19 -7.47,-3.19 -9.06,-3.19 v -1.55 c 1,0 3.93,0 6.51,1.3 v -25.81 c 0,-1.8 -0.14,-2.39 -4.62,-2.39 h -1.6 v -1.55 c 1.75,0.16 6.08,0.16 8.07,0.16 2,0 6.32,0 8.07,-0.16 v 1.55 h -1.59 c -4.48,0 -4.64,0.54 -4.64,2.39 z" /><path
           style="fill:#000000;stroke-width:0"
           inkscape:connector-curvature="0"
           id="path8134"
           d="m 510.89,420.04 -9.95,9.92 c -0.61,0.6 -0.71,0.71 -1.11,0.71 -0.49,0 -0.99,-0.46 -0.99,-1 0,-0.36 0.1,-0.46 0.64,-1 l 9.97,-10.02 -9.97,-10.01 c -0.54,-0.55 -0.64,-0.64 -0.64,-1 0,-0.55 0.5,-0.99 0.99,-0.99 0.4,0 0.5,0.1 1.11,0.69 l 9.9,9.92 10.32,-10.31 c 0.11,-0.05 0.45,-0.3 0.75,-0.3 0.59,0 1,0.44 1,0.99 0,0.11 0,0.31 -0.16,0.56 -0.05,0.09 -7.97,7.92 -10.45,10.45 l 9.11,9.13 c 0.25,0.29 1,0.93 1.25,1.23 0.04,0.11 0.25,0.3 0.25,0.66 0,0.54 -0.41,1 -1,1 -0.39,0 -0.6,-0.21 -1.14,-0.75 z" /><path
           style="fill:#000000;stroke-width:0"
           inkscape:connector-curvature="0"
           id="path8136"
           d="m 555.96,438.09 v 0.05 0.06 0.05 0.05 0.05 0.05 0.04 l -0.01,0.05 v 0.04 0.04 0.04 0.04 0.04 0.03 l -0.01,0.04 v 0.03 l -0.01,0.07 -0.01,0.06 -0.01,0.05 -0.01,0.05 -0.02,0.05 -0.02,0.04 -0.02,0.04 -0.03,0.03 -0.02,0.03 -0.04,0.03 -0.03,0.03 -0.04,0.02 -0.05,0.02 -0.02,0.01 -0.02,0.01 h -0.03 l -0.03,0.01 -0.02,0.01 h -0.03 l -0.04,0.01 h -0.03 l -0.03,0.01 h -0.04 -0.03 l -0.04,0.01 h -0.04 -0.04 -0.04 -0.04 -0.05 l -0.04,0.01 h -0.05 -0.05 -0.05 -0.05 c -3.1,-3.19 -7.47,-3.19 -9.07,-3.19 v -1.55 c 1,0 3.94,0 6.52,1.3 v -25.81 c 0,-1.8 -0.14,-2.39 -4.62,-2.39 h -1.6 v -1.55 c 1.75,0.16 6.08,0.16 8.06,0.16 2,0 6.33,0 8.08,-0.16 v 1.55 h -1.59 c -4.49,0 -4.64,0.54 -4.64,2.39 z" /></g>    </g>
  </g>
</svg>
